<?xml version="1.0" standalone="no"?>
<!DOCTYPE svg PUBLIC "-//W3C//DTD SVG 1.1//EN" "http://www.w3.org/Graphics/SVG/1.1/DTD/svg11.dtd" >
<svg xmlns="http://www.w3.org/2000/svg" xmlns:xlink="http://www.w3.org/1999/xlink" version="1.1">
<metadata></metadata>
<defs>
<font id="bringinregular" horiz-adv-x="626" >
<font-face units-per-em="2048" ascent="1536" descent="-512" />
<missing-glyph horiz-adv-x="471" />
<glyph unicode="Br" horiz-adv-x="2205" d="M7 922q-15 96 4 185t67.5 170.5t120.5 144.5t170.5 104t210.5 51q178 16 306 -14.5t193.5 -101.5t76.5 -174t-42 -238t-166 -287q26 2 65 4t90.5 -8t99.5 -25t92 -46.5t67 -72.5q94 90 137 203q-51 34 -79.5 95t-24.5 150t49 185l180 -102q-71 -198 -36 -269 q20 -39 60 -17q45 26 68 104l10 47q20 -6 50.5 -16t75.5 -27.5t73.5 -38t24.5 -37.5q-40 -165 -57.5 -297.5t-13 -237t35.5 -169.5t87 -92.5t144 -10t205 81.5l19 -45q-119 -70 -223 -100t-183.5 -19t-142 53.5t-101.5 116.5t-58 170t-15.5 214t28.5 249q-47 -20 -96 -17 q-30 -61 -80 -127t-113 -120q13 -88 -45 -207q-33 -68 -89 -127.5t-123 -104t-143.5 -71t-151 -32.5t-145 16.5t-125.5 69.5t-92 133t-46 202q-127 62 -218.5 145.5t-138.5 172t-62 184.5zM104.5 864.5q5.5 -76.5 40.5 -145.5t108 -130.5t177 -101.5q13 114 16 131 q26 154 93 360t125 329q53 -14 93 -30.5t62 -30.5t34.5 -28t15.5 -23.5t1 -16.5q0 -1 -20.5 -62.5t-36 -109.5t-40 -134t-42 -158.5t-33.5 -160.5t-22 -160q269 -51 518 94q-68 118 -369 78q-34 16 -37.5 61t19.5 72q245 337 227 507.5t-299 170.5q-119 0 -224 -29.5 t-180.5 -79t-129.5 -115.5t-78 -138.5t-18.5 -149zM668 352q-5 -171 46.5 -246t180.5 -32q121 41 217 146.5t98 199.5q-106 -56 -260 -76t-282 8z" />
<glyph unicode="yr" horiz-adv-x="1630" d="M3 463q-15 296 77 645q88 -27 140 -50t69 -38.5t14 -30.5q-49 -177 -67.5 -362t-4.5 -296t52 -102q37 10 82.5 144.5t78.5 315.5t39 325q0 13 61 -4t121.5 -42.5t59.5 -35.5q0 -29 -10 -156q61 -20 118 1.5t91 66.5q-51 34 -79.5 95t-25 150t48.5 185l181 -105 q-71 -196 -36 -268q19 -38 58 -18q45 25 69 101q8 25 11 52q2 -1 21.5 -7t38 -12.5t44 -15.5t46 -19t39 -20.5t27.5 -22t7 -21.5q-40 -166 -57.5 -298.5t-13 -236.5t35.5 -169t87.5 -92.5t144.5 -10t205 81.5l18 -48q-119 -70 -223 -99.5t-183.5 -18t-142 54t-101 116.5 t-58 170t-15.5 214t29 249q-57 -23 -111 -14q-47 -60 -119.5 -92.5t-158.5 -1.5q-34 -368 -64 -546q-78 -456 -225 -603q-101 -101 -215 -80q-85 15 -130 85q-51 79 -14 165q52 119 254 178q19 5 39 10q50 198 80 437q-83 -274 -191 -330q-81 -42 -147 52q-83 118 -95 372z M117.5 -340q2.5 -21 15.5 -33q12 -12 28.5 -12.5t39 13.5t45 41.5t47 78t45.5 117.5q-61 -19 -107.5 -47t-70 -55.5t-34.5 -54.5t-8.5 -48z" />
<glyph unicode="fr" horiz-adv-x="1714" d="M14 -410q-37 95 28 184q75 104 269 152q46 176 82 516q-37 -3 -50 -4.5t-37.5 -1t-29 -0.5t-20 6.5t-16 8.5t-10.5 16.5t-11 21t-10.5 31t-13.5 37.5q9 -5 26 -12.5t70 -21t108 -15.5q2 21 4.5 80t5 115.5t10.5 131.5t19 138.5t31.5 126.5t48 105.5t69.5 64.5t93 14 q73 -12 112.5 -68.5t42.5 -137.5t-16 -176.5t-58.5 -190t-90.5 -174.5q86 16 176 45q4 -45 -12 -50q-172 -52 -201 -59q-32 -299 -74 -498q84 27 159.5 99t128 163t93 196.5t61.5 199.5t27 172q-43 21 -74 62.5t-45 98t-4.5 130t45.5 151.5l180 -104q-71 -196 -35 -268 q19 -39 58 -17q46 25 69 102q8 24 11 50q165 -53 206 -88q20 -17 17 -31q-39 -166 -56 -298.5t-12.5 -236.5t35.5 -169t87.5 -92.5t144.5 -10t205 81.5l18 -47q-105 -61 -198 -91.5t-167.5 -29t-136 29t-104.5 79t-72 123.5t-40 161.5t-5.5 194t27.5 219.5q-55 -24 -111 -14 q-17 -228 -93 -423t-191 -320.5t-248 -162.5q-74 -294 -225 -387q-99 -60 -196 -17q-74 34 -104 109zM72 -381q11 -35 47 -31q56 6 111 105q33 59 59 143q-126 -39 -179 -103.5t-38 -113.5zM641 561q46 77 78 167.5t43.5 166.5t13.5 139.5t-5.5 98.5t-20.5 32 q-67 -17 -109 -604z" />
<glyph unicode="vr" horiz-adv-x="1511" d="M2.5 515q6.5 292 63.5 515q247 -75 229 -119q-29 -81 -61.5 -286.5t-38.5 -372.5q45 152 165 430t187 362q17 4 37 0q33 0 57 -14.5t21 -40.5q-14 -124 21 -182q27 -45 64 -8q15 15 29 43q-64 61 -74.5 164.5t48.5 240.5l180 -102q-71 -198 -36 -269q20 -39 60 -17 q45 26 68 104l10 47q18 -5 50.5 -15.5t76 -27.5t72 -37.5t24.5 -36.5q-40 -166 -57.5 -299t-13 -237t35.5 -169t87.5 -93t144.5 -10.5t205 81.5l18 -45q-104 -62 -197 -92t-167.5 -29t-135.5 28t-104.5 78.5t-72 123.5t-39.5 161.5t-5.5 194t27.5 219.5q-91 -38 -166 8 q-42 -70 -86.5 -82t-75 20t-50 78.5t-17.5 85.5q2 7 0 15q-102 -144 -207.5 -406.5t-157.5 -507.5q-7 -13 -32.5 -14.5t-54.5 6t-55.5 25t-33.5 39.5q-49 151 -42.5 443zM815 813z" />
<glyph unicode="jr" horiz-adv-x="1570" d="M22 -268q-46 -86 0 -170q40 -72 121 -94q108 -28 209 59q124 108 189 362q66 292 114 805q83 -26 155.5 6.5t117.5 90.5q54 -9 110 14q-45 -231 -21.5 -413t112 -285t241 -107t365.5 121l-21 45q-88 -48 -159.5 -70t-124.5 -17.5t-91.5 31.5t-61 77t-31 119.5t-3 159.5 t22.5 195.5t47 229.5q11 45 -220 118q-2 1 -3 1q-12 -96 -63 -141q-40 -34 -66 -7q-42 43 -2 195q11 42 28 88l-180 102q-45 -96 -49 -185t24.5 -150t79.5 -95q-33 -43 -88.5 -64t-114.5 -3q4 45 8.5 98t4.5 57q0 32 -244 82q-2 -207 -33.5 -537.5t-85.5 -539.5 q-221 -55 -287 -178zM70 -358.5q-1 21.5 11 48t36.5 53.5t69.5 53.5t104 45.5q-22 -70 -48 -122t-49.5 -79t-45.5 -39.5t-39 -10t-27 15.5q-11 13 -12 34.5zM471 1302q3 44 8 80t11 58l6 22q54 -9 96.5 -22.5t66.5 -27.5t39 -29.5t19.5 -27t3.5 -20.5q-5 -52 -23.5 -169 t-21.5 -142q-62 8 -105.5 36.5t-63.5 67.5t-29.5 84.5t-6.5 89.5z" />
<glyph unicode="br" horiz-adv-x="1667" d="M2 528.5q-1 64.5 2.5 122t11.5 113.5q28 188 90 421t119 376q53 -16 93.5 -35.5t62 -36.5t34.5 -34.5t16 -29t1 -20.5q-10 -39 -56 -205t-69 -260q59 78 123 111q81 38 154 13.5t133 -99.5q66 -87 82 -213q48 -3 90 18.5t69 56.5q-51 34 -79.5 95t-24.5 150t49 185 l180 -104q-71 -196 -35 -268q19 -39 58 -17q46 25 69 102q8 24 11 50q165 -53 206 -88q20 -17 17 -31q-40 -166 -57.5 -298.5t-13 -237t35.5 -169.5t87.5 -92.5t145 -10t205.5 80.5l19 -45q-119 -70 -223.5 -99.5t-184.5 -18t-142.5 54t-101 116t-58 169.5t-15.5 213.5 t29 248.5q-56 -21 -111 -12q-38 -48 -95 -80t-124 -27q5 -145 -44.5 -298t-134 -260.5t-175.5 -125.5q-74 -17 -133 -8.5t-105.5 30.5t-81 62t-59 87t-39.5 106t-22.5 118t-8.5 123.5zM260 255q26 -76 92 -75q36 1 78 62.5t73.5 155t50.5 193t10.5 188.5t-48.5 130 q-55 58 -127 -46q-73 -106 -117 -292q-49 -207 -12 -316z" />
<glyph unicode="kr" horiz-adv-x="1701" d="M2.5 338.5q-1.5 158.5 20.5 321.5t59 333t78.5 310t83.5 247q53 -16 94 -35.5t62 -36.5t36 -34t15.5 -28.5t-0.5 -20.5q-64 -155 -153 -557t-105 -588q34 99 76.5 209.5t97.5 238t107.5 210t86.5 83.5q30 1 60 -0.5t36 -1.5q-15 -17 -39.5 -47t-81 -116t-90.5 -164 q-12 -138 39.5 -281.5t143.5 -214.5q83 -64 159 1t122 199.5t73.5 253.5t32.5 187q-43 21 -73.5 62.5t-44.5 98t-4 130t46 151.5l178 -104q-70 -197 -34 -268q20 -39 60 -17q46 25 69 103q7 23 10 49q2 -1 22 -7t37.5 -12.5t43.5 -16t46 -19.5t38.5 -20.5t28 -22t7.5 -21.5 q-30 -124 -47 -229.5t-22.5 -196t3 -159.5t31 -120t61 -78t91.5 -31t124.5 17.5t159.5 69.5l19 -45q-119 -70 -223 -99.5t-184 -18t-142.5 54t-101.5 116t-58 169.5t-15.5 213.5t29.5 248.5q-53 -22 -112 -12q-3 -36 -7 -77t-16.5 -120t-29.5 -149t-46.5 -149.5 t-65.5 -136.5t-89.5 -96.5t-116.5 -41.5q-263 -12 -377 292q-51 -142 -102 -301q-3 -10 -20.5 -13.5t-41 0.5t-47 12.5t-42 24t-23.5 32.5q-31 110 -32.5 268.5z" />
<glyph unicode="ur" horiz-adv-x="1810" d="M18 293q-48 294 43 688q9 39 19 78q89 -27 141.5 -50t69 -39t12.5 -30q-47 -176 -63.5 -353t-1 -279.5t52.5 -92.5q43 11 94.5 177t102.5 394.5t63 266.5q88 -27 140 -50t69 -38.5t14 -30.5q-153 -652 27 -780q165 -121 254 194q45 162 69 469q-43 20 -73.5 61.5t-45 98 t-4.5 131t46 152.5l180 -105q-71 -198 -36 -269q20 -39 60 -17q45 26 68 104l10 47q19 -5 50.5 -15.5t75.5 -27t72.5 -37t24.5 -37.5q-40 -166 -57.5 -299t-13 -237t35.5 -169t87.5 -93t144.5 -10.5t205 81.5l20 -45q-105 -61 -198 -91.5t-167.5 -29t-136 28.5t-104.5 78.5 t-72 123.5t-40 161t-5.5 193.5t27.5 219.5q-57 -24 -111 -12q-18 -238 -19 -250q-39 -384 -178 -479q-50 -34 -114 -33q-166 2 -264 147t-88 400q-79 -407 -208 -539q-84 -86 -161 -25q-84 67 -117 269z" />
<glyph unicode="er" horiz-adv-x="1562" d="M6 418q-20 204 61 377q77 164 222 231q136 64 243 30q89 -29 108 -115q29 -127 -114 -308q-109 -137 -305 -283q14 -189 118 -243q90 -46 208 27q129 80 220 260q93 186 110 421q-43 20 -74 61.5t-45 97.5t-4.5 129.5t45.5 151.5l180 -102q-71 -198 -36 -269 q20 -39 60 -17q45 26 68 104l10 47l16 -5q16 -5 26.5 -8.5l31.5 -10.5t36.5 -13.5t35 -15t33 -16.5t25.5 -16.5t17 -17t3 -16.5q-29 -124 -46 -229.5t-22.5 -195.5t3.5 -159.5t31.5 -119.5t61 -77t91.5 -31.5t124.5 17.5t159.5 70l18 -45q-105 -62 -198 -92t-167.5 -29 t-136 28t-104.5 78.5t-72 123.5t-40 161.5t-5.5 194t27.5 219.5q-54 -24 -110 -14q-8 -95 -25 -186.5t-53 -193t-85.5 -181t-127 -142t-172.5 -84.5q-199 -48 -326 92q-106 116 -125 314zM225 436q129 119 205 213t94 141.5t0 65.5q-15 8 -44.5 3t-70 -43.5t-78 -87 t-67.5 -127.5t-39 -165z" />
<glyph unicode="hr" horiz-adv-x="1775" d="M2.5 338.5q-1.5 158.5 20.5 321.5t59 333t78.5 310t83.5 247q53 -16 94 -35.5t62 -36.5t36 -34t15.5 -28.5t-0.5 -20.5q-64 -156 -153 -558t-105 -587q34 99 76.5 209.5t97.5 238t107.5 210t86.5 83.5q39 2 104.5 -24t61.5 -43q-163 -699 53 -797q60 -27 109 0t80.5 93 t55 146.5t36 171.5t19.5 155t10 108v3.5v2.5q-43 20 -74 61.5t-45 97.5t-4.5 129.5t45.5 151.5l180 -102q-71 -198 -36 -269q20 -39 60 -17q45 26 68 104l10 47q18 -5 50.5 -15.5t76.5 -27.5t72.5 -37.5t24.5 -36.5q-40 -166 -57.5 -299t-13 -237t35.5 -169t87.5 -93 t145 -10.5t205.5 81.5l18 -45q-105 -62 -198 -92t-167.5 -29t-136 28t-104.5 78.5t-72 123.5t-40 161.5t-5.5 194t27.5 219.5q-56 -24 -110 -12q-4 -54 -7.5 -95t-10.5 -104.5t-15.5 -113t-22.5 -110.5t-31 -106.5t-41 -92t-51.5 -76t-65 -48.5t-79.5 -20q-66 -2 -120.5 18 t-91.5 51.5t-65.5 80t-44.5 93t-26 102.5t-13.5 96t-3.5 86t0.5 60.5t1.5 30.5q-23 -37 -44 -81.5t-48 -118.5t-41 -114.5t-52 -157.5t-52 -159q-10 -11 -36 -12.5t-54 5.5t-53 24t-31 39q-31 110 -32.5 268.5z" />
<glyph unicode="rr" horiz-adv-x="1597" d="M2 1039.5q-5 94.5 49 209.5l180 -104q-71 -198 -35 -269q19 -39 58 -17q46 25 69 101q8 24 11 50q19 -5 50.5 -15.5t75.5 -27t72.5 -37t24.5 -37.5q-99 -420 -49 -646q29 -131 98 -147q68 -16 139 85q108 154 151 472q10 72 15 150q-42 20 -72.5 61.5t-44.5 98t-4 130.5 t46 152l180 -104q-71 -198 -36 -269q20 -39 60 -17q45 26 68 104l10 47q21 -6 50 -15.5t74.5 -27t73.5 -37.5t25 -37q-40 -166 -57.5 -299t-13 -237t35.5 -169t87.5 -93t144.5 -10.5t205 81.5l18 -45q-119 -70 -223 -99.5t-183.5 -18.5t-142 53.5t-101 116t-58 170 t-15.5 214t29 248.5q-59 -24 -111 -12q-5 -67 -17.5 -152t-40.5 -201t-64.5 -209t-95.5 -160.5t-128 -70.5q-89 -4 -158 34t-112.5 111t-65.5 174t-19.5 225t28.5 261q-68 -30 -133.5 -7.5t-104 85t-43.5 157z" />
<glyph unicode="or" horiz-adv-x="1593" d="M6 338q-12 93 3 193t47.5 191t95 167.5t143.5 118.5q87 48 180.5 43.5t155.5 -70.5q39 -43 63 -100q-198 79 -329 -66q-98 -108 -126 -296q-25 -166 19 -278q40 -104 121 -94q67 9 123 64t87.5 127.5t44.5 148.5t1 129q-5 1 -17 3.5t-20 3.5q-101 13 -117 80 q-12 52 29 97q44 50 103 37q10 -2 20 -6q87 -37 100 -153q80 20 154 113q-51 34 -79.5 95t-25 150t48.5 185l181 -103q-71 -198 -36 -269q20 -39 60 -17q45 26 68 104l10 47q19 -5 49.5 -15.5t75 -28t73 -37.5t25.5 -36q-40 -166 -57.5 -299t-13 -237t35.5 -169t87.5 -93 t144.5 -10.5t205 81.5l18 -45q-104 -62 -197 -92t-167.5 -29t-135.5 28t-104.5 78.5t-72 123.5t-39.5 161.5t-5.5 194t27.5 219.5q-58 -24 -113 -12q-26 -35 -47 -59t-67.5 -52.5t-100.5 -36.5q-2 -98 -43 -231q-36 -113 -95 -200t-150 -140.5t-199 -48.5q-68 3 -121 49.5 t-81 122t-40 168.5z" />
<glyph unicode="gr" horiz-adv-x="1710" d="M2.5 354.5q-6.5 93.5 11 192.5t50.5 188.5t91 163t132 111.5q78 42 157.5 34.5t133.5 -69.5q0 45 2 65q57 -13 94 -22t74.5 -20.5t55.5 -21.5t17 -20l-5 -73q-4 -73 -9 -135q57 -14 110.5 7t86.5 62q-52 34 -81 95t-25.5 150t48.5 185l180 -102q-71 -198 -35 -269 q19 -39 58 -17q46 25 69 101q8 24 11 50q18 -5 50.5 -15.5t76 -28t72 -38t24.5 -37.5q-39 -165 -56.5 -297.5t-13 -237t36 -169.5t87.5 -92.5t144 -10t205 81.5l19 -45q-105 -62 -198 -92t-167.5 -29t-136 28t-104.5 78.5t-72 123.5t-40 161.5t-5.5 194t27.5 219.5 q-57 -24 -111 -12q-43 -58 -113.5 -91t-152.5 -8q-43 -502 -111 -800q-76 -298 -230 -392q-100 -61 -197 -19q-74 32 -103 104q-36 92 29 178q76 100 268 147q29 127 47 240q-127 -167 -301 -150q-60 6 -105 55.5t-67 126.5t-28.5 170.5zM217 -355q1 -21 12 -34 q10 -13 27 -15.5t39 10t45.5 39t49.5 78.5t48 121q-59 -19 -104 -45.5t-69.5 -53t-36.5 -53t-11 -47.5zM254 339.5q10 -94.5 51 -114.5q88 -42 160 86q65 117 84 296q17 172 -26 243q-29 47 -79 27q-66 -27 -115.5 -126t-67 -208t-7.5 -203.5z" />
<glyph unicode="dr" horiz-adv-x="1929" d="M2.5 354.5q-6.5 93.5 11 192.5t50.5 188.5t91 163t132 111.5q80 44 162.5 35.5t134.5 -76.5q1 -1 3 -4t3 -4q73 340 170 591q65 -21 110.5 -45t65 -46t27 -38t4.5 -28q-13 -50 -54.5 -198t-69.5 -261t-46 -217q-4 -23 -7 -46t-7.5 -62.5t-6.5 -76t-3 -82t2.5 -84.5 t9.5 -78.5t19.5 -69.5t31.5 -53t45 -33t61 -5q65 9 117 63t83.5 125.5t54 167t32.5 170t16 152.5q-43 20 -74 61.5t-45 97.5t-4.5 129.5t45.5 151.5l181 -102q-71 -198 -36 -269q20 -39 60 -17q45 26 68 104l10 47q18 -5 50.5 -15.5t76 -27.5t72 -37.5t24.5 -36.5 q-40 -166 -57.5 -299t-13 -237t35.5 -169t87.5 -93t144.5 -10.5t205 81.5l18 -45q-104 -62 -197 -92t-167.5 -29t-135.5 28t-104.5 78.5t-72 123.5t-39.5 161.5t-5.5 194t27.5 219.5q-59 -24 -111 -12q-1 -8 -2 -26q-4 -53 -6.5 -84.5t-10.5 -95.5t-16.5 -107.5 t-24.5 -105.5t-34.5 -104.5t-47 -89.5t-61.5 -76t-78.5 -48.5t-97.5 -20.5q-121 -3 -205 61t-126 185q-63 -137 -158.5 -213.5t-216.5 -63.5q-60 6 -105 55t-67 125.5t-28.5 170zM254 341.5q10 -94.5 51 -114.5q89 -43 160 86q64 118 80 298q15 172 -28 241q-27 43 -73 25 q-66 -26 -115.5 -125t-67 -207.5t-7.5 -203z" />
<glyph unicode="qr" horiz-adv-x="1746" d="M2.5 386.5q-6.5 93.5 11 193t50.5 188.5t91 162.5t132 111.5q80 44 162.5 34.5t134.5 -77.5q30 -42 47 -88q10 32 29 85.5t20 56.5q65 -21 111 -45.5t65.5 -46t26.5 -38t4 -28.5q-6 -25 -20.5 -75.5t-20.5 -74.5q56 -13 108 9.5t84 62.5q-51 34 -79.5 95t-24.5 150 t49 185l180 -102q-71 -198 -35 -269q19 -39 58 -17q46 25 69 101q8 24 11 50q19 -5 50.5 -15.5t75.5 -27t72.5 -37t24.5 -37.5q-40 -166 -57.5 -299t-13 -237t35.5 -169t87.5 -93t145 -10.5t205.5 81.5l19 -45q-119 -70 -223.5 -100t-184.5 -19t-142.5 53.5t-101.5 116.5 t-58 170t-15.5 214t28.5 249q-56 -24 -110 -12q-44 -60 -116 -93t-157 -6q-84 -311 -114 -475q-25 -148 -27.5 -275t18 -224t71.5 -151t128 -50l11 -41q-105 -30 -185 -9t-136 78.5t-89 149t-45 201.5t-4 237q-114 -114 -256 -100q-60 6 -105 55.5t-67 126t-28.5 170z M254 372.5q10 -94.5 51 -114.5q86 -42 158 87q65 117 84 296q18 172 -26 242q-28 45 -77 26q-66 -27 -115.5 -126t-67 -207.5t-7.5 -203z" />
<glyph unicode="cr" horiz-adv-x="1589" d="M1 429q-1 113 29 221t95 205.5t156 154.5q86 53 187 54.5t181 -44.5l-121 -197q-120 27 -213 -95q-81 -108 -103 -268q-21 -165 40 -264q51 -82 149 -83q86 0 159 32t125 88t92.5 125.5t66 151t40 157.5t19.5 152q-43 20 -74 61.5t-45 97.5t-4.5 130t45.5 152l181 -103 q-71 -198 -36 -269q20 -39 60 -17q45 26 68 104l10 47q18 -5 50.5 -15.5t76 -27.5t72 -37.5t24.5 -36.5q-30 -124 -47 -229.5t-22.5 -196t3.5 -159.5t31.5 -120t61 -78t92 -31t125.5 17.5t160 69.5l18 -45q-105 -62 -198 -92t-167.5 -29t-136 28t-104.5 78.5t-72 123.5 t-40 161.5t-5.5 194t27.5 219.5q-57 -24 -111 -12q-9 -120 -33 -230.5t-74 -223t-119.5 -191.5t-178 -124t-242.5 -34q-96 8 -164.5 70t-100.5 153t-33 204z" />
<glyph unicode="tr" horiz-adv-x="1505" d="M0 1061q47 -11 119 -21q54 203 106 338q65 -20 110.5 -44t65 -45.5t27 -37.5t4.5 -28q-10 -40 -30.5 -112t-26.5 -93q128 -3 225 16l4 -90q-107 -22 -252 -8q-48 -189 -63 -299q-73 -464 110 -547q64 -28 127 11t111.5 121t88.5 187t63.5 209.5t29.5 188.5 q-43 20 -74 61.5t-45 97.5t-4.5 129.5t45.5 151.5l181 -102q-71 -198 -36 -270q20 -39 60 -17q45 26 68 104q7 23 10 48q165 -53 206 -88q20 -17 17 -31q-34 -142 -52 -259.5t-19.5 -214.5t15 -167t53 -112.5t92.5 -55t135 8t180 75.5l18 -45q-105 -62 -198 -92t-167.5 -29 t-136 28t-104.5 78.5t-72 123.5t-40 161.5t-5.5 194t27.5 219.5q-55 -24 -111 -14q-8 -111 -30.5 -223.5t-61 -224t-102 -196.5t-142.5 -118q-125 -54 -223.5 -20t-162.5 126.5t-89.5 236.5t-5.5 310q12 117 57 295l-100 27z" />
<glyph unicode="mr" horiz-adv-x="2215" d="M6.5 513q20.5 292 89.5 515q88 -27 140.5 -50t69.5 -38.5t13 -28.5q-35 -84 -77.5 -289.5t-55.5 -371.5q34 100 76.5 209.5t97.5 237.5t107 210.5t86 83.5q40 2 105.5 -24t62.5 -43q-85 -356 -70 -562q54 148 107.5 276t118.5 240t104 113q39 2 104 -24t62 -43 q-125 -519 -33 -711q35 -70 82.5 -84.5t110.5 35.5q67 59 120 193.5t75.5 250.5t27.5 199q-42 20 -72.5 61.5t-45 97.5t-4.5 129.5t46 151.5l180 -102q-71 -198 -35 -269q19 -39 58 -17q46 25 69 101q8 24 11 50q19 -5 49.5 -15.5t75 -28t73 -37.5t25.5 -36 q-30 -124 -47 -229.5t-22.5 -196t3 -159.5t31 -120t61 -78t91.5 -31t124.5 17.5t159.5 69.5l19 -45q-104 -62 -197 -92t-167.5 -29t-135.5 28t-104.5 78.5t-72 123.5t-39.5 161.5t-5.5 194t27.5 219.5q-58 -24 -111 -12q-10 -132 -51 -314.5t-109 -304.5 q-39 -70 -94.5 -110.5t-114.5 -47t-120 22.5t-111 92q-22 28 -39.5 62t-29 70t-20 72.5t-13 73.5t-7.5 68.5t-3.5 62.5t0 50.5t1 36.5t0.5 18q-34 -56 -61.5 -117t-42.5 -104t-38.5 -117t-39.5 -119q-2 -6 -7 -19q-10 -27 -15.5 -40t-16 -29.5t-20.5 -18t-26 6t-36 29.5 q-24 27 -43.5 61t-32.5 70.5t-22.5 74t-14.5 75.5t-8 71.5t-3.5 65.5t-0.5 53t1 38.5t1 18.5q-23 -37 -44 -81.5t-48 -118.5t-41 -114.5t-52 -157.5t-52 -159q-6 -12 -31.5 -13.5t-54.5 6t-54.5 24.5t-31.5 39q-43 151 -22.5 443z" />
<glyph unicode="nr" horiz-adv-x="1742" d="M6 513q20 292 88 515q89 -27 142 -50t70 -38.5t13 -28.5q-35 -84 -77.5 -289.5t-55.5 -371.5q34 100 76.5 209.5t97.5 237.5t107 210.5t86 83.5q40 2 105.5 -24t62.5 -43q-163 -682 43 -793q151 -80 231 231q43 165 62 445q-42 20 -72.5 61.5t-45 97.5t-4.5 129.5 t46 151.5l180 -102q-71 -198 -35 -269q19 -39 58 -17q46 25 69 101q8 24 11 50q19 -5 49.5 -15.5t75 -28t73 -37.5t25.5 -36q-30 -124 -47 -229.5t-22.5 -196t3 -159.5t31 -120t61 -78t91.5 -31t124.5 17.5t159.5 69.5l19 -45q-119 -70 -223 -100t-183.5 -19t-142 53.5 t-101.5 116.5t-58 170t-15.5 214t28.5 249q-58 -24 -110 -12q-2 -24 -6 -82.5t-6.5 -92.5t-8.5 -94t-12.5 -98t-18 -91.5t-25 -89t-33.5 -76t-43.5 -66.5t-55 -46t-68.5 -28q-98 -20 -172 10t-112 91.5t-65 139t-30.5 153t-8.5 133.5t1 80v9q-23 -37 -44 -81.5t-48 -118.5 t-41 -114.5t-52 -157.5t-52 -159q-21 -14 -56.5 -13.5t-71.5 20.5t-44 49q-43 151 -23 443z" />
<glyph unicode="ar" horiz-adv-x="1835" d="M2.5 352.5q-6.5 93.5 11 192.5t50.5 188.5t91 163t132 111.5q80 44 162.5 35.5t134.5 -76.5q1 -2 3 -5.5t3 -5.5q4 15 12 42.5t12 41.5q89 -27 141 -49.5t69 -38.5t14 -30q-103 -432 -53 -640q27 -114 90 -119q64 -5 130 99q103 161 136 458q5 43 8 87q-43 20 -73.5 61.5 t-45 97.5t-4.5 129.5t47 151.5l178 -102q-71 -198 -35 -269q19 -39 58 -17q46 25 69 101q8 24 11 50q19 -5 51 -15.5t76 -27t72.5 -37t25.5 -37.5q-30 -124 -47 -229.5t-22.5 -196t3 -159.5t31 -120t61 -78t91.5 -31t124.5 17.5t159.5 69.5l19 -45q-104 -62 -197.5 -92 t-167.5 -29t-135.5 28t-105 78.5t-72 124t-40 161.5t-6 193.5t27.5 219.5q-55 -24 -111 -12q-14 -192 -64.5 -392t-140.5 -292q-82 -81 -164.5 -70t-148.5 76.5t-99 158.5q-63 -135 -157.5 -210t-214.5 -62q-60 6 -105 55t-67 125.5t-28.5 170zM254 339.5 q10 -94.5 51 -114.5q89 -44 159 87q64 119 79 299q14 171 -29 239q-26 42 -70 24q-66 -26 -115.5 -124.5t-67 -207t-7.5 -203z" />
<glyph unicode="ir" horiz-adv-x="1374" d="M6.5 614q13.5 188 77.5 398q89 -27 141 -50t68.5 -38.5t13.5 -30.5q-183 -763 90 -811q42 -2 78 18t63 59.5t48.5 86t37 110t26.5 118t18.5 123t11.5 113t8 99.5q-43 21 -73.5 62.5t-44.5 98t-4 130t46 151.5l179 -104q-70 -197 -34 -268q19 -39 58 -17q46 25 69 102 q8 24 11 50q2 -1 22 -7t37.5 -12.5t43.5 -16t46 -19.5t38.5 -20.5t28 -22t7.5 -21.5q-40 -166 -57.5 -298.5t-13 -237t35.5 -169.5t87.5 -92.5t144.5 -10t205 80.5l18 -45q-119 -70 -223 -99.5t-184 -18t-142.5 54t-101 116t-57.5 169.5t-15.5 213.5t29.5 248.5 q-58 -21 -113 -12q-16 -235 -26 -309q-52 -384 -237 -464q-47 -20 -101 -22q-130 -5 -217.5 73t-122 215.5t-21 325.5zM167.5 1201.5q-3.5 46.5 5.5 89.5t19 78t20 56l9 21q65 -21 110 -45.5t64.5 -46t26.5 -38t4 -28.5q-12 -52 -47.5 -168t-40.5 -133q-61 16 -100 50.5 t-53 76t-17.5 88z" />
<glyph unicode="pr" horiz-adv-x="1714" d="M2.5 -155q10.5 217 33.5 456.5t62.5 474t79.5 346.5q28 -2 61.5 -8.5t65 -15.5t57 -18.5t39.5 -19.5t11 -18q-10 -23 -25 -73q44 47 90 71q82 38 155.5 13t131.5 -99q68 -85 84 -213q47 -1 89.5 20.5t70.5 55.5q-52 34 -81 95t-25.5 150t48.5 185l180 -102 q-71 -198 -35 -269q19 -39 58 -17q46 25 69 101q8 24 11 50q165 -53 206 -88q20 -17 17 -31q-39 -166 -56 -298.5t-12.5 -236.5t35.5 -169t87.5 -92.5t144.5 -10t205 81.5l18 -45q-105 -62 -198 -92t-167.5 -29t-136 28t-104.5 78.5t-72 123.5t-40 161.5t-5.5 194 t27.5 219.5q-55 -24 -111 -14q-37 -47 -94.5 -79.5t-124.5 -27.5q4 -99 -19 -207t-67 -199.5t-99.5 -162t-121.5 -101.5t-127 -10q-128 44 -185 180q-25 -158 -40.5 -323.5t-16.5 -257.5t6 -131q2 -6 -8 -8q-31 -6 -91 20q-66 28 -73 67q-18 77 -7.5 294zM309 244 q25 -75 90 -74q37 1 79 62t73.5 154.5t50.5 193t10.5 189t-47.5 130.5q-55 59 -128 -47t-117 -293q-48 -206 -11 -315z" />
<glyph unicode="lr" horiz-adv-x="1396" d="M14.5 358q-24.5 156 1.5 361q26 186 93.5 434t126.5 395q52 -17 92 -36.5t62 -36.5t34.5 -34t15.5 -29t0 -21q-16 -65 -56.5 -210t-72 -270t-49.5 -227q-62 -361 13 -507q47 -91 130 -65q85 26 163 157q117 198 141 500l2 38q-43 21 -74 62.5t-45 98t-4.5 130t45.5 151.5 l180 -104q-71 -196 -36 -268q19 -38 58 -18q45 25 69 101q8 25 11 52l16 -5q16 -5 26.5 -8.5l31.5 -10.5t36.5 -13.5t35 -15t33 -16.5t25.5 -16.5t17 -17t3 -16.5q-30 -124 -47 -229.5t-22.5 -195.5t3 -159.5t31 -119.5t61 -77t91.5 -31.5t124.5 17.5t159.5 70l21 -47 q-119 -70 -223.5 -99.5t-184.5 -18t-142.5 54t-101.5 116.5t-58 170t-15.5 214t28.5 249q-56 -23 -110 -14q-5 -68 -17.5 -146t-34 -172.5t-55.5 -178.5t-77.5 -154t-104.5 -109t-131 -33q-129 10 -212 106t-107.5 252z" />
<glyph unicode="wr" horiz-adv-x="1945" d="M3 515q-11 293 32 515q91 -27 146.5 -50.5t74 -39.5t14.5 -29q-25 -82 -45 -287.5t-14 -371.5q33 142 129 407t162 371q91 -27 146.5 -50.5t74 -39.5t14.5 -29q-25 -82 -45 -287.5t-14 -371.5q35 152 137.5 430t165.5 362q14 4 37 0q31 0 56 -14.5t22 -40.5 q-14 -124 21 -182q27 -45 64 -8q15 15 29 43q-64 61 -74.5 164.5t48.5 240.5l180 -102q-71 -198 -36 -269q20 -39 60 -17q45 26 68 104l10 47q18 -5 50.5 -15.5t76.5 -27.5t72.5 -37.5t24.5 -36.5q-30 -124 -47 -229.5t-22.5 -196t3 -159.5t31 -120t61 -78t91.5 -31 t124.5 17.5t159.5 69.5l18 -45q-104 -62 -197 -92t-167.5 -29t-135.5 28t-104.5 78.5t-72 123.5t-39.5 161.5t-5.5 194t27.5 219.5q-91 -38 -166 8q-35 -58 -71.5 -76.5t-64.5 -2.5t-50 47.5t-32.5 71t-8.5 69.5q-94 -147 -181 -406t-122 -500q-7 -13 -33 -14.5t-55 6 t-56 25t-36 39.5q-42 107 -60.5 298t-7.5 388q-73 -160 -132.5 -359.5t-86.5 -382.5q-7 -13 -32.5 -14.5t-55 6t-56.5 25t-36 39.5q-58 150 -69 443zM1249 813z" />
<glyph unicode="Cr" horiz-adv-x="1935" d="M16 768.5q26 205.5 141 398.5t287 299q145 90 297 84q167 -6 263 -119q78 -92 70 -208q-8 -121 -106 -192q-145 -105 -412 -43l-13 3q255 32 373 162q79 86 67 176q-9 76 -77 106q-33 15 -75 15q-171 -3 -314 -195q-130 -175 -185 -429q-57 -262 0 -454q57 -198 218 -239 q77 -19 173 0q88 18 162.5 68t126.5 118t92 157t63 177t37 185q-43 39 -64 98.5t-14 141.5t48 169l180 -102q-71 -198 -36 -269q20 -39 60 -17q45 26 68 104l10 47q20 -5 50.5 -15.5t75 -28t73 -38t24.5 -37.5q-40 -165 -57.5 -297.5t-13 -236.5t35.5 -169.5t87.5 -93 t144.5 -10t205 81.5l18 -45q-104 -62 -197 -92t-167.5 -29t-135.5 28t-104.5 78.5t-72 123.5t-39.5 161.5t-5.5 194t27.5 219.5q-70 -31 -143 -4q-28 -154 -91 -292t-156 -249.5t-222 -183.5t-277 -86q-196 -18 -326.5 92.5t-165 295.5t-8.5 390.5z" />
<glyph unicode="Dr" horiz-adv-x="2304" d="M3.5 925.5q-10.5 96.5 11.5 186t71 172t118 144.5t159.5 102.5t189.5 48.5q138 11 257.5 -12.5t209 -74.5t160.5 -124.5t115 -162.5t68.5 -188.5t26 -202t-17 -204t-57.5 -192.5q242 108 305 387q-43 20 -74 61.5t-45.5 98t-5 130.5t46.5 152l178 -102q-71 -198 -35 -269 q20 -39 59 -17q46 25 70 102q7 24 11 49q19 -5 49.5 -15.5t75 -28t73 -37.5t25.5 -36q-30 -124 -47 -229.5t-22.5 -196t3 -159.5t31 -120t61 -78t91.5 -31t124.5 17.5t159.5 69.5l19 -45q-104 -62 -197.5 -92t-167.5 -29t-135.5 28t-105 78.5t-72 124t-40 161.5t-6 193.5 t27.5 219.5q-48 -20 -86 -17q-67 -305 -392 -415q-71 -141 -182 -236.5t-258 -126.5q-87 -20 -157 -7.5t-123 48t-89.5 92.5t-57.5 126.5t-26 150.5q-126 62 -214 146t-130.5 173.5t-53 186zM93.5 1002q-20.5 -97 5 -190.5t104 -181t200.5 -143.5q12 106 17 134 q27 156 93.5 361.5t125.5 326.5q52 -13 92 -29.5t62 -30.5t35 -28.5t16 -24t0 -16.5q-2 -5 -19.5 -63.5t-33 -109.5t-38.5 -135.5t-41 -158t-35 -159.5t-26 -155q9 -3 24.5 -6.5t67 -14t99.5 -15t122.5 -8t135.5 6.5q36 100 50 214.5t6 230.5t-47 221.5t-102 185t-166.5 123 t-234.5 35.5q-143 -9 -255 -63t-174.5 -132t-83 -175zM643 332q-2 -59 4 -105t21 -84t41.5 -57.5t65.5 -24.5t93 15q133 45 217 250q-92 -12 -215 -12.5t-227 18.5z" />
<glyph unicode="Er" horiz-adv-x="1787" d="M1.5 447q4.5 98 41 189t109.5 171.5t172 128.5q-65 57 -99.5 123t-38 129.5t16 125.5t59.5 113t97.5 89.5t123.5 58.5t143.5 17t153.5 -33q44 -17 80 -54.5t50 -82t6.5 -86.5t-54 -73.5t-127.5 -39.5q43 60 63.5 114.5t16 98.5t-44.5 70.5t-113 27.5q-62 0 -114 -21.5 t-84.5 -60.5t-49.5 -89.5t-8.5 -111.5t37 -123t90 -126.5t148.5 -120.5q-82 -7 -161.5 -56.5t-138 -123t-93 -164.5t-37 -178t40 -166.5t129.5 -126.5q40 -22 92 -22.5t107 17.5t112 56t109 89t97 120t76.5 146t46 169.5t7.5 187.5q-46 37 -69.5 97.5t-17.5 145.5t48 175 l180 -102q-71 -198 -35 -269q19 -39 58 -17q46 25 69 101q8 24 11 50q18 -5 50.5 -15.5t76 -27.5t72 -37.5t24.5 -36.5q-30 -124 -47 -229.5t-22.5 -196t3 -159.5t31 -120t61 -78t91.5 -31t124.5 17.5t159.5 69.5l21 -45q-119 -70 -223.5 -100t-184.5 -19t-142.5 53.5 t-101.5 116.5t-58 170t-15.5 214t28.5 249q-59 -24 -112 -12q1 -48 -9 -110t-31.5 -137.5t-57 -149.5t-85.5 -145.5t-115.5 -126t-149 -90.5t-186 -39t-224.5 28q-97 27 -164 92.5t-95.5 149.5t-24 182z" />
<glyph unicode="Gr" horiz-adv-x="2025" d="M2 656.5q6 123.5 39 250.5t92 236q72 133 162.5 221t181.5 122.5t177 34.5t163 -32q155 -64 197 -186q38 -106 -24 -207q-63 -101 -189.5 -134.5t-274.5 17.5q158 7 278 119q93 88 111 187q18 97 -52 140q-24 15 -58 21q-63 11 -131.5 -18.5t-124.5 -83t-101 -115.5 t-71 -121q-36 -86 -62.5 -196.5t-36 -231.5t0.5 -228.5t52.5 -193t114.5 -119.5q60 -23 108 -19.5t85.5 45t65.5 93.5t47.5 125.5t32 141.5t20 141.5t10 125.5t2.5 93q62 -14 95.5 -22t74 -19.5t58 -21t16.5 -19.5q-24 -433 -94 -787q138 136 238.5 375.5t94.5 439.5 q-45 37 -68 97t-17 144.5t49 174.5l178 -102q-71 -198 -36 -269q20 -39 60 -17q45 26 68 104l10 47q18 -5 50.5 -15.5t76 -27.5t72 -37.5t24.5 -36.5q-39 -166 -56 -299t-12.5 -237t35.5 -169t87.5 -93t144.5 -10.5t205 81.5l18 -45q-104 -62 -197.5 -92t-167.5 -29 t-135.5 28t-105 78.5t-72 124t-40 161.5t-6 193.5t27.5 219.5q-58 -25 -119 -12q3 -108 -35 -237.5t-99.5 -245.5t-138 -216.5t-151.5 -159.5q-2 -18 -10 -45q-74 -295 -227 -391q-99 -62 -196 -21q-74 31 -104 104q-37 91 26 176q75 103 270 151q35 143 61 336 q-161 -271 -364 -254q-105 9 -186.5 68t-129.5 149.5t-71 208t-17 241zM479 -390q8 -11 19 -16q17 -7 39 2t48 34.5t53.5 80t51.5 129.5q-154 -49 -203 -140q-31 -55 -8 -90z" />
<glyph unicode="Hr" horiz-adv-x="2058" d="M6 1197q-10 67 2.5 122.5t40.5 101.5q46 75 140.5 109t193 11.5t152.5 -97.5q37 -52 54.5 -117.5t15.5 -153.5t-11.5 -165.5t-30.5 -198.5q121 -48 244 -76q20 143 52 321.5t57 305t26 131.5q87 -26 147.5 -61t82 -61t18.5 -40q-90 -345 -137 -649q55 -14 100 -16t75.5 7 t52.5 23t36 36.5t21.5 43t11.5 45.5q-51 34 -79.5 95t-25 149.5t48.5 183.5l181 -102q-71 -198 -36 -269q20 -39 60 -17q45 26 68 104l10 47q18 -5 50.5 -15.5t76 -27.5t72 -37.5t24.5 -36.5q-30 -124 -47 -229.5t-22.5 -196t3.5 -159.5t31.5 -120t61 -78t92 -31t125.5 17.5 t160 69.5l18 -45q-105 -62 -198 -92t-167.5 -29t-136 28t-104.5 78.5t-72 123.5t-40 161.5t-5.5 194t27.5 219.5q-62 -26 -125 -10q-15 -44 -42 -81t-69.5 -68.5t-107 -45.5t-142.5 -6q-16 -120 -16 -225q1 -73 11 -126.5t26 -87t41 -51t51.5 -22.5t63.5 1.5t70 18t77 31.5 q3 1 4 -39q-141 -77 -255 -91t-191 33.5t-115 159t-29 279.5q6 83 17 162q-27 3 -107.5 26.5t-144.5 47.5q-15 -65 -72.5 -332.5t-64.5 -300.5q-10 -54 -103 -70.5t-182 4.5q60 186 130.5 445t86.5 346q-106 57 -179.5 126.5t-108 135t-44.5 132.5zM62.5 1284 q-3.5 -40 12 -88t47.5 -97.5t92.5 -104.5t143.5 -105q24 136 22 234.5t-20.5 165t-50.5 103t-67 48t-70 0.5q-29 -8 -53 -29.5t-38.5 -54t-18 -72.5z" />
<glyph unicode="Ir" horiz-adv-x="1622" d="M0 993q106 -21 188 -24q45 177 84.5 290t98.5 207q100 118 212 90q85 -21 138 -114q62 -109 37 -236q-32 -161 -195 -255q-58 -34 -129 -56q-75 -334 -78 -526q-3 -221 80 -281q63 -46 165 101t180.5 344.5t97.5 316.5q-38 41 -56 99t-10 137t47 161l180 -102 q-71 -198 -35 -269q19 -39 58 -17q46 25 69 101q8 24 11 50q165 -53 206 -88q20 -17 17 -31q-40 -165 -57.5 -297.5t-13 -237t35.5 -169.5t87 -92.5t144 -10t205 81.5l19 -45q-104 -62 -197 -92t-167.5 -29t-135.5 28t-104.5 78.5t-72 123.5t-39.5 161.5t-5.5 194 t27.5 219.5q-72 -29 -140 -4q-18 -58 -53.5 -146t-91 -201t-115 -209.5t-130 -166t-130.5 -76.5q-169 -20 -253.5 101t-65.5 372q4 56 18 150t25 161l12 66q-39 -2 -125 -2q-5 0 -21.5 70.5t-21.5 72.5zM457 989q74 20 129.5 60t84 86t41.5 94t9.5 88t-19.5 65 q-29 44 -76 11q-87 -62 -156 -347q-7 -28 -13 -57z" />
<glyph unicode="Jr" horiz-adv-x="1781" d="M14 -225.5q27 109.5 97 217.5t151.5 193t151.5 130q21 66 46.5 196t39 214.5t16.5 108.5q-167 102 -210 273q-36 143 25 270q56 114 162 153q116 42 248 -27q28 -14 46.5 -45.5t27 -68.5t10 -88.5t-1.5 -95.5t-10.5 -101.5t-14 -94t-15.5 -85t-11 -62.5q11 -11 58 -19.5 t104.5 -3t85.5 30.5q-31 43 -44 98.5t-3.5 128.5t45.5 150l180 -102q-71 -198 -36 -269q20 -39 60 -17q45 26 68 104l10 47q18 -5 50.5 -15.5t76.5 -28t72.5 -38t24.5 -37.5q-39 -165 -56.5 -297.5t-13 -237t36 -169.5t87.5 -92.5t144 -10t205 81.5l19 -45 q-119 -70 -223.5 -100t-184.5 -19t-142.5 53.5t-101.5 116.5t-58 170t-15.5 214t28.5 249q-105 -46 -194 26q-47 -54 -129 -72.5t-170 -4.5q-21 -117 -30.5 -169.5t-31.5 -165.5t-35.5 -172t-38.5 -158t-45 -156t-49.5 -133t-58 -123t-64.5 -91.5t-75 -70.5 q-60 -41 -122.5 -43.5t-109 25.5t-71.5 75q-38 93 -11 202.5zM68 -238q-22 -72 6 -129q27 -46 81 -13q72 44 131 190q7 18 13 36q57 184 84 306q-54 -38 -117 -100.5t-119.5 -140t-78.5 -149.5zM358.5 1294.5q-7.5 -44.5 0.5 -93t27 -94.5t56.5 -86.5t89.5 -66.5 q8 40 15.5 87t14.5 107.5t6.5 114t-7 99.5t-26.5 72t-52 24t-59 -24.5t-42.5 -58.5t-23 -80.5z" />
<glyph unicode="Mr" horiz-adv-x="2668" d="M2 265q-10 132 100 213q88 64 242 81q76 366 127 877q1 14 45 32.5t96.5 29t97.5 4t48 -35.5q19 -149 73.5 -402.5t92.5 -344.5q9 -24 118.5 114.5t232 332.5t157.5 302q21 29 80 5t121 -74t57 -70q-6 -27 -15.5 -74t-33 -179t-41 -250t-30 -256.5t-9.5 -229.5 q12 -271 94 -266q63 4 149 166q95 180 146 402q21 93 26 167q-56 30 -88.5 92t-30 154t49.5 192l178 -102q-71 -198 -35 -269q19 -39 59 -17q47 27 70 105l10 46q19 -5 50 -15.5t75.5 -28t73 -37.5t25.5 -36q-30 -124 -47 -229.5t-22.5 -196t3 -159.5t31 -120t61 -78 t91.5 -31t124.5 17.5t159.5 69.5l18 -45q-104 -62 -197.5 -92t-167.5 -29t-135.5 28t-105 78.5t-72 124t-40 161.5t-6 193.5t27.5 219.5q-45 -20 -94 -17q-3 -42 -16.5 -108t-38.5 -148.5t-60 -165t-79.5 -158t-98.5 -127t-116.5 -72t-133.5 6.5q-98 37 -148 153t-46 304 q5 204 51 485q-14 -14 -117 -148q-180 -234 -270 -287q-83 -47 -111 32q-84 228 -166 573q-74 -474 -98 -596q68 -24 87.5 -53t10.5 -102q-57 32 -121 55q-44 -186 -86 -270q-86 -164 -215 -170q-99 -4 -180 82q-80 84 -88 191zM52 211q21 -59 67 -74l10 -2q30 -5 59.5 23 t50 67t40 94.5t28.5 88.5t17 67q-195 -6 -259 -116q-41 -70 -13 -148zM571 432z" />
<glyph unicode="Pr" horiz-adv-x="2258" d="M0 164q1 4 9.5 12.5t16.5 15t9 5.5q32 -29 52.5 -46.5t46.5 -35t44.5 -22t40.5 -3.5t40 16.5t38.5 41.5t40.5 68.5t41 100.5q36 94 80 304q-64 33 -76.5 79.5t21.5 82.5t94 46q20 120 38.5 252t26.5 203l8 72q1 14 29.5 29.5t97 27t158.5 6.5q-1 -6 -17.5 -104.5 t-43 -251.5t-52.5 -289q21 -8 49.5 -29t47.5 -38l20 -17q92 33 158 104.5t96.5 157.5t24 180.5t-48.5 175t-132.5 141t-216.5 77.5q-77 10 -149.5 -9t-128 -60.5t-96 -102.5t-59 -130.5t-12.5 -149t40 -154.5q-68 16 -106.5 54.5t-43.5 63.5q-23 108 19.5 210.5t128 177 t204 122t241.5 57.5t248.5 -28t217.5 -125q110 -103 126.5 -258t-62.5 -304.5t-232 -238.5q-71 -39 -143 -57q79 -90 162 -127.5t154.5 -23t133.5 63.5t106 129.5t66 178.5q-53 33 -82.5 94t-26 151t49.5 187l178 -102q-71 -198 -35 -269q19 -39 58 -17q46 25 69 101 q8 24 11 50q18 -5 50.5 -15.5t76 -27.5t72.5 -37.5t26 -36.5q-30 -124 -47 -229.5t-22.5 -196t3 -159.5t31 -120t61 -78t91.5 -31t124.5 17.5t159.5 69.5l19 -45q-119 -70 -223 -100t-184 -19t-142.5 53.5t-101.5 116.5t-58.5 170t-16 214t28.5 249q-62 -26 -124 -10 q-24 -92 -72.5 -172.5t-112 -138.5t-141.5 -87t-156.5 -25t-161 54t-151.5 145q-35 -2 -105 -2q-36 -166 -57 -237q-60 -202 -160.5 -285.5t-223 -51t-261.5 168.5zM419 728q-11 -38 48 -64q18 91 22 120q-59 -18 -70 -56zM721 653q5 1 15.5 3t15.5 3q-2 2 -5.5 7.5 t-5.5 7.5q-12 18 -14 20q-5 -35 -6 -41z" />
<glyph unicode="Sr" horiz-adv-x="1687" d="M2 265q-13 115 82 193q127 106 401 93q-24 35 -83 94.5t-80 85.5q-53 66 -90 134.5t-61 146.5t-22.5 155t25.5 160q41 127 150.5 190t248.5 58q143 -4 220 -110q62 -87 48.5 -191t-97.5 -153q-113 -65 -298 9q195 52 272 165q54 78 26 146q-26 63 -105 71q-14 2 -29 1 q-82 -3 -136.5 -39t-76 -91.5t-23 -122t16.5 -131t49 -117.5q31 -54 78 -111t85.5 -97.5t80 -99.5t66.5 -122l8 -23q87 15 154.5 81t91.5 165q-44 20 -75 61.5t-45.5 98t-5 130.5t45.5 152l180 -102q-71 -198 -36 -269q20 -39 60 -17q45 26 68 104l10 47q18 -5 50.5 -15.5 t76.5 -28t72.5 -38t24.5 -37.5q-40 -165 -57.5 -297.5t-13 -237t35.5 -169.5t87.5 -92.5t145 -10t205.5 81.5l18 -45q-105 -62 -198 -92t-167.5 -29t-136 28t-104.5 78.5t-72 123.5t-40 161.5t-5.5 194t27.5 219.5q-51 -20 -88 -17q-35 -109 -113 -184t-186 -82 q60 -212 -48 -361t-331 -163q-167 -12 -282 85q-93 77 -105 182zM107 203q14 -87 84 -130q71 -43 165 -12q80 27 131.5 103t56 167t-37.5 183q-239 -3 -344 -127q-71 -83 -55 -184z" />
<glyph unicode="Tr" horiz-adv-x="1808" d="M2.5 1143q-7.5 76 15 145t82 128t148.5 89q76 25 162 28t168.5 -10.5t170 -33.5t180.5 -38.5t186.5 -28t201.5 1.5t213 46q-76 -153 -152 -184q-34 -15 -73 -22.5t-86.5 -5.5t-81.5 4.5t-91 14t-79.5 17t-81.5 19.5q-164 -655 -158 -944q4 -281 75 -270q61 9 151 220 q91 214 136 435q7 35 11 65q-51 33 -79.5 93.5t-25 149.5t48.5 185l181 -102q-71 -198 -36 -269q20 -39 60 -17q45 26 68 104l10 47q18 -5 50.5 -15.5t76 -28t72 -38t24.5 -37.5q-40 -165 -57.5 -297.5t-13 -236.5t35.5 -169.5t87.5 -93t144.5 -10t205 81.5l20 -45 q-105 -62 -198 -92t-167.5 -29t-136 28t-104.5 78.5t-72 123.5t-40 161.5t-5.5 194t27.5 219.5q-54 -23 -109 -14q-14 -87 -48 -198.5t-85 -226t-109.5 -205t-128.5 -135.5t-134 -18q-94 39 -142 160t-41 307q8 169 85.5 474t123.5 411q-25 8 -75 25.5t-75.5 26t-69 21 t-69.5 17t-62.5 8.5t-62 0t-53.5 -14t-51 -27q-42 -31 -65 -72.5t-23.5 -85.5t15 -89.5t53 -86t88 -72t122.5 -51t154 -20.5q13 0 -6 -28q-34 -52 -97 -77q-53 -20 -108 -10q-87 15 -154 63.5t-103 113.5t-43.5 141z" />
<glyph unicode="Ur" horiz-adv-x="2215" d="M2 1223q-1 137 102 234q90 84 206 91q128 8 205 -87q117 -143 58 -453q87 30 103 32q2 1 4 -3q9 -24 -5 -65q-28 -81 -130 -93q-71 -320 -74 -510q-3 -276 98 -297q72 -14 169 101q101 118 155 279q21 62 29 117q16 104 90.5 480t89.5 442q52 -16 96 -36t71 -38.5t45 -36 t25 -30.5t4 -21q-7 -26 -19.5 -70.5t-44.5 -171.5t-56.5 -241t-45.5 -250t-22 -227q0 -198 64 -265q32 -34 98 38t134 252.5t89 406.5q-45 19 -77.5 60t-48.5 98t-6.5 132.5t46.5 155.5l178 -102q-70 -198 -34 -269q20 -39 60 -17q46 25 69 102q7 24 10 49q19 -5 49.5 -15.5 t75 -28t73 -37.5t25.5 -36q-30 -124 -47 -229.5t-22.5 -196t3 -159.5t31 -120t61 -78t91.5 -31t124.5 17.5t159.5 69.5l19 -45q-104 -62 -197.5 -92t-167.5 -29t-135.5 28t-104.5 78.5t-72 124t-39.5 161.5t-5.5 193.5t28 219.5q-46 -17 -76 -17q-8 -70 -36 -170.5t-74 -211 t-100 -204t-121 -151t-130 -49.5q-194 22 -231 270q-71 -97 -154 -163t-163 -93.5t-153 -14t-126 65.5t-79.5 157.5t-15.5 250.5q11 152 62 410q-75 15 -132.5 51.5t-90 84.5t-48.5 99t-16 103zM66.5 1280.5q-6.5 -50.5 9.5 -100.5t71.5 -95.5t145.5 -72.5l16 -4 q55 321 -27 417q-44 53 -111 19q-6 -4 -13 -8q-34 -23 -59.5 -64t-32 -91.5z" />
<glyph unicode="Yr" horiz-adv-x="1998" d="M3 1229q-6 73 14 135.5t63 101.5q39 36 96.5 58.5t115.5 26.5t109.5 -4.5t85 -34.5t35.5 -64q3 -53 -8 -127t-34 -188.5t-31 -161.5q114 -33 153 -43q-9 -19 -20 -34t-23 -23.5t-24 -15t-25 -8t-23.5 -2.5t-21 0.5t-17.5 3t-14 3.5l-6 2q-31 -115 -48.5 -269t-4.5 -288.5 t65 -151.5q67 -21 127 51.5t102 204t76 289t54.5 315.5t31 272.5t11.5 170.5q41 -9 63.5 -14.5t56 -13.5t51 -14t36.5 -13t26.5 -13.5t7.5 -13.5q-17 -335 -68.5 -708.5t-125.5 -702.5q74 23 135 67.5t102 97.5t73 124.5t50 137.5t30 147.5t17 144t7 137.5q-55 30 -86.5 92 t-29.5 153.5t48 190.5l180 -102q-71 -198 -35 -269q19 -39 58 -17q46 25 69 101q8 24 11 50q18 -5 50.5 -15.5t76 -27.5t72 -37.5t24.5 -36.5q-29 -124 -46 -229.5t-22.5 -196t3.5 -159.5t31.5 -120t61 -78t91.5 -31t124.5 17.5t159.5 69.5l19 -45q-119 -70 -223.5 -100 t-184.5 -19t-142.5 53.5t-101.5 116.5t-58 170t-15.5 214t28.5 249q-45 -20 -94 -17q-8 -104 -25 -202t-54.5 -213t-90 -207t-138.5 -169.5t-194 -113.5l-4 -18q-76 -280 -226 -369q-100 -59 -196 -16q-73 33 -101 105q-35 93 31 178q77 99 267 145q19 76 48 245t40 259 q-10 -63 -39 -135.5t-71 -138t-101 -106.5t-119 -36q-76 7 -130 48t-81.5 101.5t-40 140.5t-10.5 158.5t10.5 162t19.5 145.5t21 114.5t11 63.5q-90 64 -140 145t-56 154zM68 1311.5q-7 -66.5 32 -139t121 -117.5q0 -2 12 60.5t24 127.5t13 68q22 102 0 140.5t-67 28.5 t-88 -59q-40 -43 -47 -109.5zM402.5 -360.5q1.5 -21.5 13.5 -34.5q10 -13 26.5 -15t38.5 11t45.5 40t49 78.5t47.5 120.5q-60 -19 -105 -45.5t-69 -53.5t-36 -53.5t-10.5 -48z" />
<glyph unicode="tt" horiz-adv-x="1132" d="M0 1217q61 -37 188 -80q25 85 80 243q53 -17 93 -36.5t62 -36.5t35 -34t16 -29t1 -21q-1 -6 -41 -150q111 -20 219 -31q58 201 107 338q53 -16 93 -35.5t62 -36.5t35 -34t16 -28.5t1 -20.5q-10 -40 -28.5 -103.5t-25.5 -91.5q121 8 248 53l10 -65q-55 -24 -124.5 -37.5 t-111.5 -14.5l-42 -1q-50 -196 -70 -326q-30 -181 -17 -307t64 -192t153.5 -60.5t252.5 86.5l20 -45q-127 -74 -237.5 -101.5t-193 -12t-144.5 68.5q-238 -113 -388 -60t-213 229.5t-32 438.5q23 178 82 391q-57 18 -99 37t-55 29l-14 10zM312 402.5q0 -101.5 21.5 -175.5 t66.5 -110t115 -38.5t167 38.5q-72 89 -97.5 235.5t-2.5 331.5q14 133 55 295q-94 11 -219 35q-62 -220 -86 -377q-20 -133 -20 -234.5z" />
<glyph unicode="az" horiz-adv-x="1708" d="M2.5 352.5q-6.5 93.5 11 192.5t50.5 188.5t91 163t132 111.5q80 44 161.5 35.5t133.5 -76.5l8 -11q4 17 22 84q90 -29 141.5 -51t68.5 -37.5t14 -29.5q-103 -433 -53 -642q27 -113 90 -118q64 -5 131 100q103 161 137 458q3 30 6 62q-96 56 -122 179t46 251l180 -104 q-76 -199 -4 -247q44 -30 119 8q64 33 88 82q6 14 8 26q34 -9 102 -59.5t44 -69.5l-136 -212q-58 -93 -53 -97q143 -137 210 -286t57 -335q-11 -99 -54 -186.5t-101 -144.5t-127 -85t-132 -16q-75 14 -114 89q-45 86 -10 179q46 122 207 180q47 17 101 27q-1 55 -16.5 107 t-39.5 91t-52.5 72.5t-56.5 57t-51.5 40.5t-37.5 26t-14 10q15 51 112 214t121 230q-122 -83 -231 -45q-10 -117 -31.5 -231.5t-67.5 -238.5t-106 -185q-82 -81 -164 -69.5t-147.5 76t-100.5 156.5q-61 -133 -156.5 -208t-215.5 -62q-60 6 -104.5 55t-66 125.5t-28 170z M254 339.5q10 -94.5 51 -114.5q89 -44 158 87q63 119 78 301q14 171 -29 238q-26 40 -68 23q-66 -26 -115.5 -124.5t-67 -207t-7.5 -203zM1218 -308.5q1 -23.5 7 -43.5q17 -42 58 -44q58 -2 105 83q41 73 60 198q-59 -16 -105 -40.5t-70.5 -49.5t-40 -52.5t-14.5 -51z" />
<glyph unicode="bz" horiz-adv-x="1550" d="M2 527.5q-1 64.5 2.5 122.5t11.5 114q28 188 90 421t119 376q53 -16 93.5 -35.5t62 -36.5t34.5 -34.5t16 -29t1 -20.5q-13 -51 -58 -212t-67 -253q59 78 123 111q81 38 154 13t133 -99q66 -87 82 -213q42 -3 81.5 14.5t67.5 46.5q-73 68 -85.5 176.5t52.5 222.5l179 -104 q-76 -197 -5 -246q44 -31 120 6q64 32 89 82q7 14 9 27q33 -9 100 -59.5t43 -69.5l-141 -223q-51 -82 -47 -86q143 -137 210.5 -287t55.5 -334q-11 -99 -53.5 -186.5t-100.5 -144.5t-127 -85t-131 -16q-75 14 -115 89q-45 86 -9 179q46 122 206 180q47 17 102 27 q-2 55 -17.5 107t-39.5 91t-52.5 72.5t-56.5 57t-51 40.5t-37 26t-14 10q14 51 111.5 214t120.5 230q-69 -49 -140.5 -56t-122.5 23q-88 -92 -196 -82q5 -145 -44.5 -298t-134 -260.5t-175.5 -125.5q-74 -17 -133 -8.5t-105.5 30t-81 62t-59 87.5t-39.5 106t-22.5 117.5 t-8.5 123zM260 255q26 -76 92 -75q36 1 78 62t73.5 154.5t50.5 193t10.5 189t-48.5 130.5q-55 58 -127 -46q-73 -106 -117 -292q-49 -207 -12 -316zM1061.5 -301.5q-0.5 -22.5 3.5 -42.5q13 -44 52 -51q55 -10 103 63q49 76 72 217q-58 -16 -103 -39t-69.5 -47t-41 -51 t-17 -49.5z" />
<glyph unicode="cz" horiz-adv-x="1462" d="M1 429q-1 113 29 221t95 205.5t156 154.5q86 53 187 54.5t181 -44.5l-121 -197q-120 27 -213 -95q-81 -108 -103 -268q-21 -165 40 -264q51 -82 149 -83q98 0 180 43t135.5 111t93.5 159t60 179t29 179q-95 57 -120 178t48 250l179 -104q-76 -197 -5 -246q44 -31 120 6 q64 32 89 82q7 14 9 27q34 -9 101.5 -59.5t41.5 -69.5l-141 -223q-51 -82 -47 -86q144 -137 211 -286t55 -335q-11 -99 -53.5 -186.5t-100.5 -144.5t-127 -85t-131 -16q-75 14 -115 89q-45 86 -9 179q46 122 206 180q47 17 102 27q-2 55 -17.5 107t-39.5 91t-52.5 72.5 t-56.5 57t-51 40.5t-37 26t-14 10q14 52 112 215t122 229q-125 -83 -236 -45q-11 -117 -36.5 -223t-76 -211.5t-120 -180t-175.5 -116.5t-235 -31q-96 8 -164.5 70t-100.5 153t-33 204zM977.5 -289q-7.5 -31 0.5 -55.5t26 -38.5q16 -13 36 -13.5t44 15t46 46.5t42 88t32 132 q-71 -20 -122 -50.5t-74 -61.5t-30.5 -62z" />
<glyph unicode="dz" horiz-adv-x="1787" d="M2 352.5q-7 93.5 11 192.5t50.5 188.5t90.5 163t131 111.5q80 44 162.5 35.5t134.5 -76.5l6 -9q72 334 170 592q53 -17 93 -36.5t62 -36.5t35 -34t16 -29t1 -21q-12 -44 -54 -196.5t-69 -264t-45 -215.5q-4 -24 -8 -52t-8.5 -72.5t-7 -87.5t-1.5 -92t6 -91.5t17 -81.5 t30.5 -65.5t47.5 -39.5t67 -8q63 9 113.5 58.5t82 116.5t54.5 157t34 163.5t17 151.5q-104 52 -134.5 178t44.5 260l180 -104q-76 -199 -4 -247q44 -30 119 8q64 33 88 82q6 14 8 26q34 -9 102 -59.5t44 -69.5l-136 -212q-58 -93 -53 -97q143 -137 209.5 -286t56.5 -335 q-15 -131 -82 -238t-156.5 -158.5t-174.5 -35.5q-75 14 -114 89q-45 86 -10 179q46 122 207 180q47 17 101 27q-1 55 -16.5 107t-39.5 91t-52.5 72.5t-56.5 57t-51.5 40.5t-37.5 26t-14 10q15 51 112 214t121 230q-112 -76 -217 -49q-4 -51 -6.5 -85t-10 -96t-16.5 -106.5 t-25 -104.5t-34.5 -103t-47 -89t-62 -74.5t-78.5 -48t-97 -20.5q-121 -3 -204.5 61t-127.5 185q-61 -136 -157 -213t-217 -64q-60 6 -104.5 55t-66 125.5t-28.5 170zM254 339.5q10 -94.5 51 -114.5q88 -44 159 86q64 118 80 298q16 172 -28 241q-27 42 -72 24 q-66 -26 -115.5 -124.5t-67 -207t-7.5 -203zM1294.5 -325q6.5 -50 48.5 -66q13 -8 30 -4.5t34 12.5t35 31.5t33.5 53t29.5 78t23 105.5q-123 -35 -181.5 -97.5t-52 -112.5z" />
<glyph unicode="ez" horiz-adv-x="1441" d="M4 419q-19 204 62 376q77 165 221 231q136 64 243 30q89 -29 108 -115q29 -127 -114 -308q-109 -137 -305 -283q14 -190 119 -243q90 -46 208 27q129 81 219 261q87 175 107 393q-92 58 -114.5 177.5t49.5 246.5l178 -104q-76 -197 -5 -246q44 -31 120 6q64 32 89 82 q7 14 9 27q33 -9 100 -59.5t43 -69.5l-141 -223q-51 -82 -47 -86q143 -137 210.5 -287t55.5 -334q-11 -99 -53 -186.5t-100 -144.5t-127 -85t-131 -16q-75 14 -115 89q-45 86 -9 179q46 122 206 180q47 17 102 27q-2 55 -17.5 107t-39.5 91t-52.5 72.5t-56.5 57t-51 40.5 t-37 26t-14 10q14 51 111 214t120 230q-123 -85 -240 -43q-9 -94 -28 -183t-55.5 -185.5t-85.5 -171.5t-124.5 -133.5t-166.5 -80.5q-199 -48 -326 92q-106 116 -125 315zM223 436q59 55 108 105t82.5 90t58 74.5t37.5 59.5t18.5 45t3.5 32t-11 18q-12 5 -31.5 2.5 t-45 -20.5t-52.5 -41.5t-54.5 -62.5t-50.5 -82.5t-40 -101t-23 -118.5zM955 -342q7 -24 24 -39q16 -13 36.5 -15t45 13t47.5 45.5t43.5 88t32.5 134.5q-70 -20 -120.5 -50t-74 -60.5t-32.5 -61.5t-2 -55z" />
<glyph unicode="fz" horiz-adv-x="1591" d="M14 -391q-37 95 27 184q76 104 270 152q49 190 80 516h-1h-1h-1h-1h-1l-1 -1h-1h-2q-102 -8 -124 -1q-24 8 -39 46q-4 11 -13 39q-7 20 -11 31q81 -43 202 -47q2 21 4.5 79.5t5.5 114.5t11 131.5t19 139t32 126.5t48.5 105t69.5 64.5t93 14.5q92 -15 129 -100.5t22 -201 t-61.5 -240t-112.5 -224.5q103 22 174 45q3 -43 -10 -47q-107 -39 -190 -58q-32 -290 -72 -483q102 33 189.5 129t143.5 218t90 242t44 222q-95 58 -118.5 178.5t48.5 247.5l181 -103q-77 -197 -7 -247q44 -32 120 6q64 32 89 83q7 14 9 27q37 -13 102.5 -62t40.5 -69 l-137 -215q-55 -89 -51 -94q144 -138 211 -286t55 -334q-11 -99 -53.5 -186.5t-100.5 -145t-127 -85.5t-131 -16q-75 15 -115 90q-45 86 -9 180q47 122 208 181q46 17 100 27q-1 55 -16.5 106.5t-39.5 90t-52.5 72.5t-56.5 57.5t-51.5 40t-37.5 26t-14 10.5q11 42 59 124 t101.5 173t73.5 147q-128 -86 -238 -45q-20 -223 -96.5 -412t-189.5 -310t-244 -158q-75 -294 -226 -387q-99 -60 -195 -17q-75 34 -104 109zM67 -343q1 -21 11 -34q21 -16 52.5 -13.5t77 68.5t79.5 179q-59 -19 -103.5 -45.5t-68.5 -53t-36.5 -53.5t-11.5 -48zM639 567 q75 125 109 279t29.5 249.5t-27.5 88.5q-15 -4 -28.5 -34.5t-24 -81.5t-19 -106.5t-15.5 -122t-11 -114.5t-8 -98.5t-5 -59.5zM1102.5 -306q2.5 -24 15.5 -42q26 -39 71 -26q67 20 111 144q21 59 33 136q-65 -19 -113 -46t-73 -55.5t-36 -57.5t-8.5 -53z" />
<glyph unicode="gz" horiz-adv-x="1589" d="M2.5 360.5q-6.5 93.5 11 192.5t50.5 188.5t91 163t132 111.5q53 28 105 35t101 -10t85 -60v66q55 -11 94.5 -20.5t76 -20t55 -21t17.5 -20.5q-14 -186 -16 -209q54 -14 104.5 3.5t83.5 55.5q-77 66 -91.5 177.5t50.5 228.5l181 -105q-76 -197 -6 -246q44 -31 119 6 q63 32 88 82q7 14 9 27q34 -9 102 -59.5t44 -69.5l-142 -223q-51 -82 -47 -86q143 -137 210 -286t57 -335q-11 -99 -54 -186.5t-101 -144.5t-126.5 -85t-130.5 -16q-75 14 -115 89q-46 86 -11 179q46 122 206 180q47 17 102 27q-1 55 -16.5 107t-39.5 91t-52.5 72.5 t-56.5 57t-51.5 40.5t-37.5 26t-14 10q14 50 112 213t122 231q-135 -92 -252 -37q-111 -119 -250 -80q-42 -485 -113 -798q-74 -296 -226 -389q-99 -60 -196 -17q-74 34 -103 110q-36 95 30 183q76 102 268 150q20 74 43 221q-129 -170 -301 -150q-60 6 -105 55t-67 125.5 t-28.5 170zM217.5 -341q1.5 -20 7.5 -36q21 -34 63 -15q72 32 130 187q11 27 20 58q-57 -18 -101.5 -43.5t-68 -51t-38 -52.5t-13 -47zM254 347.5q10 -94.5 51 -114.5q88 -43 160 86q65 116 83 295q17 172 -26 243q-29 46 -78 26q-66 -26 -115.5 -125t-67 -207.5t-7.5 -203z M1102.5 -336.5q7.5 -24.5 25.5 -38.5q17 -13 37.5 -13.5t44.5 15t46 46.5t41.5 88t31.5 133q-71 -20 -121.5 -50.5t-73.5 -61.5t-31 -62.5t-0.5 -56z" />
<glyph unicode="hz" horiz-adv-x="1636" d="M2.5 414q5.5 194 45.5 412t91 403.5t105 320.5q52 -17 92.5 -36.5t63 -37t35.5 -34.5t16 -29t0 -20q-65 -156 -154.5 -558t-103.5 -585q26 76 57.5 159.5t76 191t85 190.5t81.5 141t68 59q39 0 104 -26t62 -41q-167 -699 53 -799q36 -11 66 -12.5t56 22.5t46.5 50 t38 71.5t30.5 86.5t24 95.5t18 97.5t12.5 93t8.5 82.5t5 64.5q-49 25 -83.5 72t-48.5 105t-3 127t49 132l181 -104q-76 -199 -4 -247q44 -30 119 8q64 33 88 82q6 14 8 26q34 -9 101.5 -59.5t43.5 -69.5l-141 -223q-51 -82 -47 -86q143 -138 209.5 -287t56.5 -334 q-11 -99 -54 -186.5t-101 -144.5t-126.5 -85t-130.5 -16q-75 14 -115 88q-46 85 -11 179q45 121 203 180q48 17 105 28q-1 55 -16.5 107t-39.5 91t-52.5 72.5t-56.5 57t-51.5 40.5t-37.5 26t-14 10q15 51 112.5 214t121.5 230q-111 -76 -222 -49q-5 -68 -10 -124.5 t-17 -134.5t-27 -139.5t-40 -126t-55.5 -107.5t-74.5 -71.5t-97 -29.5q-93 -3 -163 35t-105.5 99t-61 134.5t-28 142t-7 122t1.5 74.5v9q-16 -27 -32 -58t-33.5 -74.5t-30 -75.5t-33.5 -94t-32 -95.5t-37.5 -114t-38.5 -117.5q-9 -12 -35 -14t-54 5.5t-52.5 24t-30.5 38.5 q-38 152 -32.5 346zM1159 -260q-29 -61 0 -106q17 -25 45 -29q49 -7 98.5 61t73.5 219q-170 -48 -217 -145z" />
<glyph unicode="iz" horiz-adv-x="1249" d="M6 613q14 188 78 399q89 -29 140.5 -51.5t68.5 -38t14 -29.5q-183 -764 88 -813q41 -1 76.5 17.5t61.5 55.5t48 81t37.5 103.5t27 113t19.5 119.5t12.5 111.5t8.5 100.5q-62 37 -97 105.5t-31 156t54 168.5l181 -104q-76 -199 -4 -247q44 -30 119 8q64 33 88 82 q6 13 8 26q34 -9 101.5 -59.5t43.5 -69.5l-135 -212q-58 -93 -53 -97q142 -138 209 -286.5t57 -334.5q-11 -99 -54 -186.5t-101.5 -144.5t-127.5 -85t-131 -16q-75 14 -115 89q-45 86 -9 179q46 122 206 180q47 17 102 27q-1 55 -16.5 107t-39.5 91t-52.5 72.5t-56.5 57 t-51.5 40.5t-37.5 26t-14 10q14 52 112 215t122 229q-122 -83 -234 -45q-1 -9 -2 -27q-17 -270 -51 -404q-81 -325 -309 -333q-131 -5 -218.5 73t-122 215t-20.5 325zM166 1199.5q-3 46.5 5.5 89.5t18.5 78t20 56l9 21q53 -16 93.5 -35.5t62 -36.5t34.5 -34.5t16 -29 t1 -20.5q-12 -53 -48.5 -172t-39.5 -131q-61 16 -100.5 50.5t-54 76t-17.5 88zM761.5 -294q-6.5 -32 3 -56t28.5 -37q12 -7 25.5 -9t29.5 3.5t31.5 18t31.5 35t30.5 53t26.5 74.5t21 97q-73 -21 -124.5 -52t-74 -63t-29 -64z" />
<glyph unicode="jz" horiz-adv-x="1445" d="M13 -411q-37 91 25 177q76 103 271 152q54 209 85.5 539.5t33.5 537.5q244 -50 244 -82q-8 -95 -13 -155q54 -16 106 0.5t87 54.5q-79 66 -94.5 177.5t51.5 230.5l180 -105q-76 -199 -4 -247q44 -30 119 8q64 33 88 82q6 14 8 26q34 -9 101.5 -59.5t41.5 -69.5l-141 -223 q-51 -82 -47 -86q144 -137 211 -286t57 -335q-11 -99 -54 -186.5t-101 -144.5t-127 -85t-131 -16q-75 14 -115 89q-45 86 -9 179q46 122 206 180q47 17 102 27q-1 55 -16.5 107t-39.5 91t-52.5 72.5t-56.5 57t-51.5 40.5t-37.5 26t-14 10q14 52 111.5 215t121.5 229 q-133 -91 -250 -39q-47 -50 -113 -74t-141 1q-1 -13 -7 -75.5t-7.5 -82.5t-7.5 -79.5t-9 -86t-9.5 -81.5t-11.5 -86.5t-12.5 -79.5t-14.5 -83t-16 -75.5t-19 -75.5q-75 -295 -227 -391q-100 -64 -198 -22q-74 31 -103 102zM80 -382q7 -10 18 -15q16 -7 38.5 2t48.5 34.5 t54.5 80t51.5 130.5q-154 -49 -204 -140q-31 -56 -7 -92zM471 1310q3 44 8 80t11 58l6 22q54 -9 96.5 -22.5t66.5 -27t39 -28t19.5 -26t3.5 -20.5q-5 -54 -23.5 -171.5t-21.5 -140.5q-62 8 -105.5 36t-63.5 67t-29.5 84t-6.5 89zM955 -309q1 -24 12 -43q23 -42 66 -35 q59 9 103 105q33 69 50 176q-62 -18 -109 -43.5t-72.5 -52t-38 -55t-11.5 -52.5z" />
<glyph unicode="kz" horiz-adv-x="1576" d="M2.5 338.5q-1.5 158.5 20.5 321.5t59 333t78.5 310t83.5 247q53 -16 94 -35.5t62 -36.5t36 -34t15.5 -28.5t-0.5 -20.5q-65 -156 -154.5 -559t-103.5 -586q34 99 76.5 209.5t97.5 238t107.5 210t86.5 83.5q30 1 60 -0.5t36 -1.5q-5 -6 -15 -17.5t-37 -47t-52 -72.5 t-55.5 -89t-51.5 -101q-12 -138 39.5 -282t143.5 -216q135 -104 251 134q80 165 123 411q7 41 11 73q-96 58 -121 180t47 250l180 -104q-76 -199 -4 -247q44 -30 119 8q64 33 88 82q6 14 8 26q34 -9 102 -59.5t44 -69.5l-136 -212q-58 -93 -53 -97q143 -137 209.5 -286.5 t56.5 -334.5q-15 -131 -82 -238t-156.5 -158.5t-174.5 -35.5q-75 14 -114 89q-45 86 -10 179q46 122 207 180q47 17 101 27q-1 55 -16.5 107t-39.5 91t-52.5 72.5t-56.5 57t-51.5 40.5t-37.5 26t-14 10q15 51 112 214t121 230q-122 -83 -233 -45q-4 -45 -10 -93t-19.5 -123 t-31.5 -141.5t-47.5 -138t-65 -123t-86 -86t-109.5 -36.5q-262 -12 -377 290q-48 -131 -102 -299q-3 -10 -20.5 -13.5t-41 0.5t-47 12.5t-42 24t-23.5 32.5q-31 110 -32.5 268.5zM1087.5 -328.5q3.5 -24.5 16.5 -42.5q29 -37 74 -21q71 25 113 162q16 51 26 115 q-66 -18 -114 -45t-72.5 -56t-35.5 -58.5t-7.5 -54z" />
<glyph unicode="lz" horiz-adv-x="1277" d="M13 358q-24 156 3 361q27 187 92.5 436t122.5 393q53 -16 93.5 -35.5t62.5 -36.5t35 -34t16 -29t0 -20q-12 -46 -56 -206.5t-73 -280t-47 -222.5q-63 -361 13 -508q46 -89 128 -65q85 26 163 157q117 197 140 498l1 22q-92 60 -114.5 179t48.5 245l180 -102 q-76 -200 -4 -248q44 -30 119 8q64 33 88 83q6 13 8 26q37 -12 103.5 -61.5t42.5 -69.5l-133 -205q-61 -99 -56 -104q143 -137 209.5 -286t56.5 -335q-15 -131 -82 -238t-156.5 -158.5t-174.5 -35.5q-74 14 -114 89q-45 85 -10 179q45 122 204 181q48 17 104 28 q-1 55 -16.5 106.5t-39.5 90.5t-52.5 72.5t-56.5 57t-51.5 40.5t-37.5 26.5t-14 10.5q14 50 111 213t122 231q-126 -87 -241 -43q-6 -70 -19.5 -147.5t-36 -169t-56.5 -171.5t-76 -146t-101.5 -102.5t-126.5 -31.5q-130 10 -213.5 106t-107.5 252zM788.5 -316.5 q-0.5 -32.5 16.5 -54.5q31 -37 77 -19q74 30 115 179q13 45 21 98q-82 -23 -136.5 -60t-73.5 -74t-19.5 -69.5z" />
<glyph unicode="mz" horiz-adv-x="2086" d="M6.5 513q20.5 292 89.5 515q88 -27 140.5 -50t69.5 -38.5t13 -28.5q-35 -84 -77.5 -289.5t-55.5 -371.5q34 100 76.5 209.5t97.5 237.5t107 210.5t86 83.5q40 2 105.5 -24t62.5 -43q-85 -356 -70 -562q54 148 107.5 276t118.5 240t104 113q39 2 104 -24t62 -43 q-125 -519 -33 -711q35 -71 82.5 -85t110.5 36q64 56 115 180t74.5 234t31.5 202q-98 57 -124.5 179.5t46.5 252.5l180 -104q-76 -199 -4 -247q44 -30 119 8q64 33 88 82q6 14 8 26q34 -9 102 -59.5t44 -69.5l-142 -223q-51 -82 -47 -86q143 -137 209.5 -286.5t56.5 -334.5 q-11 -99 -53.5 -186.5t-100.5 -144.5t-126.5 -85t-130.5 -16q-75 14 -115 88q-46 85 -11 179q45 121 203 180q48 17 105 28q-1 55 -16.5 107t-39.5 91t-52.5 72.5t-56.5 57t-51.5 40.5t-37.5 26t-14 10q15 51 112 214t121 230q-116 -80 -229 -47q-11 -131 -51.5 -301.5 t-104.5 -286.5q-39 -70 -94.5 -110.5t-114.5 -47t-120 22.5t-111 92q-22 28 -39.5 62t-29 70t-20 72.5t-13 73.5t-7.5 68.5t-3.5 62.5t0 50.5t1 36.5t0.5 18q-34 -57 -62 -118t-42.5 -104t-38 -116.5t-39.5 -118.5q-27 -76 -39 -91q-29 -39 -82 18q-24 27 -43.5 61.5 t-32.5 71t-22.5 74.5t-14.5 76t-8 71.5t-3.5 65.5t-0.5 53t1 38.5t1 18.5q-23 -37 -44 -81.5t-48 -118.5t-41 -114.5t-52 -157.5t-52 -159q-6 -12 -31.5 -13.5t-54.5 6t-54.5 24.5t-31.5 39q-43 151 -22.5 443zM1598.5 -337q5.5 -24 21.5 -40q15 -16 36 -19.5t45.5 10.5 t48 44.5t44.5 89t33 137.5q-68 -19 -117.5 -48t-73.5 -59t-33.5 -60.5t-4 -54.5z" />
<glyph unicode="nz" horiz-adv-x="1613" d="M7.5 513q20.5 291 88.5 515q241 -75 223 -119q-34 -82 -77 -287.5t-56 -371.5q26 75 57.5 159.5t76.5 191.5t85.5 190t81.5 141t68 59q40 0 104.5 -25t61.5 -42q-163 -684 45 -793q79 -43 138 19.5t89.5 200.5t43.5 232.5t20 196.5q-64 35 -100.5 103.5t-33 157 t53.5 171.5l180 -104q-76 -199 -4 -247q44 -30 119 8q64 33 88 82q6 14 8 26q37 -12 103 -61.5t42 -69.5l-136 -211q-57 -92 -52 -96q143 -138 209.5 -287.5t56.5 -335.5q-11 -99 -53.5 -186t-100.5 -144t-127 -85t-132 -17q-74 14 -114 89q-45 85 -10 179q45 122 203 181 q48 17 105 28q-1 55 -16.5 107t-39.5 91t-52.5 72.5t-56.5 57t-51.5 40.5t-37.5 26t-14 10q15 51 112 214t121 230q-116 -81 -227 -47q-17 -246 -31 -335q-51 -332 -215 -390q-14 -5 -29 -8q-97 -20 -171 9.5t-112 91.5t-65.5 139.5t-31 153.5t-8.5 133.5t1 78.5v8 q-14 -23 -29 -53t-27 -56.5t-28.5 -70.5t-26.5 -71.5t-29.5 -85.5t-29 -87t-32.5 -101t-33 -104q-22 -14 -58 -14t-72 19.5t-44 48.5q-42 154 -21.5 445zM1125.5 -337q5.5 -24 21.5 -40q15 -16 36 -19.5t45.5 10.5t48 44.5t44.5 89t33 137.5q-69 -19 -118.5 -48t-73.5 -59 t-33 -60.5t-3.5 -54.5z" />
<glyph unicode="oz" horiz-adv-x="1480" d="M3 360.5q-4 73.5 2 150t29 151.5t57 141t86 120t116 87q87 48 180.5 43.5t155.5 -70.5q37 -37 63 -100q-198 79 -329 -66q-98 -108 -126 -296q-25 -166 19 -278q40 -103 121 -93q67 9 123 63.5t87.5 127t44.5 148.5t1 129l-35 7q-100 13 -117 80q-13 52 28 98 q43 49 101 37q11 -2 21 -6q86 -35 100 -154q80 18 150 106q-74 68 -87 177t52 225l178 -103q-76 -198 -5 -248q44 -31 120 7q64 31 89 81q7 14 9 27q34 -9 101.5 -59.5t41.5 -69.5l-141 -223q-51 -82 -47 -86q144 -138 211 -286t55 -334q-11 -99 -53 -186.5t-100 -145 t-127 -85.5t-131 -16q-75 15 -115 90q-45 86 -9 180q47 122 208 181q46 17 100 27q-2 55 -17.5 106.5t-39.5 90t-52.5 72t-56.5 56.5t-51 40t-37 26t-14 10q14 52 111 215t120 229q-134 -94 -258 -34q-89 -111 -201 -129q-5 -100 -45 -232q-36 -113 -95 -200t-150 -140.5 t-199 -48.5q-53 2 -97 31.5t-73 78.5t-49 113t-24 137.5zM991.5 -338q2.5 -23 9.5 -43q20 -42 63 -39q61 5 107 100q34 70 52 181q-62 -17 -109 -42t-71 -51t-39 -54.5t-12.5 -51.5z" />
<glyph unicode="pz" horiz-adv-x="1603" d="M2.5 -152q10.5 217 33.5 456.5t62.5 474t79.5 345.5q28 -2 61.5 -8.5t65 -15t57 -18t39.5 -19t11 -16.5q-14 -37 -25 -76q44 47 90 71q82 38 155.5 13.5t131.5 -99.5q68 -85 84 -211q44 -3 83.5 16t67.5 52q-72 68 -84 175.5t52 223.5l180 -104q-76 -199 -4 -247 q44 -30 119 8q64 33 88 82q6 14 8 26q37 -12 103 -61.5t42 -69.5l-141 -220q-51 -83 -47 -87q143 -138 209.5 -287.5t56.5 -335.5q-11 -99 -54 -186t-101 -144t-127 -85.5t-132 -16.5q-74 14 -114 89q-44 85 -10 179q45 122 204 181q48 17 105 28q-1 55 -16.5 107t-39.5 91 t-53 72.5t-57 57t-51.5 40.5t-37.5 26t-14 10q15 51 112.5 214t121.5 230q-136 -96 -262 -35q-92 -96 -203 -86q5 -124 -33 -259t-99.5 -237t-143.5 -156.5t-158 -27.5q-128 44 -185 180q-25 -158 -40.5 -323.5t-16.5 -258.5t6 -132q2 -6 -8 -8q-31 -5 -91 21q-66 29 -73 67 q-18 77 -7.5 294zM309 247q25 -75 90 -73q37 1 79 62t73.5 154t50.5 192.5t10.5 189t-47.5 131.5q-55 59 -128 -47q-73 -107 -117 -294q-48 -207 -11 -315zM1117 -342q7 -24 24 -39q16 -14 36.5 -16t44.5 13t46 46t42.5 88.5t32.5 134.5q-70 -20 -120 -50t-73.5 -60.5 t-31.5 -61.5t-1 -55z" />
<glyph unicode="qz" horiz-adv-x="1599" d="M1.5 384.5q-6.5 93.5 11 193t50 188.5t90.5 162.5t132 111.5q80 44 162.5 35t134.5 -78q32 -45 47 -88q10 35 49 142q53 -16 93.5 -35.5t62 -36.5t34.5 -34.5t16 -29t1 -20.5q-1 -6 -41 -150q56 -13 108 8.5t84 61.5q-96 58 -121 180t48 250l180 -104q-76 -199 -4 -247 q44 -30 119 8q64 33 88 82q6 14 8 26q34 -9 101.5 -59.5t43.5 -69.5l-136 -213q-57 -93 -52 -97q143 -139 209.5 -287.5t56.5 -334.5q-11 -98 -54 -185t-101 -144t-127 -85.5t-132 -17.5q-74 14 -114 89q-44 85 -10 179q45 122 204 181q48 17 105 28q-1 55 -16.5 107 t-39.5 90.5t-53 72.5t-57 57t-51.5 40t-37.5 26t-14 10q15 51 112.5 214.5t121.5 230.5q-107 -75 -211 -51q-45 -58 -116.5 -90.5t-154.5 -6.5q-85 -303 -114 -477q-26 -148 -28.5 -275t18 -224t71 -150t127.5 -49l10 -43q-105 -30 -185 -8.5t-135.5 79t-88.5 149t-45 201.5 t-4 236q-114 -114 -256 -100q-60 6 -104.5 55.5t-66.5 126t-28.5 170zM252 371.5q10 -94.5 51 -113.5q86 -42 157 85q66 117 85 296q18 171 -25 242q-29 46 -78 26q-66 -26 -115.5 -125t-67 -207.5t-7.5 -203zM1108.5 -290q1.5 -24 13.5 -42q26 -41 70 -30q64 14 108 127 q25 64 39 153q-64 -18 -111.5 -44.5t-72.5 -54.5t-36.5 -56.5t-10 -52.5z" />
<glyph unicode="rz" horiz-adv-x="1466" d="M1 1039q-1 45 11.5 99t38.5 109l178 -102q-70 -198 -34 -269q20 -39 60 -17q46 25 69 102q7 24 10 49q21 -6 50 -15.5t74.5 -27t73.5 -37.5t25 -37q-100 -418 -51 -645q29 -131 98 -148q67 -17 139 84q109 153 152 470l14 126q-99 55 -126.5 178.5t46.5 253.5l181 -104 q-76 -199 -4 -247q44 -30 119 8q64 33 88 82q6 14 8 26q34 -9 101.5 -59.5t43.5 -69.5l-135 -212q-58 -93 -53 -97q142 -138 209 -286.5t57 -334.5q-11 -99 -54 -186.5t-101.5 -144.5t-127.5 -85t-131 -16q-75 14 -114 89q-45 86 -10 179q46 122 207 180q47 17 101 27 q-1 55 -16.5 107t-39.5 91t-52.5 72.5t-56.5 57t-51.5 40.5t-37.5 26t-14 10q14 52 112 215.5t122 228.5q-119 -80 -228 -47q-7 -75 -20.5 -159.5t-42 -194.5t-65 -196t-93.5 -147.5t-123 -64.5q-110 -5 -190 55.5t-118.5 169.5t-45.5 258.5t29 321.5q-34 -15 -68.5 -16.5 t-65.5 9t-58 32.5t-47 52.5t-31 71t-12 85.5zM977.5 -341.5q6.5 -24.5 23.5 -39.5q16 -13 36.5 -15t45 13t47.5 45.5t43.5 88t32.5 134.5q-70 -19 -120 -48.5t-74 -60.5t-32.5 -62t-2 -55.5z" />
<glyph unicode="tz" horiz-adv-x="1400" d="M0 1065q47 -11 119 -23q56 210 106 340q52 -16 92.5 -35.5t62 -36.5t34.5 -34t16.5 -28.5t1.5 -20.5q-10 -40 -30 -110t-27 -97q131 -3 225 18l4 -90q-104 -24 -252 -10q-47 -181 -63 -297q-73 -467 110 -547q55 -23 106 -0.5t96 79.5t82.5 135t65.5 166t45.5 172.5 t22.5 154.5q-54 41 -82.5 106.5t-22 148t53.5 158.5l178 -102q-76 -198 -5 -247q44 -32 120 6q64 32 89 83q7 14 9 27q37 -13 102.5 -62t40.5 -69l-137 -215q-55 -89 -51 -94q144 -137 211 -286t55 -335q-11 -99 -53 -186.5t-100 -144.5t-127 -85t-131 -16q-75 14 -115 89 q-45 85 -10 179q45 121 204 180q49 18 105 29q-2 55 -17.5 106.5t-39.5 90.5t-52.5 72.5t-56.5 57t-51 40.5t-37 26.5t-14 10.5q11 42 58.5 124t101 173t73.5 147q-132 -92 -256 -39q-9 -111 -32.5 -220.5t-62 -217.5t-100.5 -190t-139 -115q-82 -34 -155.5 -31.5t-129.5 39 t-100.5 99t-68.5 148t-33 186.5t6 214q13 119 57 295l-100 27zM915 -340.5q7 -24.5 25 -38.5q17 -13 37.5 -14t44.5 14.5t46 46t42.5 88t32.5 133.5q-71 -20 -121.5 -50.5t-74 -61.5t-31.5 -62t-1 -55.5z" />
<glyph unicode="uz" horiz-adv-x="1693" d="M17 291q-49 294 42 690q9 38 19 76q89 -28 141.5 -51.5t69 -39t12.5 -28.5q-29 -107 -46.5 -218.5t-21.5 -202t1 -162t20 -108.5t37 -32q33 9 74.5 122.5t72.5 244t65.5 280.5t47.5 193q89 -29 140.5 -51.5t68.5 -38t14 -29.5q-156 -649 27 -782q38 -27 72 -32t60.5 13 t49.5 47t40.5 76t31.5 92.5t24.5 104.5t18 104t12.5 99.5t7.5 82.5t4.5 60q-92 60 -114 179t49 245l180 -105q-76 -199 -4 -247q44 -30 119 8q64 33 88 82q6 14 8 26q34 -9 101.5 -59.5t43.5 -69.5l-135 -212q-58 -93 -53 -97q143 -137 209.5 -286t56.5 -335 q-11 -99 -54 -186.5t-101 -144.5t-127 -85t-132 -16q-75 14 -114 89q-45 86 -9 179q46 122 208 180q46 17 100 27q-1 55 -16.5 107t-39.5 91t-52.5 72.5t-56.5 57t-51.5 40.5t-37.5 26t-14 10q15 51 112 214t121 230q-127 -85 -242 -43q-1 -14 -3 -44q-4 -60 -6.5 -93.5 t-9.5 -98t-14 -105t-20 -99t-28 -95.5t-37.5 -79t-49.5 -66t-63 -40t-78 -15q-166 2 -265 146.5t-87 400.5q-79 -407 -209 -540q-84 -87 -161 -26q-84 65 -117 267zM1206.5 -279q-7.5 -32 1 -56.5t27.5 -37.5q12 -8 25.5 -10.5t29.5 2.5t32.5 17t33 34.5t30.5 53.5 t26.5 75.5t21.5 98.5q-72 -20 -123 -51t-74 -62.5t-30.5 -63.5z" />
<glyph unicode="vz" horiz-adv-x="1378" d="M2.5 513q6.5 292 63.5 515q247 -75 229 -117q-30 -83 -62 -288.5t-38 -372.5q45 152 165 430t187 362q38 9 72 -4.5t30 -48.5q-14 -123 21 -181q27 -46 64 -10q12 12 24 33q-63 71 -70 173t53 208l181 -104q-76 -199 -4 -247q44 -30 119 8q64 33 88 82q6 14 8 26 q34 -9 101.5 -59.5t43.5 -69.5l-141 -223q-51 -82 -47 -86q143 -137 209.5 -286t56.5 -335q-11 -99 -54 -186.5t-101 -144.5t-126.5 -85t-130.5 -16q-75 14 -115 89q-46 86 -11 179q46 122 206 180q47 17 102 27q-1 55 -16.5 107t-39.5 91t-52.5 72.5t-56.5 57t-51.5 40.5 t-37.5 26t-14 10q15 51 112.5 214t121.5 230q-90 -56 -164 -55.5t-135 45.5q-32 -49 -66 -64t-60 -0.5t-48 43.5t-33.5 64.5t-12.5 66.5q-100 -148 -201 -403.5t-151 -491.5q-7 -13 -32.5 -14.5t-54.5 6t-55.5 25t-33.5 39.5q-49 151 -42.5 443zM889 -334q5 -24 20 -41 t36 -21t46 9.5t48.5 43.5t45 89t33.5 139q-67 -19 -116.5 -47t-73.5 -57.5t-34 -60t-5 -54.5z" />
<glyph unicode="wz" horiz-adv-x="1818" d="M3.5 513.5q-11.5 294.5 31.5 514.5q93 -27 148 -50t73.5 -38.5t15.5 -28.5q-26 -80 -45.5 -285t-15.5 -376q34 144 130.5 408t160.5 370q93 -27 148 -50t73.5 -38.5t15.5 -28.5q-26 -80 -45.5 -285t-15.5 -376q37 155 140 431.5t165 360.5q37 9 74 -4t33 -49 q-14 -121 20 -179q27 -45 63 -10q13 13 25 34q-63 70 -69.5 171t53.5 207l180 -102q-76 -200 -4 -248q44 -30 119 8q64 33 88 83q6 13 8 26q37 -12 103 -61.5t42 -69.5l-132 -205q-61 -99 -56 -104q143 -137 209.5 -286t56.5 -335q-11 -99 -54 -186.5t-101 -144.5t-127 -85 t-132 -16q-74 14 -114 89q-44 85 -9 179q45 122 204 181q48 17 104 28q-1 55 -16.5 106.5t-39.5 90.5t-53 72.5t-57 57t-51.5 40.5t-37.5 26.5t-14 10.5q14 50 111.5 213t122.5 231q-56 -39 -111.5 -51t-102 -1.5t-85.5 40.5q-32 -48 -65.5 -63.5t-59.5 -2t-47.5 41.5 t-33.5 63.5t-13 66.5q-90 -149 -174.5 -402t-120.5 -489q-7 -12 -32.5 -13.5t-54.5 6t-56 24.5t-35 39q-42 106 -60.5 298t-9.5 390q-71 -160 -130.5 -360.5t-88.5 -383.5q-6 -12 -31 -13.5t-54.5 6t-56.5 24.5t-36 39q-59 149 -70.5 443.5zM1329 -318q0 -33 19 -55 q31 -37 78 -16q75 33 116 192q10 39 17 84q-82 -23 -137 -60t-74 -74.5t-19 -70.5z" />
<glyph unicode="yz" horiz-adv-x="1517" d="M3 445q-15 296 77 645q88 -27 140.5 -50t69 -38.5t13.5 -28.5q-49 -177 -67.5 -362t-4.5 -296.5t52 -101.5q37 10 82.5 143.5t78.5 314t39 324.5q0 13 61 -4t121.5 -42.5t59.5 -35.5q0 -26 -10 -153q58 -19 113 -0.5t90 59.5q-75 66 -89 176t52 226l180 -105 q-76 -199 -4 -247q44 -30 119 8q64 33 88 82q6 14 8 26q34 -9 101.5 -59.5t41.5 -69.5l-141 -223q-51 -82 -47 -86q144 -137 211 -286t57 -335q-11 -99 -54 -186.5t-101.5 -144.5t-127.5 -85t-131 -16q-75 14 -115 89q-45 86 -9 179q47 122 207 180q47 17 102 27 q-1 55 -16.5 107t-39.5 91t-53 72.5t-57 57t-51.5 40.5t-37.5 26t-14 10q14 52 112 215t122 229q-137 -94 -258 -35q-47 -53 -115 -78t-147 3q-36 -388 -72 -581q-67 -366 -180 -513q-97 -125 -215 -120q-88 3 -144 73q-59 74 -37 164q29 117 184 188q54 26 122 43 q36 141 67 391q-83 -275 -192 -331q-81 -42 -146 52q-83 118 -95 372zM135 -356q6 -10 17 -15q17 -7 39.5 2t48.5 35t54 80.5t52 130.5q-154 -49 -204 -141q-30 -56 -7 -92zM1026.5 -318q2.5 -24 15.5 -42q28 -38 74 -23q70 24 113 158q17 53 28 119q-65 -18 -113 -45 t-73 -55.5t-36 -58t-8.5 -53.5z" />
<glyph unicode="Bz" horiz-adv-x="2050" d="M7 922q-15 96 4 185t67 170.5t120 144.5t170 104t210 51q178 16 306 -14.5t193.5 -102t77 -174.5t-41.5 -237.5t-165 -286.5q26 2 64.5 4t90 -8t99.5 -25.5t92 -47t68 -73.5v2q71 68 117 158q-91 60 -113 178t49 244l178 -104q-76 -197 -5 -246q44 -31 120 6q64 31 89 81 q7 14 9 27q34 -9 102 -59.5t42 -69.5l-142 -223q-51 -82 -47 -86q144 -138 211.5 -286.5t55.5 -333.5q-11 -99 -53.5 -186.5t-100.5 -144.5t-127 -85t-131 -16q-75 14 -115 89q-45 86 -9 179q46 122 206 180q47 17 102 27q-2 55 -17.5 107t-39.5 90.5t-52.5 72.5t-56.5 57 t-51 40t-37 26t-14 10q14 51 111 214.5t120 230.5q-112 -75 -211 -52q-65 -110 -166 -198q10 -90 -47 -207q-33 -68 -89 -128t-123 -104t-143 -70.5t-150.5 -33t-144.5 15.5t-125 69t-92 133t-46 202q-127 63 -218.5 146.5t-138.5 172.5t-62 185zM103.5 863.5 q5.5 -76.5 40.5 -145.5t108 -130t176 -101q12 109 16 131q26 152 93.5 358.5t126.5 330.5q52 -14 92 -30t62 -30.5t35 -28.5t16 -24t1 -18l-17 -50q-17 -49 -29 -86.5t-33 -106t-37 -130.5t-33 -134t-29 -143.5t-18 -134.5q267 -47 520 94q-69 120 -369 78q-36 18 -39 62.5 t21 72.5q244 337 226 507.5t-298 168.5q-119 0 -224 -29.5t-180.5 -79t-129.5 -115.5t-78.5 -138t-19 -148.5zM666 352q-3 -171 48 -246t179 -32q123 40 219 145.5t96 200.5q-106 -56 -260 -76t-282 8zM1561.5 -352q4.5 -24 19.5 -41t36 -21t46.5 9.5t49 43.5t45 89 t34.5 139q-68 -19 -117.5 -47.5t-73.5 -57.5t-34 -59.5t-5.5 -54.5z" />
<glyph unicode="Cz" horiz-adv-x="1796" d="M2 573q-6 266 110 512q122 255 332 385q148 90 299 84q168 -6 263 -119q78 -93 70 -209q-9 -120 -108 -191q-146 -104 -413 -40l-10 2q254 31 373 160q78 86 67 176q-9 76 -76 107q-33 15 -75 14q-171 -3 -314 -195q-130 -175 -186 -429q-56 -262 0 -454 q57 -197 218 -239q77 -19 173 0q104 21 188 85.5t139.5 158t90.5 196t55 218.5q-76 68 -90 178t51 227l180 -104q-76 -199 -4 -247q44 -30 119 8q64 33 88 82q6 14 8 26q37 -13 103 -62t41 -69l-137 -215q-56 -90 -52 -95q144 -138 211.5 -286.5t57.5 -333.5 q-11 -99 -54 -186.5t-101.5 -144.5t-127.5 -85t-131 -16q-75 14 -115 89q-45 85 -10 179q45 121 204 180q49 18 105 29q-1 55 -16.5 106.5t-39.5 90t-52.5 72.5t-56.5 57.5t-51.5 40t-37.5 26t-14 10.5q14 52 111.5 215.5t121.5 229.5q-133 -93 -256 -37 q-33 -148 -97 -278.5t-155.5 -235.5t-216 -172t-266.5 -80q-248 -23 -389 159q-122 159 -127 420zM1308 -307.5q-7 -31.5 2.5 -55.5t28.5 -36q12 -8 26 -9.5t30 3.5t32 17.5t32 35t30 53t26 75t21 97.5q-73 -21 -124.5 -52.5t-74 -64t-29.5 -64z" />
<glyph unicode="Dz" horiz-adv-x="2168" d="M3.5 923.5q-10.5 96.5 11.5 186t71 172t118 144.5t159.5 102.5t189.5 48.5q138 11 257.5 -13t209 -75t160.5 -125t114.5 -162.5t68.5 -188.5t26 -202t-18 -203t-58 -192h2q224 99 295 346q-63 36 -98.5 104t-31.5 156t54 170l178 -105q-76 -197 -5 -246q44 -31 120 6 q64 32 89 82q7 14 9 27q34 -9 101.5 -59.5t41.5 -69.5l-141 -223q-51 -82 -47 -86q144 -138 211 -286t55 -334q-11 -99 -53 -186.5t-100 -145t-127 -85.5t-131 -16q-75 14 -115 89q-45 85 -10 179q46 122 206 180q48 18 103 28q-2 55 -17.5 107t-39.5 90.5t-52.5 72.5 t-56.5 57t-51 40t-37 26t-14 10q14 52 111.5 215.5t121.5 228.5q-110 -74 -211 -51q-80 -264 -381 -366q-69 -141 -180 -236.5t-258 -126.5q-109 -21 -191 0t-138 81t-86.5 143t-37.5 186q-126 62 -214 146t-130.5 173.5t-53 186zM92.5 1000q-20.5 -97 5.5 -190.5 t104.5 -181t200.5 -143.5q12 103 17 133q26 155 92.5 361t124.5 328q53 -14 93.5 -30.5t62.5 -30.5t35 -28t16 -23.5t0 -16.5q-156 -486 -193 -783q9 -3 24.5 -6.5t67 -14t99.5 -15t122.5 -8t135.5 6.5q35 100 49 215t6 231.5t-46.5 221.5t-101.5 184.5t-166.5 123 t-234.5 34.5q-144 -9 -256 -62.5t-174.5 -131t-83 -174.5zM643 330q-2 -58 3.5 -104.5t20.5 -84.5t41.5 -57.5t66 -24.5t93.5 15q133 45 217 250q-98 -13 -216.5 -13.5t-225.5 19.5zM1684 -309q-8 -31 0 -55.5t26 -38.5q17 -12 37.5 -12.5t44 15t45.5 46.5t42 87.5t32 131.5 q-71 -20 -122 -50.5t-74 -61.5t-31 -62z" />
<glyph unicode="Ez" horiz-adv-x="1636" d="M2 448q4 98 40.5 188.5t109.5 171t172 128.5q-65 57 -99.5 123.5t-38 130t16 125.5t59.5 113t97.5 89.5t123.5 58.5t143.5 16.5t153.5 -33.5q44 -17 80 -54.5t50 -81.5t6.5 -85.5t-54 -73t-127.5 -39.5q43 60 63.5 114.5t16 98.5t-44.5 70.5t-113 27.5q-62 0 -114 -21.5 t-84 -60.5t-49.5 -89.5t-8.5 -111.5t37.5 -123.5t90 -127.5t147.5 -121q-82 -6 -161.5 -55.5t-138 -122.5t-93 -164t-37 -178t40 -166.5t129.5 -126.5q39 -21 88.5 -22.5t102.5 14.5t108 50t106 81t96 111t78 135.5t52.5 158t19.5 176.5q-93 58 -116 177.5t48 246.5 l181 -104q-76 -199 -4 -247q44 -30 119 8q64 33 88 82q6 14 8 26q34 -9 101.5 -60t43.5 -70l-135 -212q-58 -93 -53 -97q143 -137 209.5 -286t56.5 -334q-11 -99 -54 -186.5t-101 -144.5t-127 -85t-132 -16q-75 14 -114 89q-45 86 -10 179q46 122 207 180q47 17 101 27 q-1 55 -16.5 107t-39.5 90.5t-52.5 72.5t-56.5 57t-51.5 40t-37.5 26t-14 10q15 51 112.5 214.5t121.5 230.5q-109 -75 -209 -52q-4 -48 -15 -102.5t-32 -118t-49.5 -125t-69 -121.5t-89.5 -110t-113 -88.5t-135.5 -59t-162 -19.5t-188.5 28q-98 26 -165 91.5t-95.5 149.5 t-24.5 182zM1147 -348q4 -24 18 -41q31 -36 78 -16q74 32 115 188q11 40 18 86q-67 -19 -115.5 -47t-73 -57t-34.5 -59t-6 -54z" />
<glyph unicode="Gz" horiz-adv-x="1884" d="M3 662.5q6 123.5 39 250.5t91 236q72 133 163 221t182.5 122.5t176.5 35t162 -30.5q155 -65 197 -187q38 -106 -24 -206q-63 -101 -189.5 -134.5t-274.5 17.5q157 6 277 117q92 87 112 186q19 99 -51 143q-25 15 -59 21q-62 10 -130.5 -19.5t-125 -83t-101.5 -116 t-69 -121.5q-46 -107 -74.5 -251.5t-31.5 -289.5t40.5 -264.5t132.5 -161.5q60 -22 108 -19.5t85.5 44.5t65.5 93t47.5 125.5t32.5 141.5t20.5 141.5t10.5 126t3 93.5q63 -14 95 -22t72.5 -19.5t58 -21t16.5 -19.5q-19 -403 -92 -786q128 128 226 347.5t105 413.5 q-84 63 -102.5 178.5t49.5 237.5l180 -104q-76 -199 -4 -247q44 -30 119 8q64 33 88 82q6 14 8 26q34 -9 102 -59.5t44 -69.5l-141 -222q-52 -84 -48 -88q144 -138 211.5 -286.5t55.5 -333.5q-11 -99 -54 -186.5t-101 -144.5t-126.5 -85t-130.5 -16q-75 14 -115 89 q-46 86 -10 179q46 122 207 180q47 17 102 27q-2 55 -17.5 107t-39.5 90.5t-53 72.5t-57 57t-51.5 40t-37.5 26t-14 10q14 50 111.5 213.5t121.5 231.5q-111 -76 -223 -49q-8 -140 -74.5 -304t-160.5 -296.5t-189 -208.5q-1 -7 -4 -21.5t-4 -21.5q-76 -298 -230 -392 q-100 -62 -197 -20q-74 32 -103 104q-36 92 29 177q76 101 268 149q39 146 61 336q-156 -273 -362 -254q-105 9 -187 68t-130 149.5t-71 207t-17 240zM479 -383q11 -16 31 -18q40 -4 90 56.5t90 192.5q-153 -48 -203 -140q-31 -55 -8 -91zM1392.5 -336.5 q7.5 -50.5 49.5 -66.5q22 -7 46.5 3t50.5 39t49 90t36 146q-124 -35 -181.5 -98t-50 -113.5z" />
<glyph unicode="Hz" horiz-adv-x="1910" d="M4.5 1191q-9.5 67 3 123t41.5 103q45 74 139 107.5t192.5 11t151.5 -97.5q37 -52 54.5 -117.5t16 -153t-10.5 -164.5t-29 -198q109 -46 242 -78q20 144 52.5 322t58.5 306t26 130q86 -26 146.5 -61t82.5 -61t19 -40q-92 -345 -139 -649q233 -60 284 94q-89 61 -110 178.5 t49 243.5l180 -105q-75 -196 -5 -246q43 -31 118 6q64 31 89 81q7 14 9 28q37 -12 103 -61.5t42 -69.5l-137 -215q-55 -89 -51 -94q144 -138 211 -286t55 -334q-15 -131 -82 -238.5t-156 -159t-173 -35.5q-75 15 -115 90q-46 86 -10 180q47 122 209 181q46 17 100 27 q-2 55 -17.5 106.5t-39.5 90t-53 72.5t-57 57.5t-51 40t-37 26t-13 10.5q14 51 111 214t120 230q-127 -88 -244 -43q-42 -78 -126 -123t-216 -32q-17 -126 -14 -226q1 -101 19.5 -165t46.5 -92t74.5 -30t90 11t107.5 41q3 1 4 -39q-141 -77 -254.5 -91t-190 33.5t-114.5 159 t-29 279.5q3 73 15 162q-29 5 -111 28.5t-141 45.5q-11 -49 -38 -172t-59.5 -274t-40.5 -187q-10 -54 -102.5 -70.5t-181.5 4.5q61 189 132 447.5t87 343.5q-107 57 -181 126t-108.5 135t-44 133zM60 1260q0 -39 17 -85.5t50 -93.5t91.5 -98.5t137.5 -99.5q17 100 21 184.5 t-4.5 143.5t-25.5 104.5t-40.5 71.5t-50 39t-53.5 12t-53 -13q-26 -13 -46.5 -36.5t-32 -56.5t-11.5 -72zM1423 -321q-6 -32 5 -56t32 -35q17 -6 37 -6.5t43 19t43.5 49.5t39 85.5t30.5 127.5q-75 -21 -127 -53.5t-74.5 -65.5t-28.5 -65z" />
<glyph unicode="Iz" horiz-adv-x="1472" d="M0 989q107 -18 188 -24q45 176 84.5 289.5t98.5 209.5q100 118 212 90q85 -21 138 -115q62 -109 37 -236q-32 -161 -195 -256q-57 -34 -129 -56q-78 -342 -78 -524q-3 -221 80 -281q59 -44 153 84t170 307.5t109 317.5q-72 69 -83 176.5t53 220.5l178 -105 q-76 -197 -5 -246q44 -31 120 6q64 32 89 82q7 14 9 27q34 -9 101.5 -59.5t41.5 -69.5l-141 -223q-51 -82 -47 -86q144 -137 211 -286.5t55 -333.5q-11 -99 -53.5 -186.5t-100.5 -145t-127 -85.5t-131 -16q-75 14 -115 89q-44 85 -9 179q46 122 206 180q47 18 103 28 q-2 55 -17.5 107t-39.5 90.5t-52.5 72.5t-57 57t-51.5 40t-37 26t-14 10q14 51 111.5 214t120.5 230q-132 -90 -250 -38q-26 -72 -62.5 -158.5t-91 -191t-110 -189.5t-120.5 -145.5t-122 -67.5q-168 -19 -252 103t-65 372q4 55 18 149t25 160t10 66q-58 -3 -123 0 q-5 0 -21.5 69.5t-21.5 71.5zM455 985q83 22 143 69t86.5 99.5t35 105t-2.5 90.5t-35 50q-12 4 -25 4.5t-29.5 -12.5t-32.5 -32t-34.5 -54t-36 -79t-35.5 -106t-34 -135zM986 -316q-7 -32 3 -56t29 -36q12 -7 26 -8.5t30 4t31.5 18t31.5 35t30 53t26 74.5t21 97 q-73 -20 -125 -52t-74 -64.5t-29 -64.5z" />
<glyph unicode="Jz" horiz-adv-x="1677" d="M14 -209q27 110 97 218.5t151.5 193.5t151.5 129q21 66 46.5 196.5t39 215t16.5 108.5q-168 102 -211 274q-35 142 27 270q56 114 162 152q115 42 247 -26q28 -14 46.5 -45.5t27 -68.5t10 -88.5t-1.5 -95.5t-10.5 -101.5t-14 -94t-15.5 -85t-11 -62.5q11 -13 63.5 -28 t109.5 -18.5t95 17.5q-52 71 -54 165.5t54 194.5l181 -104q-76 -199 -4 -247q44 -30 119 8q64 33 88 82q6 14 8 26q34 -9 101.5 -59.5t43.5 -69.5l-141 -223q-51 -82 -47 -86q143 -137 210.5 -287t55.5 -334q-11 -99 -54 -186.5t-101 -144.5t-126.5 -85t-130.5 -16 q-75 14 -115 88q-46 85 -11 179q45 121 203 180q48 17 105 28q-1 55 -16.5 107t-39.5 91t-52.5 72.5t-56.5 57t-51.5 40.5t-37.5 26t-14 10q14 50 112 213t122 231q-59 -42 -119 -53t-109 4.5t-88 52.5q-51 -53 -139.5 -63.5t-179.5 20.5q-17 -96 -27 -151.5t-27.5 -149.5 t-31 -154t-33.5 -145.5t-38 -143.5t-41.5 -129t-48 -120.5t-52.5 -99.5t-60 -85t-67 -59q-46 -31 -94 -40.5t-88 1t-72 35t-51 59.5q-38 93 -11 203zM62 -249.5q-12 -57.5 14 -100.5q25 -45 78 -14q69 41 126 178q10 24 19 51q56 176 84 303q-42 -30 -92 -76.5t-99.5 -105 t-83.5 -118.5t-46 -117.5zM361.5 1329q-9.5 -62 0.5 -128.5t54.5 -129.5t115.5 -98q14 62 24 139.5t13 165t-18 145t-68 54.5q-45 -4 -78.5 -45t-43 -103zM1189.5 -339.5q6.5 -24.5 22.5 -39.5q15 -15 36 -17.5t45 12t47 45t44 88.5t33 136q-69 -19 -119 -48.5t-73.5 -60 t-32.5 -61t-2.5 -55z" />
<glyph unicode="Mz" horiz-adv-x="2549" d="M3 258q-12 132 95 213q89 67 246 84q73 343 127 877q1 14 45 32.5t97 29t98.5 4t48.5 -35.5q18 -147 73 -401t91 -346q10 -24 120 114.5t232 332.5t158 302q20 29 79 5t121 -74t58 -70q-6 -27 -15.5 -74t-33.5 -179t-41.5 -250t-30.5 -256.5t-10 -229.5q11 -271 93 -265 q64 4 150 166q96 181 147 403q16 71 23 130q-90 61 -111 178.5t50 243.5l180 -105q-76 -199 -4 -247q44 -30 119 8q64 33 88 82q6 13 8 26q37 -13 102.5 -62t40.5 -69l-137 -215q-55 -89 -51 -94q144 -137 211 -285.5t57 -334.5q-15 -131 -82.5 -238.5t-157 -159 t-173.5 -35.5q-75 15 -115 90q-45 86 -9 180q47 122 208 181q46 17 100 27q-1 55 -16.5 106.5t-39.5 90t-52.5 72.5t-56.5 57.5t-51.5 40t-37.5 26t-14 10.5q14 52 111.5 215t121.5 229q-114 -79 -225 -49q-8 -54 -24.5 -121t-43.5 -147t-61.5 -154t-78.5 -142t-94.5 -111 t-110 -61t-124.5 9q-99 37 -149.5 153t-46.5 304q5 182 51 485q-12 -12 -115 -146q-185 -242 -277 -292q-78 -42 -106 35q-84 228 -166 573q-74 -474 -98 -596q69 -22 88.5 -51.5t11.5 -103.5q-57 32 -121 55q-45 -190 -88 -268q-85 -164 -213 -171q-98 -5 -180 80 q-80 82 -89 189zM52 207q22 -60 68 -74q4 -1 9 -2q31 -5 60.5 23t49.5 66t40 95.5t28 88t17 67.5q-196 -6 -260 -116q-41 -71 -12 -148zM2059.5 -349q2.5 -24 15.5 -42q29 -39 74 -23q71 24 114 160q16 53 27 119q-65 -19 -113 -46.5t-73 -56t-36 -58t-8.5 -53.5z" />
<glyph unicode="Pz" horiz-adv-x="2136" d="M0 174q1 4 9.5 12.5t16.5 15t9 5.5q28 -26 46.5 -42t42.5 -33t40 -23t36 -9.5t36 5t34.5 23.5t35 42.5t35.5 66t38 89.5q37 98 80 305q-64 33 -77 79.5t21 83t95 46.5q20 120 38.5 251.5t26.5 202.5l8 72q1 14 29.5 30t97 27.5t158.5 6.5l-17.5 -105t-43 -252t-52.5 -289 q21 -8 49.5 -29t47.5 -38l18 -17q92 33 158 104.5t96.5 157.5t24.5 180.5t-48 175t-132.5 141t-217.5 77.5q-92 13 -176 -16.5t-142.5 -90.5t-93.5 -140.5t-33.5 -175t42.5 -185.5q-68 18 -106.5 57t-43.5 64q-17 82 3 161t68.5 143.5t121 117.5t157.5 87.5t180.5 48.5 t187 5t181 -47t158.5 -103q67 -62 100.5 -146.5t29.5 -175t-36.5 -179.5t-100 -167.5t-159.5 -131.5q-75 -41 -145 -58q77 -87 158 -125t150.5 -27t131.5 55.5t106.5 119t69.5 166.5q-82 65 -98.5 178t51.5 233l178 -102q-76 -198 -5 -248q44 -31 120 7q64 31 89 81 q7 14 9 27q33 -9 100.5 -59.5t43.5 -69.5l-141 -222q-52 -84 -48 -88q144 -138 211.5 -286.5t55.5 -333.5q-11 -99 -53.5 -186.5t-100.5 -144.5t-127 -85t-131 -16q-75 14 -115 89q-45 85 -10 179q45 121 204 180q49 18 105 29q-2 55 -17.5 106.5t-39.5 90t-52.5 72.5 t-56.5 57.5t-51 40t-37 26t-14 10.5q13 50 110 213.5t121 231.5q-138 -98 -260 -35q-34 -105 -98 -191t-147.5 -135t-174 -59t-186.5 40t-176 159q-70 -4 -105 -2q-29 -136 -59 -238q-45 -152 -113 -238t-151.5 -102t-179 27.5t-199.5 144.5zM419 737.5q-11 -37.5 48 -63.5 q15 73 22 121q-59 -20 -70 -57.5zM719 664q5 1 16.5 2t16.5 2q-1 2 -4 5t-4.5 5.5t-2.5 5.5q-2 3 -7 9t-7 9q-5 -28 -8 -38zM1647 -330.5q2 -24.5 14 -42.5q24 -39 69 -29q62 14 106 121q27 65 42 158q-64 -17 -111.5 -43.5t-72.5 -54t-37 -56.5t-10 -53.5z" />
<glyph unicode="Sz" horiz-adv-x="1558" d="M2 266q-14 116 81 194q128 106 402 93q-23 33 -82 93t-81 87q-52 65 -89.5 133.5t-61 146.5t-22.5 155t25 159q41 127 150 190t249 60q142 -4 219 -109q63 -86 50 -190q-12 -104 -96 -153q-114 -66 -300 8q198 52 274 165q54 79 24 147q-27 62 -108 70q-13 1 -26 1 q-82 -3 -136.5 -40t-76 -92.5t-22.5 -122t16.5 -131.5t48.5 -118t78 -110t85.5 -97t80 -100t66.5 -123l8 -21q78 14 140.5 68.5t92.5 138.5q-60 37 -93.5 105t-29 155t53.5 168l180 -104q-76 -199 -4 -247q44 -30 119 8q64 33 88 82q6 14 8 26q34 -9 101.5 -60t41.5 -70 l-134 -212q-57 -93 -52 -97q142 -137 209 -286.5t57 -333.5q-11 -99 -54 -186.5t-101.5 -144.5t-127.5 -85t-131 -16q-75 14 -115 89q-45 86 -9 179q47 122 207 180q47 17 102 27q-1 55 -16.5 107t-39.5 90.5t-53 72.5t-57 57t-51.5 40t-37.5 26t-14 10q14 52 112 215.5 t122 229.5q-113 -77 -221 -50q-41 -92 -113.5 -153t-167.5 -68q31 -105 15 -198t-65 -163t-134.5 -113t-194.5 -50q-167 -11 -283 85q-94 78 -106 183zM107 205q14 -87 84 -130q71 -43 165 -12q80 27 131.5 102.5t56.5 166t-36 182.5q-239 -3 -345 -125q-72 -83 -56 -184z M1069 -315q-6 -32 5 -56t32 -35q17 -6 37 -6.5t43 19t43.5 50t39 86t29.5 126.5q-75 -21 -127 -53.5t-74 -65.5t-28 -65z" />
<glyph unicode="Tz" horiz-adv-x="1675" d="M3.5 1143q-7.5 76 15.5 145t82.5 128t148.5 89q76 25 162 28t168.5 -10.5t170 -33.5t180.5 -38.5t186.5 -28t201.5 1.5t213 46q-79 -153 -152 -184q-34 -15 -73 -22.5t-86.5 -5.5t-81.5 4.5t-91 14t-79.5 17t-81.5 19.5q-164 -656 -160 -944q5 -281 76 -270q62 9 152 218 q91 212 136 434q3 14 5 27q-87 63 -106.5 179t50.5 239l179 -104q-76 -197 -5 -246q44 -31 120 6q64 32 89 82q7 14 9 27q36 -12 101.5 -62t41.5 -70l-138 -215q-55 -89 -51 -94q144 -138 211.5 -286.5t55.5 -333.5q-11 -99 -53.5 -186t-100.5 -144t-127 -85.5t-131 -16.5 q-75 14 -115 89q-45 85 -10 179q45 121 204 180q49 18 105 29q-2 55 -17.5 106.5t-39.5 90t-52.5 72.5t-56.5 57.5t-51 40t-37 26t-14 10.5q14 51 111.5 214.5t120.5 230.5q-117 -82 -228 -48q-16 -76 -43.5 -164t-65 -179.5t-83.5 -171t-95 -138t-104.5 -82.5t-107.5 -2 q-93 39 -141.5 160.5t-39.5 306.5q8 170 85.5 476t123.5 409q-25 8 -75 25.5t-75.5 26t-69 21t-69.5 17t-62.5 8.5t-62 0t-53.5 -14t-51 -27q-42 -31 -65 -72.5t-23.5 -85.5t15 -89.5t53 -86t88 -72t122.5 -51t154 -20.5q12 0 -6 -28q-33 -51 -96 -76q-54 -22 -111 -11 q-87 15 -154 63.5t-102.5 113.5t-43 141zM1190.5 -307q-7.5 -31 0.5 -55.5t26 -38.5q16 -12 36 -12.5t44 15t46 46.5t42 88t32 133q-71 -21 -122 -51.5t-74 -62t-30.5 -62.5z" />
<glyph unicode="Uz" horiz-adv-x="2111" d="M0 1223q0 137 103 234q90 84 206 91q128 7 206 -88q115 -143 56 -452q87 30 103 34q1 -5 6 -37.5t-30.5 -75t-104.5 -50.5q-73 -314 -76 -510q-2 -275 99 -296q72 -16 170 99q100 118 155 279q21 62 29 118q10 71 52.5 290t83 420.5t42.5 213.5q85 -27 144.5 -62.5 t80.5 -61.5t18 -40q-8 -26 -20.5 -70.5t-44.5 -171.5t-56.5 -241t-45 -250t-21.5 -227q-3 -195 64 -265q26 -29 83 28q87 88 154 279q59 167 80 363q-89 60 -110.5 178t49.5 244l180 -104q-76 -199 -4 -247q44 -30 119 8q64 33 88 82q6 14 8 26q36 -12 102.5 -62t42.5 -70 l-136 -211q-57 -92 -52 -96q143 -139 209.5 -287.5t56.5 -334.5q-11 -99 -54 -186t-101 -144t-127 -85.5t-132 -16.5q-74 14 -114 89q-44 85 -10 179q45 122 204 181q48 17 105 28q-1 55 -16.5 107t-39.5 90.5t-53 72.5t-57 57t-51.5 40t-37.5 26t-14 10q15 51 112.5 214.5 t121.5 230.5q-115 -79 -223 -50q-17 -99 -61 -225.5t-104 -247.5t-138 -199t-150 -69q-194 21 -234 270q-71 -97 -154 -162.5t-162.5 -93.5t-152 -14.5t-125 66t-79 158t-15.5 251.5q10 139 60 408q-143 30 -214 127t-73 211zM67 1293q-9 -52 4.5 -104.5t69.5 -100.5 t150 -76l18 -4q35 201 15 303t-61 131t-93 2q-36 -19 -65 -59t-38 -92zM1635 -277q-30 -61 0 -107q14 -21 36 -28q23 -6 47.5 5.5t49.5 41.5t47.5 90.5t35.5 143.5q-169 -48 -216 -146z" />
<glyph unicode="Yz" horiz-adv-x="1871" d="M3 1245.5q-6 73.5 14 137t63 102.5q39 36 96.5 58.5t115.5 26t109.5 -5.5t85 -35.5t35.5 -64.5q3 -53 -8 -127t-34 -187t-31 -161q114 -35 153 -43q-15 -33 -38.5 -53t-43.5 -26t-42.5 -4.5t-32.5 4t-17 5.5q-31 -116 -48.5 -269.5t-4.5 -287.5t65 -151q67 -21 127 51.5 t102 204t76 289t54.5 315t31 271.5t11.5 169q54 -11 93 -20.5t75.5 -20t55 -21t17.5 -20.5q-17 -334 -68.5 -707t-125.5 -704q71 22 129.5 63.5t99.5 92t72.5 117t50.5 130.5t32 140.5t18.5 139t8.5 134.5q-90 60 -112 179t49 245l178 -104q-76 -197 -5 -246q44 -31 120 6 q64 32 89 82q7 14 9 27q34 -9 102 -59.5t42 -69.5l-142 -223q-51 -82 -47 -86q144 -137 211 -286t55 -335q-11 -99 -53 -186.5t-100 -144.5t-127 -85t-131 -16q-75 14 -115 89q-45 86 -9 179q46 122 206 180q47 17 102 27q-2 55 -17.5 107t-39.5 91t-52.5 72.5t-56.5 57 t-51 40.5t-37 26t-14 10q14 51 111 214t120 230q-110 -75 -217 -49q-10 -103 -29 -198t-57.5 -203t-91 -193.5t-135.5 -157t-185 -106.5l-4 -19q-76 -281 -226 -370q-100 -59 -196 -17q-73 33 -101 106q-35 92 31 178q77 99 267 146q18 75 47.5 243.5t40.5 258.5 q-10 -63 -39 -134.5t-71 -137t-101 -106.5t-119 -36q-76 7 -130 48t-81.5 101.5t-40 140t-10.5 158.5t10.5 162t19.5 145t21 114t11 63q-90 64 -140 145t-56 154.5zM68 1330q-7 -67 32 -140t121 -117q0 -3 12 59t24 127.5t13 67.5q22 103 0 142t-67 29.5t-88 -58.5 q-40 -43 -47 -110zM402.5 -336.5q2.5 -20.5 9.5 -36.5q20 -17 51 -16t77.5 67t82.5 181q-58 -18 -103 -44t-68 -51.5t-37.5 -52.5t-12 -47.5zM1397 -260q-30 -60 0 -106q13 -20 35 -27q23 -6 47.5 5t50.5 40t48.5 89.5t35.5 143.5q-170 -47 -217 -145z" />
<glyph unicode=" "  horiz-adv-x="471" />
<glyph unicode="&#x09;" horiz-adv-x="471" />
<glyph unicode="&#xa0;" horiz-adv-x="471" />
<glyph unicode="!" horiz-adv-x="485" d="M8 96q-17 -46 1 -89t61 -56t85.5 10.5t59.5 69.5q17 47 -1.5 90t-61.5 57q-41 14 -84 -10.5t-60 -71.5zM100 334q46 176 95 566.5t51 522.5q106 -15 169.5 -33.5t63.5 -33.5q-9 -115 -132.5 -566.5t-153.5 -465.5q-12 -3 -30.5 -1t-40.5 7z" />
<glyph unicode="&#x22;" horiz-adv-x="194" d="M0 932q57 219 82 385l131 -27q-2 -4 -25.5 -66.5t-60 -150.5t-70.5 -155zM180 932q57 219 82 385l131 -27q-2 -4 -25 -66.5t-59.5 -150.5t-70.5 -155z" />
<glyph unicode="#" horiz-adv-x="1226" d="M0 330q172 -4 252 -4q17 57 51.5 169t52.5 169q-44 -1 -95 -2.5t-117 -4.5t-107 -4l-37 88q127 -4 377 -8q16 53 62 200.5t71 231.5l76 -59q-74 -195 -133 -373q37 -1 151.5 -3t179.5 -3q18 61 63.5 208t70.5 230l77 -59q-71 -182 -135 -379q45 -1 137 -2t138 -2l-33 -84 q-149 12 -266 18q-60 -197 -101 -340q177 -3 400 -6l-33 -84q-234 20 -385 25q-25 -93 -88 -344l-105 -21q11 37 52.5 167t62.5 200q-107 2 -330 -2q-29 -102 -90 -344l-102 -21q21 69 59.5 193t52.5 170q-28 -1 -92 -4t-100 -4zM328 324q55 -1 165 -3.5t166 -3.5l105 345 q-115 4 -334 4q-45 -140 -102 -342z" />
<glyph unicode="$" horiz-adv-x="866" d="M6 360q18 92 99 133q96 49 237 1q-136 -21 -199 -122q-50 -81 -28 -165q22 -79 97 -104q43 -15 97 -7q10 60 35 207.5t39 226.5q-135 108 -197 238t-10 258q35 84 122 129.5t200 50.5l30 189l82 -72q-18 -88 -26 -119q128 -15 185 -100q48 -70 20 -142q-29 -77 -125 -99 q-65 -16 -150 -1q-4 -23 -13.5 -69.5t-13.5 -69.5q18 -17 75.5 -67.5t91 -88.5t57.5 -86q52 -113 29.5 -204t-116.5 -151t-235 -69q-3 -22 -29 -225l-102 -29q21 112 45 254q-172 13 -254 123q-62 84 -43 180zM364 992q-2 -50 13.5 -101.5t46.5 -93.5l4 -4l14 88q-2 0 -6 1 t-6 1q2 1 6 2t6 2q7 40 22.5 127t22.5 133q-59 -20 -90 -62.5t-33 -92.5zM397 123q66 34 99.5 95t22 132t-69.5 129q-35 -226 -52 -356zM522 909q145 49 183 128q28 57 -16 96q-36 32 -105 30h-9q-24 -107 -53 -254z" />
<glyph unicode="%" horiz-adv-x="1005" d="M2 820q-4 79 20 159t90 139.5t152 69.5q53 6 80 -20q21 -20 -1 -34l-17 -6q-7 -1 -47 8.5t-68 0.5q-60 -19 -95 -89t-26 -159q9 -99 67 -165.5t130 -61.5q70 6 113 81t34 175q-7 58 -26 98q8 35 28.5 50.5t43.5 5.5t36 -44q2 -5 5.5 -12.5t16 -27t27.5 -35t39 -29.5 t50.5 -17t62.5 9t74 42q37 59 49 78q34 55 68 35q29 -17 30 -65q0 -46 -31 -82q-117 -134 -237.5 -258.5t-202 -202.5t-184.5 -187t-197 -223l-47 74q53 67 141.5 154.5t168.5 161.5t184 187.5t190 231.5q-105 -36 -201 27q-20 -117 -106 -198t-215 -73q-89 7 -142 65 t-57 137zM461 269q38 124 134 186q77 49 171 41q131 -10 183 -121q46 -98 10 -220q-37 -124 -135 -186q-79 -50 -177 -43q-128 10 -178 121q-44 99 -8 222zM537 197q9 -99 66 -165.5t128 -60.5q72 4 115.5 79t34.5 175q-11 98 -69 165t-128 61q-71 -6 -114 -80.5t-33 -173.5 z" />
<glyph unicode="&#x26;" horiz-adv-x="1318" d="M3.5 393.5q4.5 84.5 43.5 162.5t117.5 147.5t185.5 111.5q-60 49 -92 106.5t-35.5 112.5t15.5 108.5t56 97.5t90 77.5t114.5 51t133.5 14.5t142 -29q41 -15 74.5 -46.5t46.5 -69.5t6 -74.5t-50 -64t-118 -34.5q54 70 70.5 129.5t-17.5 99t-124 39.5q-126 1 -205 -70 q-77 -69 -58 -162q25 -121 206 -217q39 -21 85 -40q-101 -7 -208.5 -64t-181 -142.5t-90.5 -189t64 -204.5q128 -159 324 -161q149 -1 273 84q104 72 125 161q26 105 -85 173q-104 64 -311 79q-4 0 -5.5 8t-1.5 20t-1 15q71 4 148 23.5t151 50.5t138.5 75t113 94t71.5 109 t17.5 119t-52.5 125.5t-135 126.5q148 -8 234.5 -66t95.5 -142.5t-27.5 -174.5t-132.5 -171.5t-223 -125.5q94 -29 126 -131q35 -111 -22 -237q-66 -147 -220 -226q-226 -117 -560 -43q-106 23 -180 79.5t-105 128.5t-26.5 156.5z" />
<glyph unicode="'" horiz-adv-x="161" d="M0 932q57 219 82 385l131 -27q-2 -4 -25.5 -66.5t-60 -150.5t-70.5 -155z" />
<glyph unicode="(" horiz-adv-x="432" d="M5 577q11 128 48 233.5t91 203.5t113 172t122 137t110 100.5t84 59.5q2 1 6.5 -3t9 -7.5t5.5 -2.5q-10 -10 -27 -29t-66 -83t-93 -133t-96.5 -175.5t-88.5 -214.5t-57.5 -246t-15 -274t50 -295.5t127.5 -312.5q-13 -1 -22.5 0t-15 4.5t-8 6.5t-4.5 7t-2 5 q-111 152 -177 304.5t-85.5 283.5t-8.5 259z" />
<glyph unicode=")" horiz-adv-x="591" d="M0 -281q10 10 27 29t66 83t93 133t96.5 175.5t88.5 214.5t58 246.5t16 274.5t-50 295.5t-127 312.5q16 1 26.5 -1.5t13.5 -6t6 -8.5l3 -5q111 -152 177 -304.5t85.5 -284t8.5 -260t-48 -233.5t-91 -203.5t-113 -172.5t-122 -137t-110 -100.5t-84 -59.5q-2 -1 -10 6t-10 6 z" />
<glyph unicode="*" horiz-adv-x="641" d="M0 1366l59 98q69 -49 98.5 -69t79 -45t103.5 -41q14 42 20 84.5t6 86t-1 101.5l120 -16q-26 -107 -63 -269q16 -1 32.5 -1t30 0.5t30.5 2.5t28 3.5t30 5t28.5 5.5t31.5 7.5t31 8t35 9t36 9.5l17 -113q-190 -7 -316 -14q27 -40 83.5 -121.5t86.5 -126.5l-106 -53 q-32 82 -44.5 112t-41 77.5t-66.5 88.5q-18 -14 -35 -29t-29 -25t-28 -30t-22.5 -27.5t-24 -33.5t-21 -31t-24.5 -38.5t-25 -39.5l-94 70q195 195 234 235q-230 98 -279 119z" />
<glyph unicode="+" horiz-adv-x="1009" d="M0 588l43 88q184 -11 371 2q10 59 65 346l88 -25q-56 -176 -84 -315q68 6 205.5 22.5t171.5 20.5l10 -119q-73 -1 -207 -4t-194 -4q-23 -125 -47 -350l-98 -27q66 341 73 375q-123 -2 -397 -10z" />
<glyph unicode="," horiz-adv-x="247" d="M8 131q15 41 53.5 62.5t75.5 9.5q52 -16 57.5 -69t-20.5 -110t-57 -103.5t-47 -57.5q-7 -4 -7 7q-1 4 9 75q7 51 -6 55q-38 12 -55.5 51t-2.5 80z" />
<glyph unicode="-" d="M0 584l27 86q119 -9 210.5 1t243.5 40q7 2 10.5 2.5t8.5 1.5l10 2l22 -113q-291 -9 -532 -20z" />
<glyph unicode="." horiz-adv-x="253" d="M8 135q15 41 52.5 62t76.5 10q38 -12 55.5 -51t2.5 -80t-53 -62.5t-76 -9.5q-39 12 -56 50.5t-2 80.5z" />
<glyph unicode="/" horiz-adv-x="591" d="M0 0q338 697 729 1518l59 -93q-203 -367 -346.5 -669.5t-335.5 -753.5z" />
<glyph unicode="0" horiz-adv-x="1054" d="M8 532q26 202 143 350q136 172 337 186q36 2 73 -1q201 -17 297 -183q85 -146 60 -349q-24 -201 -143 -348q-139 -172 -346 -186q-38 -2 -77 1q-196 15 -289 180q-81 146 -55 350zM203 520q12 -126 50 -226.5t103.5 -159.5t145.5 -52q121 10 182 143t43 324 q-18 193 -103 318.5t-206 115.5q-81 -7 -134.5 -71t-73.5 -165.5t-7 -226.5z" />
<glyph unicode="1" horiz-adv-x="688" d="M0 745l283 371q5 6 63.5 -12.5t113.5 -46t50 -41.5q-36 -113 -97.5 -512t-72.5 -504q-45 12 -79.5 25t-53 24.5t-30 23t-15 19.5t-2.5 14q2 42 7.5 117.5t34 300.5t70.5 441l-194 -232z" />
<glyph unicode="2" horiz-adv-x="1054" d="M12 229q25 48 75 55q4 1 7 1q8 1 23 4.5t61 20.5t92.5 41.5t111.5 73t124 110.5q166 175 133 325q-20 95 -111 146q-84 48 -169 26q-88 -22 -113 -113q-27 -97 33 -247q-8 2 -20.5 6.5t-43 21t-53 36.5t-37.5 55t-8 75q18 102 102 169.5t190.5 80t208.5 -7.5t168 -93.5 t58 -178.5q-6 -78 -32 -143.5t-60 -108.5t-89 -86t-100 -68.5t-114 -64.5t-111 -66q39 -4 99 -10.5t176 -26t151 -37.5q71 -39 65 -45l-112 -180q-5 3 -14.5 7.5t-38.5 19t-58 28t-71 30.5t-80 31t-81 26.5t-79 18.5t-69.5 5.5t-55.5 -10.5q-118 -52 -156 -4q-25 31 -2 77z " />
<glyph unicode="3" horiz-adv-x="1099" d="M2 126q1 46 17 88.5t51.5 77.5t83.5 54q-21 -27 -28 -70.5t-0.5 -94t34 -99.5t70 -86.5t113 -56t157.5 -7.5q66 8 120 41t82 78t40.5 97t-4 101t-50.5 87.5t-101 59t-155 12.5q-24 -2 -29 42t2 89l7 45q222 48 287 184q46 96 0 196q-37 78 -108 108q-28 12 -56 13 q-64 2 -121.5 -41t-81.5 -117.5t12 -172.5q-124 25 -138 111q-13 75 58 156q76 87 187 111q3 0 6 1q93 16 178.5 7.5t142.5 -45t97 -84t42 -108.5t-23.5 -119.5t-98 -116t-181.5 -98.5q200 -52 277 -186q67 -117 19 -245q-49 -127 -188 -201q-153 -82 -366 -70 q-89 5 -159 29t-110 60t-63 80t-22 90z" />
<glyph unicode="4" horiz-adv-x="962" d="M0 469.5q2 31.5 16 48.5l605 649q11 11 117.5 -22.5t101.5 -57.5q-97 -389 -142 -669q49 -13 103 -35l-2 -34q-3 -12 -8 -11q-3 0 -105 8q-42 -264 -70 -403q-50 13 -88 28.5t-58 28.5t-31.5 26t-14 21.5t-0.5 15.5q31 107 72 287q-322 0 -410 -10q-28 -4 -49.5 16.5 t-30 51t-6.5 62zM121 483q67 -14 209 -23t174 -14q4 22 63.5 285.5t63.5 333.5z" />
<glyph unicode="5" horiz-adv-x="1146" d="M2 164.5q7 51.5 34.5 89.5t53 58.5t39.5 23.5q-9 -71 4.5 -145t45 -135t84.5 -99t118 -35q163 7 262 112q84 90 79 201q-5 120 -115 195q-152 103 -441 70l158 538q-77 73 -50 130q17 36 61 41q47 6 67 -31q6 -13 8 -29q28 -4 92 3.5t130.5 16.5t133.5 12t117.5 -13.5 t66.5 -55.5q22 -65 13 -114t-31 -77l-23 -28q-2 4 -7.5 11t-24 24.5t-41.5 30.5t-61.5 23t-82.5 9q-69 -3 -138 -8t-104 -9l-34 -3l-94 -299q7 1 18.5 3.5t48.5 6t73 4t85.5 -5t93 -17.5t89 -37.5t80 -61.5t60 -92.5t33.5 -127.5q9 -82 -17.5 -157t-78.5 -131t-123 -99.5 t-149 -66.5t-159 -26.5t-150.5 14t-125 61.5t-82.5 110q-23 64 -16 115.5z" />
<glyph unicode="6" horiz-adv-x="1099" d="M10 270q-20 147 6.5 290t88.5 256.5t147.5 202.5t185.5 142q76 40 155.5 52.5t142.5 -3.5t106 -57t46.5 -108.5t-34.5 -157.5q-9 36 -31 75.5t-57.5 80t-81.5 63.5t-105 26.5t-126 -30.5q-103 -50 -171.5 -137.5t-95.5 -186.5t-27.5 -208t24.5 -204.5t68 -173t97 -116.5 q67 -49 131.5 -32t114 69.5t79 123t27.5 128.5q-2 56 -23 110t-54.5 92t-75 63t-87.5 21.5t-89 -30.5t-81.5 -96t-62.5 -171q-3 104 25 186t75.5 129t108.5 72t122.5 21.5t118 -30.5t93.5 -75q46 -59 57.5 -136t-6.5 -153.5t-62.5 -151.5t-106 -132t-141.5 -92.5t-163 -36.5 q-131 -2 -224.5 85.5t-113.5 229.5z" />
<glyph unicode="7" horiz-adv-x="872" d="M4.5 1078.5q-5.5 16.5 0 39t18 48t35.5 52t51 48.5q105 -50 197 -83.5t155.5 -49.5t120 -20t88 -2t61.5 12t38.5 15.5t20.5 14.5l1.5 1.5t1.5 0.5q43 40 86 19q30 -15 29 -43q-2 -22 -25 -35q-87 -54 -161.5 -129.5t-125.5 -156t-82.5 -142.5t-54.5 -123q24 -2 76.5 -6 t94.5 -7.5t54 -3.5q1 -13 -22.5 -22t-69 -13t-76.5 -5.5t-78 -2.5q-57 -166 -99.5 -341t-35.5 -248q-38 6 -71 17.5t-53.5 24t-35 26t-20 24t-4.5 16.5q16 78 71 222.5t109 262.5q-179 13 -254 13q-2 38 281 45q49 104 147.5 252t118.5 164q-9 -5 -119.5 6t-248.5 35 t-199 51q-15 7 -20.5 23.5z" />
<glyph unicode="8" horiz-adv-x="892" d="M3.5 136q-11.5 72 16.5 148.5t101 155.5t182 140q-7 6 -17.5 18t-37 48t-46 72t-33 87.5t-7.5 97.5q13 102 92.5 173t214.5 83q76 6 146 -19.5t114.5 -73.5t58 -114t-23.5 -141q-25 -53 -78 -84t-93 -36l-40 -5q113 94 104 215q-7 91 -77 147q-74 61 -164 36 q-21 -6 -41 -17q-50 -27 -66.5 -61.5t-2.5 -71t46 -80.5t77.5 -90.5t92 -100t90 -109.5t72 -119.5t37.5 -129.5t-14 -139q-29 -94 -101 -159t-190 -79q-121 -15 -213 9.5t-140 75.5t-59.5 123zM118.5 212q0.5 -39 16.5 -75q48 -107 161 -133q98 -22 184.5 26.5t96.5 134.5 q9 90 -73 189q-55 66 -162 181q-34 -24 -64.5 -50.5t-60.5 -59t-51 -67.5t-34.5 -71t-13 -75z" />
<glyph unicode="9" horiz-adv-x="1077" d="M1.5 97.5q2.5 70.5 51.5 152.5q5 -36 22.5 -77.5t48.5 -85.5t75 -72t102 -38t129 17q108 39 185 118.5t114.5 175.5t49.5 204t-3 206t-50 179.5t-85 126.5q-62 56 -127.5 46t-120.5 -57t-91.5 -114t-39.5 -125q-3 -49 8.5 -98t33.5 -89.5t54 -70t68.5 -44.5t77.5 -8 t80.5 34.5t78.5 87.5t70 147q-8 -104 -45 -182.5t-89 -120.5t-115.5 -60t-123.5 -8t-113 42.5t-85 84.5q-39 64 -43 142t22 152t78 143.5t119 120t150.5 78t166.5 19.5q129 -12 213 -109t88 -241q5 -148 -36.5 -287t-115 -245.5t-168 -186t-198.5 -121.5 q-80 -32 -160.5 -36.5t-141.5 19t-99 67t-35.5 114z" />
<glyph unicode=":" horiz-adv-x="323" d="M8 475q15 41 53 62.5t76 9.5t54.5 -50t1.5 -81q-15 -41 -53.5 -62.5t-76.5 -9.5t-54 50.5t-1 80.5zM8 834q15 41 53 62t76 9t54.5 -51t1.5 -80t-53.5 -62.5t-76.5 -9.5t-54 50.5t-1 81.5z" />
<glyph unicode=";" horiz-adv-x="346" d="M8 834q15 41 53 62t76 9t54.5 -51t1.5 -80t-53.5 -62.5t-76.5 -9.5t-54 50.5t-1 81.5zM12 475q15 41 53 62.5t76 9.5q52 -16 57.5 -69t-21 -110t-57.5 -103.5t-48 -57.5q-7 -4 -7 7q-1 4 9 75q7 51 -6 55q-38 12 -54.5 51t-1.5 80z" />
<glyph unicode="&#x3c;" horiz-adv-x="649" d="M0 647q15 7 65 29t63.5 28l54 24t55.5 26t48 25t51.5 29t46.5 29.5t51.5 35t49.5 38.5v-110q-116 -69 -307 -189q262 -131 338 -168l14 -108q-82 54 -172 95.5t-144 60t-204 67.5z" />
<glyph unicode="=" horiz-adv-x="815" d="M0 451l33 88q100 4 193 10.5t212 17.5t209 17l29 -113q-516 -13 -676 -20zM61 664l31 86q125 6 321 23.5t275 23.5l27 -113q-359 -9 -654 -20z" />
<glyph unicode="&#x3e;" horiz-adv-x="634" d="M0 336l14 108q51 25 338 168q-191 120 -307 189v110q26 -21 49.5 -38.5t51.5 -35t46.5 -29.5t51.5 -29t48 -25t55.5 -26l54 -24t63.5 -28t65 -29l-10 -88q-150 -49 -204 -67.5t-144 -60t-172 -95.5z" />
<glyph unicode="?" horiz-adv-x="888" d="M19 1142q42 105 159 179q172 110 400 80q66 -9 121 -31.5t92 -55t61.5 -74t29 -89t-5.5 -97.5t-42 -102.5t-80 -102t-120.5 -97t-162.5 -86.5q-88 -38 -137 -90.5t-57.5 -101t1.5 -93.5t31.5 -73.5t40.5 -35.5q-111 -21 -181 39q-65 54 -52 139q18 112 162 203 q40 25 88 47q88 41 150.5 90.5t94.5 100.5t43.5 100.5t3.5 98.5q-27 158 -150 205q-98 38 -210 -7q-96 -40 -133 -114q-50 -97 39 -189q33 -34 84 -65q-189 -30 -258 55q-53 66 -12 167zM82 96q17 47 59.5 71t85.5 11q43 -14 61 -57t1 -90q-17 -46 -59.5 -69.5t-84.5 -10.5 q-43 14 -61.5 56.5t-1.5 88.5z" />
<glyph unicode="@" horiz-adv-x="1564" d="M3 369q-4 85 5 180q26 257 221.5 487t452.5 314q105 34 203 37.5t177.5 -20.5t148 -69.5t118 -107.5t84 -136.5t50 -153.5t11.5 -161.5t-27.5 -158.5t-70.5 -145.5t-114 -121.5q-76 -60 -152 -74.5t-142.5 25.5t-103.5 135q-46 -92 -116.5 -144.5t-159.5 -43.5 q-45 4 -78.5 38t-49.5 87t-21 118t8 133.5t37.5 130.5t68 113.5t98.5 77.5q58 31 119.5 25.5t99.5 -53.5l7 -7q4 18 16 58q67 -20 106 -35.5t51 -26t9 -20.5q-90 -357 -18 -489q40 -75 119 -49q37 12 75 46q87 79 123.5 187.5t24 217t-66.5 213t-136.5 181t-197.5 115 t-239 20.5q-124 -19 -233.5 -96.5t-184.5 -190t-117.5 -251t-41.5 -277.5q2 -135 47.5 -254t117.5 -200t166 -126t190 -43t193 61t171 173q-16 -139 -152 -232q-136 -92 -318 -94q-208 -3 -359 117q-203 162 -219 490zM626.5 445.5q7.5 -65.5 37.5 -78.5q72 -33 126 74 q48 96 52 227q4 121 -38 147q-15 10 -36 2q-49 -18 -85.5 -86.5t-50 -144t-6 -141z" />
<glyph unicode="A" horiz-adv-x="1462" d="M1 310q8 160 153 264q175 126 512 137q29 65 72.5 165.5t72.5 166.5t66.5 148.5t66.5 136.5t61 105t60.5 79t54.5 34q7 2 15 2q29 0 67 -24q48 -30 80 -72q28 -36 28 -59q0 -4 -1 -7q-96 -410 -125 -737q16 -5 33.5 -13.5t40.5 -29.5q24 -20 34 -45q6 -14 5 -33 q0 -14 -3 -32q-8 -40 -43 -86q-13 9 -75 49q0 -61 2.5 -106t11 -94.5t23 -81t40.5 -57t62 -32.5q16 -3 35 -3q24 0 54 5q52 9 118 39v-3q1 -4 1.5 -11.5t0.5 -14.5v-16v-13v-8q-91 -51 -169 -75q-75 -24 -133 -23h-4q-60 1 -108 22t-79.5 61t-54.5 94.5t-31 122t-10 143.5 v23q0 65 9 136q-81 37 -182 47q-36 -84 -59.5 -136.5t-61 -125.5t-67.5 -118.5t-72.5 -96t-83 -77.5t-92.5 -44q-44 -14 -90 -14h-17q-86 5 -152 92q-66 88 -66 198v18zM76 348q2 -30 16 -57q22 -41 64 -64q31 -17 71 -17q13 0 27 2q58 8 120.5 47t131.5 134.5t127 235.5 h-16q-93 0 -173 -11q-86 -12 -146 -33t-105.5 -49t-70.5 -59t-37 -65q-10 -28 -9 -53v-11zM795 711q25 0 66 -3.5t69 -7.5l28 -4q36 261 111 633q-211 -428 -274 -618z" />
<glyph unicode="B" horiz-adv-x="1482" d="M4 929q-3 27 -3 54q1 67 17 129q24 88 74.5 169t123 143t167 103t199.5 50q59 5 112 5q108 0 194 -20q128 -30 193.5 -102t76.5 -175q2 -18 2 -36q0 -90 -44 -201q-53 -134 -166 -286q18 3 44 3.5t59.5 -1.5t69 -9.5t72.5 -18.5t69.5 -29.5t59.5 -42t44 -56.5 q16 -34 22 -73q2 -12 2 -26q0 -29 -8 -65q-12 -52 -41 -110q-33 -68 -89 -128t-123 -104t-143 -70q-76 -28 -150 -34q-17 -1 -34 -1q-57 0 -111 17q-70 22 -125 69t-92 133t-46 202q-25 11 -39 20q-123 60 -209.5 141t-127 168t-50.5 182zM100 918q-1 -15 -1 -29 q1 -72 23 -140q28 -81 108 -151.5t202 -112.5q9 82 17 133q27 155 94 362t125 327q52 -14 92 -30t62 -30.5t34.5 -28.5t15.5 -24t0 -18q-1 -4 -33 -104t-58 -186.5t-56 -215.5t-43 -230q28 -1 53 -1q79 0 127 14q16 4 8 -17q-14 -39 -59 -85q-30 -30 -49 -32h-9 q-26 0 -81 13q-1 -18 -1 -34q-1 -53 7 -95q10 -55 36 -94.5t71 -47.5q13 -2 29 -2q36 0 83 13q63 21 123.5 63t103.5 92.5t69 106.5q21 45 21 84q0 8 -1 18q-6 48 -44 84t-123 48q-36 5 -79 4q-61 0 -138 -9q-24 12 -33.5 37t-5 51.5t18.5 46.5q165 224 211 375 q18 60 18 108q0 73 -42 119q-70 75 -252 74h-5q-136 0 -254 -39t-196 -103.5t-130.5 -145t-58.5 -168.5z" />
<glyph unicode="C" horiz-adv-x="1046" d="M147 1145q119 188 312 307q141 84 279 84h18q167 -6 262 -119q71 -83 71 -185q0 -12 -1 -24q-8 -120 -108 -192q-91 -65 -229 -65q-84 0 -184 24l-10 2q255 32 374 163q68 75 68 151q0 12 -2 24q-10 75 -77 105q-31 14 -69 14h-5q-170 -2 -312 -194q-131 -176 -187 -434 q-29 -135 -29 -252q0 -113 27 -210q56 -204 217 -248q42 -12 90 -12q176 0 427 160l29 -56q-303 -213 -556 -213q-52 0 -102 9q-207 38 -331 224q-118 179 -118 427q0 275 146 510z" />
<glyph unicode="D" horiz-adv-x="1456" d="M2 936v22q0 82 24 160q28 88 80 168t121 141t155.5 100t176.5 46q43 3 84 3q108 0 203 -22q132 -32 225.5 -96.5t163.5 -156t107 -197.5q36 -108 48 -224q5 -50 6 -98q0 -66 -10 -132q-16 -114 -58 -220t-106.5 -192.5t-157 -148t-202.5 -85.5q-55 -10 -103 -10t-89 10 q-82 21 -138 81t-86.5 143t-37.5 186q-31 12 -56 28q-118 61 -197.5 143t-114 169.5t-38.5 181.5zM123 714q50 -91 149 -167q63 -42 138 -66q13 115 16 133q26 153 93.5 359.5t125.5 329.5q52 -14 92 -30.5t62 -30.5t35 -28.5t16.5 -24.5t1.5 -18q-1 -2 -16.5 -47.5t-27 -82 t-31 -99t-35.5 -121t-32.5 -125.5t-29.5 -134.5t-21 -127.5q36 -3 67 -2q67 0 116 12q16 5 8 -17q-15 -39 -60 -83q-30 -29 -47 -31h-9q-27 0 -85 13q-1 -15 -1 -29q0 -42 5 -76q6 -46 21 -84t41.5 -57.5t65.5 -24.5q8 -1 16 -1q34 0 77 16q56 19 105 68.5t85 119.5 t60.5 156.5t34.5 179.5q6 55 6 110q0 38 -3 78q-7 96 -29.5 183.5t-67.5 163.5t-106 130.5t-151 82.5q-72 23 -154 23q-20 0 -42 -1q-116 -8 -218 -50t-172 -106t-110 -147q-39 -82 -40 -167q0 -88 51 -180z" />
<glyph unicode="E" horiz-adv-x="1071" d="M3 421q4 98 40.5 188.5t110 171t172.5 128.5q-65 57 -100 123q-34 66 -38 130q-1 10 0 20q0 54 16 106q20 62 60 113t97.5 89.5t123.5 58.5q56 17 121 17h22q78 -4 154 -34q44 -17 80 -54.5t50 -81.5q9 -29 9 -56q-1 -16 -3 -30q-8 -42 -54 -73t-127 -39q43 60 63 114 q17 45 17 83q-1 8 -1 16q-4 44 -44 70t-113 26q-62 0 -114 -21.5t-85 -59.5q-32 -40 -49 -90q-11 -34 -11 -72q0 -19 2 -39q8 -61 37 -123t90.5 -127t148.5 -121q-82 -6 -161.5 -55.5t-138 -123t-92.5 -164.5q-36 -91 -38 -179q0 -5 1 -9q-1 -81 39 -157q42 -80 130 -127 q46 -25 98 -26q8 -1 18 1q62 6 113.5 39.5t98 86.5t72.5 118t34 133q2 18 2 35q0 50 -18 98q19 1 45 -9.5t51.5 -33t46 -53t24.5 -71.5q1 -10 1 -20q0 -33 -10 -67q-13 -46 -59 -101t-122 -110q-65 -48 -165 -69q-84 -18 -164 -18q-16 0 -30 1q-92 4 -167 25 q-97 26 -164 91.5t-95 149.5q-25 74 -25 158v24z" />
<glyph unicode="F" horiz-adv-x="1105" d="M4 1144q-3 24 -3 47q0 51 14 99q21 70 79 128t146 87q76 26 162 29q16 1 32 0q68 0 136 -10q82 -13 171 -33t183 -38q92 -17 186 -27q43 -4 90 -5q54 0 112 6q108 11 212 46q-72 -152 -148 -187q-40 -17 -94 -23q-46 -5 -82 -5h-12q-40 1 -110.5 14t-95 19t-99.5 24 q0 -1 -8.5 -89.5t-23 -214t-30.5 -239.5q58 -2 147.5 -7t110.5 -5q3 -68 -270 -72q-33 -223 -66 -334q-59 -213 -161 -301q-68 -59 -150 -59q-40 0 -84 15q-132 44 -278 212q1 4 7.5 17t13 24t7.5 10q30 -29 49 -47t46 -39.5t45.5 -31.5t42.5 -17.5t42 -2.5t40 18t40 38.5 t37.5 65t38.5 92.5q41 115 84 346q-188 8 -211 8q-3 65 226 72q58 352 79 596q-185 63 -241 75q-61 14 -112 14q-85 0 -140 -40q-41 -31 -63 -73q-22 -41 -21 -83q0 -45 17 -91t55.5 -86.5t89.5 -72t123.5 -51t154.5 -20.5q12 0 -5 -28q-33 -51 -94 -76q-35 -15 -72 -15 q-19 0 -38 4q-87 15 -155.5 63.5t-105 113t-46.5 140.5z" />
<glyph unicode="G" horiz-adv-x="1140" d="M3 687q6 124 39 251t91 236q72 133 163 221t182.5 122.5t177 34.5t161.5 -32q155 -64 197 -185q14 -40 14 -80q0 -64 -37 -126q-61 -100 -186 -135q-51 -14 -105 -14q-83 0 -174 32q158 6 278 118q92 86 111 184q4 21 4 39q0 68 -55 103q-24 15 -59 21q-17 3 -34 3 q-47 0 -97 -22q-68 -29 -124.5 -82.5t-101 -115.5t-69.5 -121q-46 -109 -74.5 -253.5t-31.5 -289.5v-19q0 -135 41 -246q43 -119 132 -161q54 -20 98 -20h10q48 3 85.5 45.5t65.5 93.5t47.5 125.5t32.5 141.5t20.5 141t10.5 125t3 93q191 -43 225 -62q18 -10 17 -19 q-27 -506 -119 -914q-76 -298 -230 -392q-59 -36 -117 -36q-41 0 -81 18q-74 32 -102 105q-12 33 -12 64q0 58 41 113q76 100 268 147q39 147 61 335q-148 -255 -338 -255q-12 0 -24 1q-105 9 -187 68t-130 150t-71 208q-18 93 -18 190q0 25 1 51zM469 -328q1 -21 12 -34 q10 -13 27 -15.5t39 10t45.5 39t49.5 78.5t48 121q-59 -19 -104 -45.5t-69.5 -53t-36.5 -53t-11 -47.5z" />
<glyph unicode="H" horiz-adv-x="1306" d="M6 1186q-4 30 -4 57q0 35 6 65q12 56 41 103q47 75 141 109q56 20 113 19q39 0 79 -9q98 -23 153 -98q37 -52 55 -118q16 -59 15 -135v-17q-2 -88 -11.5 -165.5t-30.5 -197.5q117 -49 244 -78q20 143 52 322t57 306t26 132q87 -27 147.5 -62t82 -61t18.5 -41 q-88 -329 -135 -631q10 -1 21 -1q21 0 44 3q7 -33 4 -56.5t-13 -32.5t-23 -15t-25.5 -4t-19.5 2h-3q-16 -120 -16 -224q2 -102 21 -164t45 -88q24 -23 66 -22h10q49 3 88.5 16.5t107.5 44.5q1 0 3.5 -27.5t2.5 -35.5q-141 -77 -255 -91q-26 -3 -50 -3q-82 0 -141 37 q-77 47 -115 159q-31 90 -31 218q0 30 2 63q6 84 17 160q-30 5 -111.5 28t-140.5 45q-27 -119 -137 -632q-7 -37 -54 -57q-45 -19 -102 -19h-6q-60 1 -123 12q60 184 130.5 443t86.5 346q-106 57 -179.5 126t-108 135t-44.5 134zM62 1257q1 -55 27 -115.5t95 -130.5 t174 -134q23 131 23 232q0 159 -56 249q-47 76 -119 76h-9q-32 -3 -60 -21q-35 -21 -55 -61q-20 -38 -20 -90v-5z" />
<glyph unicode="I" horiz-adv-x="649" d="M0 973q91 -18 188 -25q45 176 84.5 290.5t98.5 209.5q81 94 169 95q21 0 42 -6q86 -21 139 -115q44 -78 45 -164q0 -35 -8 -72q-31 -161 -195 -256q-57 -33 -129 -56q-78 -346 -78 -524v-11q0 -95 16 -153q18 -62 42 -86q22 -23 63 -23h11q50 3 87.5 16t106.5 44 q2 1 4.5 -13.5t4 -29.5t1.5 -20q-142 -77 -256 -91q-26 -3 -50 -3q-82 0 -140 37q-76 47 -110 159q-26 83 -26 198q0 39 3 83q4 55 18 149t25 160q10 60 10 65l-60 -1q-31 0 -63 1q-5 0 -21.5 70t-21.5 72zM455 969q75 21 131.5 61.5t85 87t41.5 94.5q10 36 10 68 q1 11 -1 21q-4 40 -22 63q-16 24 -38 24q-18 0 -39 -17q-90 -70 -162 -375z" />
<glyph unicode="J" horiz-adv-x="843" d="M14 -219q27 110 97 218.5t151.5 193.5t151.5 129q21 66 46.5 196.5t39 215t16.5 108.5q-167 102 -210 273q-13 53 -13 104q0 86 38 166q56 114 162 153q44 16 90 16q76 0 158 -43q37 -19 57 -66t25 -99q3 -26 3 -58t-3 -69q-5 -75 -12.5 -125.5t-20 -120t-14.5 -86.5 q61 -25 129 -39q-13 -23 -25 -40t-21 -28.5t-20 -17.5t-16.5 -9.5t-17.5 -3t-15.5 1.5t-16.5 4.5t-17 4.5q-17 -96 -27 -151.5t-27.5 -149.5t-31 -154t-33.5 -145.5t-38 -143.5t-41.5 -129t-48 -120.5t-52.5 -99.5t-60 -85t-67 -59q-61 -41 -124 -43q-5 -1 -10 -1 q-57 0 -100 25q-46 28 -71 74q-22 54 -22 115q0 42 11 88zM68 -231q-9 -31 -9 -59q0 -37 17 -70q15 -26 38 -26q18 0 41 15q72 44 130 189l14 37q58 187 84 305q-54 -38 -117 -100.5t-119.5 -140.5t-78.5 -150zM362 1320q-5 -30 -5 -61q0 -33 5 -67q10 -67 54.5 -130 t115.5 -99q8 40 15.5 86.5t14.5 106.5q7 57 7 107q0 4 -1 7q0 54 -6.5 99.5t-26.5 72t-52 24.5q-45 -3 -78.5 -43.5t-42.5 -102.5z" />
<glyph unicode="K" horiz-adv-x="1300" d="M2 205v8q0 33 8 61q8 32 26 65.5t40.5 61t52 55.5t58.5 50t62.5 44.5t60.5 38.5t57 32q32 161 58 374.5t36 346.5l10 133q1 15 29.5 32.5t96.5 31.5q56 12 126 12q15 0 31 -1q-48 -421 -111 -794q76 71 130.5 135.5t94.5 125.5t75 142t61.5 159t64.5 204q2 7 35 9.5 t81.5 4.5t71.5 6q-26 -142 -70 -262.5t-94.5 -206.5t-118.5 -160.5t-130 -124t-139 -98.5q75 -29 144.5 -91t125.5 -137t112 -151t127.5 -149t147.5 -115q-8 -3 -22.5 -7.5t-53.5 -14t-73 -15.5q-27 -4 -56 -4h-15q-38 2 -59 14q-52 28 -99.5 85.5t-87 128.5t-79 143.5 t-90 145.5t-104.5 120q-44 -221 -71 -308q-94 -306 -265 -337q-22 -4 -44 -4q-57 0 -117 27q-82 37 -110 110q-13 37 -14 74zM84 219q1 -23 10 -39q17 -30 46 -30q9 0 20 3q64 19 117 137q13 29 24 64q24 70 45 170q-59 -30 -106 -64t-76 -66t-48.5 -64t-26 -60t-5.5 -51z " />
<glyph unicode="L" horiz-adv-x="851" d="M4 -134q-2 12 -2 24q0 70 75 122q75 51 212 70q84 293 136 735t56 688q98 -20 178 -53.5t80 -54.5q-14 -253 -86.5 -684t-142.5 -664q150 -65 288 -93q124 -25 235 -25h24q122 3 272 30q-49 -112 -90 -152t-125 -47q-17 -1 -35 -1q-79 0 -168 25q-109 31 -187 72.5 t-148.5 78t-92.5 38.5q-82 -194 -217 -240q-38 -13 -74 -13q-56 0 -108 32q-68 43 -80 112zM53 -132.5q1 -16.5 6 -29.5q8 -12 22.5 -16.5t35.5 2t44 24t50.5 54.5t52.5 88q-53 -7 -95 -21t-64.5 -30.5t-37.5 -35.5t-14 -35.5z" />
<glyph unicode="M" horiz-adv-x="1847" d="M3 266q-1 13 -1 26q0 113 96 186q89 66 246 83q73 344 127 877q1 14 45 32.5t97 29.5q34 7 65 7q18 0 34 -2q46 -6 48 -35q18 -148 73 -402.5t91 -346.5q1 -4 5 -4q21 1 115 119q110 138 232 332t158 302q11 16 34 16q19 0 45 -10q59 -24 121 -74q58 -47 58 -68l-16 -76 q-10 -46 -33.5 -178.5t-41 -250t-30.5 -255.5q-11 -113 -10 -194v-36q2 -54 9.5 -95t15.5 -70.5t26 -46.5t29.5 -28t39.5 -10t41.5 1.5t49 14t49.5 19.5t55 25q21 9 31 14q2 -3 1 -16t-3 -33.5t-2 -22.5q-139 -76 -252 -90q-25 -3 -48 -3q-82 1 -143 37q-78 48 -118 158 q-37 101 -37 249v30q5 180 51 486q-11 -11 -115 -148q-190 -249 -283 -295q-24 -12 -43 -12q-39 0 -57 49q-86 234 -166 573q-76 -482 -98 -595q69 -21 88 -51q14 -22 14 -67q0 -17 -2 -36q-74 36 -121 53q-46 -193 -88 -268q-85 -163 -213 -170h-9q-93 0 -171 81 q-80 82 -89 189zM52 214q21 -58 67 -73l10 -2t10 -1q33 0 63 32q34 38 59.5 106t38 110t24.5 91q-196 -6 -259 -116q-24 -42 -24 -86q0 -30 11 -61zM573 434z" />
<glyph unicode="N" horiz-adv-x="1359" d="M2 269q-1 11 -1 22q0 118 102 191q88 65 243 81q75 363 94 840q2 71 74 107q54 28 109 27q17 -1 34 -3q71 -12 72 -61q0 -631 289 -1215q8 598 76 954q24 127 76 204q50 77 118 99q36 12 76 12q34 0 72 -9q80 -19 162 -76.5t163 -145.5q-4 -11 -8 -12q-50 46 -97 76 q-46 32 -98 44q-23 6 -44 5q-26 -1 -50 -9q-44 -16 -83.5 -72t-65.5 -154q-34 -128 -58 -410t-31 -461t-7 -219q1 -3 1 -5q0 -19 -36 -45q-42 -30 -95 -38q-10 -1 -19 -1q-43 0 -81 28q-57 52 -177 405.5t-157 515.5q-20 -200 -61 -407q69 -23 88 -53q14 -22 14 -67 q0 -17 -2 -36q-66 35 -121 55q-42 -178 -88 -270q-86 -164 -215 -169h-9q-93 0 -171 82q-79 83 -88 190zM53 217q21 -59 66 -75q12 -4 24 -4q46 0 85 64q5 8 10 17q50 95 90 260q-196 -5 -261 -114q-25 -42 -25 -87q0 -30 11 -61z" />
<glyph unicode="O" horiz-adv-x="1220" d="M4 566q-2 34 -2 68q0 70 8 142q10 104 35.5 190.5t65.5 148t90 81.5q25 162 159 272q115 93 266 94q26 0 54 -3q236 -24 370 -229q123 -187 123 -456q0 -267 -119 -493q-127 -239 -347 -336q-130 -58 -281 -58q-32 0 -66 3q-84 7 -151 58.5t-108.5 131t-66.5 180 t-30 206.5zM189 613q1 -147 35 -263q34 -118 106.5 -192t169.5 -74q119 0 221 141.5t150 344.5q48 202 58 406q1 28 1 55q0 169 -54 295q-64 146 -188 151h-12q-127 0 -224 -117q-87 -105 -105 -245q-4 -30 -4 -56q0 -106 57 -172q59 -68 163 -68q64 0 146 26q31 10 63 23 q-45 -70 -128 -114q-76 -40 -160 -39h-16q-93 4 -155 65q-58 58 -82 131q-42 -146 -42 -298z" />
<glyph unicode="P" horiz-adv-x="1282" d="M0 170q1 4 9 14t15.5 18t8.5 7q30 -27 48 -42.5t42.5 -33t40.5 -23.5t37 -10t36.5 4t34 23t35 42t35 65.5t37.5 89.5q43 114 80 303q-65 34 -77 81q-3 13 -3 25q0 33 25 59q34 36 94 46q20 119 38.5 250t26.5 202l8 72q1 14 29 30q30 14 98 26q48 8 105 9q25 0 53 -2 q-23 -177 -113 -643q21 -9 50 -30.5t48 -38.5l19 -17q69 25 124.5 72.5t90.5 106t51 127.5q14 57 14 113v24q-4 68 -31 133.5t-74 118.5t-122.5 91.5t-171.5 51.5q-27 3 -53 3q-49 0 -96 -12q-72 -19 -127.5 -60.5t-96 -102.5t-58.5 -131q-14 -52 -14 -109q0 -20 2 -41 q6 -80 40 -155q-69 16 -108 56t-44 65q-8 37 -8 74q0 43 11 86q20 79 68.5 143.5t121.5 117.5t157.5 87.5t180.5 48.5q60 9 118 8q35 0 69 -2q92 -8 181.5 -46.5t159.5 -103.5q111 -104 127 -259q3 -27 2 -54q0 -127 -64 -251q-78 -150 -231 -237q-144 -85 -346 -85 q-16 0 -31 1q-36 -166 -57 -237q-45 -152 -113 -238q-69 -86 -153 -102q-23 -5 -47 -4q-62 0 -132 32q-96 44 -200 144zM420 734q-2 -6 -2 -11q0 -31 51 -53q3 20 10 60t10 61q-58 -19 -69 -57zM721 659q5 1 15.5 3.5t15.5 3.5q-2 2 -5.5 7t-5.5 7q-4 8 -12 20 q-4 -15 -8 -41z" />
<glyph unicode="Q" horiz-adv-x="1210" d="M2 667q2 129 25.5 237t68.5 188.5t103 103.5q24 163 159 272q114 94 266 94q26 0 54 -3q129 -13 230 -83.5t159.5 -176t84.5 -237.5q19 -98 19 -197q0 -36 -3 -73q-9 -137 -56 -271.5t-124 -243t-195 -185t-261 -96.5q121 -73 150 -88q112 -56 220 -56q51 0 100 12 q56 14 114 42q-85 -98 -166 -144q-77 -44 -143 -44h-6q-69 2 -134 28t-131.5 68t-129.5 80t-140 60q-54 16 -107 16q-23 0 -46 -3q52 52 102 76q-74 54 -124.5 156t-70.5 221q-18 107 -18 224v23zM187 613q0 -147 35 -263q34 -117 106.5 -191.5t169.5 -74.5q119 0 221 141.5 t150 344.5t58 406q1 28 1 55q0 169 -54 295q-64 145 -188 151h-12q-128 0 -224 -117q-87 -105 -105 -245q-4 -30 -4 -56q0 -107 57 -172q59 -68 163 -68q65 0 146 26q31 10 63 23q-45 -70 -128 -114q-76 -39 -160 -39h-16q-93 4 -155 65q-58 58 -82 131q-42 -146 -42 -298z " />
<glyph unicode="R" horiz-adv-x="1478" d="M0 158q1 4 9.5 15t16.5 20t9 8q48 -42 72.5 -61t59.5 -38t57 -12.5t49.5 27.5t51.5 71t50 127q35 100 69 308q-50 25 -70 59q-14 24 -15 46q1 9 3 18q8 30 38 55t75 33q16 120 30.5 252t20.5 204l6 72q0 8 10.5 17.5t33.5 19.5t54.5 17.5t79.5 11.5q32 3 67 3q18 0 36 -1 q-43 -358 -90 -650q21 -9 50.5 -30.5t48.5 -38.5l20 -17q91 34 155 106q64 74 91 160q20 64 20 132q0 24 -2 50q-10 96 -54.5 176.5t-137.5 140.5t-220 77q-26 3 -51 3q-51 0 -99 -13q-72 -20 -128 -62t-96 -104q-42 -62 -58 -132q-10 -42 -9 -87q1 -31 5 -65 q12 -81 53 -156q-69 16 -108.5 55.5t-44.5 64.5q-10 44 -10 87q0 64 22 125q38 103 121.5 178.5t200 124.5t238.5 60q28 3 57 2q95 0 192 -28q126 -37 221 -123q65 -59 100.5 -139t39.5 -165q1 -13 1 -25q0 -73 -22 -148q-26 -88 -77 -163t-134 -136.5t-186 -93.5 q32 -36 91.5 -110.5t102 -122.5t107 -109.5t143.5 -111.5t174 -89q-78 -32 -148 -38q-24 -2 -46 -2q-44 0 -80 8q-55 12 -108.5 48t-92 74.5t-81.5 100.5t-72 111t-68 119q-37 67 -56 99q-24 -2 -49 -1.5t-51 1.5q-26 -154 -49 -241q-53 -204 -151 -288q-71 -61 -155 -61 q-32 1 -65 9q-123 32 -268 166zM402 728l-2 -10q0 -31 51 -52q9 58 18 120q-57 -20 -67 -58zM705 657q5 0 30 5q-9 14 -10 16q-6 6 -14 18q-1 -6 -3 -19.5t-3 -19.5z" />
<glyph unicode="S" horiz-adv-x="886" d="M3 336v7q0 124 71 201q63 67 155 67q40 0 86 -13q27 -8 56 -20q-139 -26 -209 -152q-45 -81 -45 -169q0 -27 4 -54q17 -111 93 -154q36 -20 80 -20q37 0 79 14q74 25 123 91q50 65 64 144q5 27 5 56q-1 54 -19 110q-28 88 -97 152q-77 71 -135 150.5t-100 174t-48 189.5 q-1 15 0 31q0 81 24 168q42 126 152 189q102 58 228 58h20q142 -4 219 -109q52 -71 53 -155q0 -17 -3 -35q-12 -104 -96 -153q-54 -31 -123 -31q-78 0 -177 39q198 52 275 166q35 52 35 98q0 25 -10 48q-27 62 -106 70q-14 2 -28 1q-82 -3 -136.5 -39.5t-76.5 -91.5 q-22 -56 -24 -122q0 -5 1 -10q-1 -61 15 -121q18 -65 49 -118q31 -54 78 -111t85.5 -97.5t80 -99.5t65.5 -122q41 -100 41 -190q1 -14 -1 -29q-8 -103 -55.5 -182t-137 -128.5t-205.5 -56.5q-18 -1 -36 -1q-180 0 -283 122q-85 100 -86 238z" />
<glyph unicode="T" horiz-adv-x="1030" d="M2 1139q-2 19 -1 38q1 56 17 107q22 69 81.5 128t148.5 89q76 25 162 28q16 1 31 1q69 0 137 -12q82 -14 170 -33.5t181 -38t187 -28.5q43 -4 89 -4q54 0 112 6q108 11 213 46q-74 -151 -152 -184q-50 -22 -110 -28q-20 -2 -43 -1q-44 0 -94 7q-76 11 -119.5 20 t-124.5 29q-25 -92 -57 -227q-30 -135 -68 -359q-35 -207 -35 -336v-20q2 -102 22 -163q20 -62 47 -86q23 -21 65 -20h13q52 4 90.5 18.5t108.5 45.5q1 -4 0.5 -17t-1.5 -33t-1 -22q-141 -77 -255 -91q-26 -3 -50 -3q-82 0 -141 37q-77 47 -115 159q-31 90 -31 218 q0 30 2 63q8 168 85 474.5t122 408.5q-23 8 -74.5 25.5t-75.5 25.5t-68.5 21t-70 17.5t-62.5 8.5t-62 0t-53.5 -14t-51.5 -27q-42 -31 -65 -73q-24 -42 -23 -88q0 -43 14 -86q16 -45 54 -85.5t88.5 -72t123 -51t154.5 -21.5q13 0 -7 -28q-35 -52 -100 -77q-35 -13 -71 -13 q-17 0 -35 3q-87 15 -154 63.5t-103 113.5t-44 141z" />
<glyph unicode="U" horiz-adv-x="1431" d="M2 1215q0 136 102 232q90 84 205 91q10 1 20 0q114 0 185 -87q79 -95 79 -265q0 -85 -20 -189q87 31 103 35q2 -6 6 -38v-7q0 -29 -32 -67q-36 -42 -105 -50q-74 -336 -74 -510v-16q0 -263 98 -282q8 -2 17 -2q66 0 153 103q100 118 154 279q21 62 29 117 q11 72 53.5 290.5t82.5 421t42 212.5q53 -16 97 -36t71.5 -38.5t45.5 -36.5t25 -31t4 -22q-8 -26 -20.5 -70.5t-44.5 -171t-56.5 -241t-45 -250t-21.5 -226.5q0 -64 7 -112.5t21.5 -79t32.5 -49.5t44 -24t50.5 -4t57 12.5t59.5 23.5t62 31q4 0 4 -74q-175 -94 -304 -94 q-47 0 -87 12q-152 46 -184 260q-71 -97 -154.5 -162.5t-163.5 -93.5q-53 -19 -104 -19q-25 0 -49 5q-73 14 -125 66q-54 52 -80 158q-19 75 -18 169q0 39 3 82q10 147 62 410q-99 19 -166 75.5t-94 122t-27 140.5zM66 1274q-2 -16 -2 -33q0 -34 10 -68q15 -50 71 -96 t148 -73l16 -7q21 128 21 220q0 139 -48 198q-27 32 -61 32q-22 0 -48 -13q-5 -3 -11 -7q-35 -22 -62 -62.5t-34 -90.5z" />
<glyph unicode="V" horiz-adv-x="667" d="M0 1540h76q3 0 5 1q35 -1 66 -7q34 -6 60.5 -18.5t42 -40t16.5 -68.5v-48.5v-61.5q1 -68 1 -138t6.5 -168t16.5 -198.5t30.5 -230t48.5 -263.5q58 207 225.5 683t232.5 562q9 2 23.5 4.5t49 -2.5t58.5 -24q-68 -67 -187 -355t-223 -616t-145 -533q-10 -18 -49 -19h-4 q-36 0 -74 16q-40 17 -49 46q-60 183 -138.5 652.5t-88.5 826.5z" />
<glyph unicode="W" horiz-adv-x="1052" d="M4 1059q-3 86 -3 162q0 198 22 333q22 -6 58 -13.5t56 -12t45.5 -14.5t38 -23t20.5 -35.5t5 -52.5q-3 -42 -3 -129q0 -166 12 -494q19 -500 19 -557q69 282 184.5 692.5t178.5 520.5q90 -23 144.5 -43.5t72.5 -36t14 -29.5q-28 -92 -78 -474.5t-51 -559.5 q40 161 230 652.5t256 588.5q10 2 26 4t53.5 -3.5t61.5 -25.5q-69 -71 -197.5 -350.5t-245.5 -612.5t-151 -534q-10 -18 -49 -20q-3 0 -6 -1q-37 1 -73 17q-40 18 -48 47q-24 70 -29 265q-2 81 -2 160q0 110 4 214q7 180 19 348q-70 -159 -156.5 -500t-124.5 -569 q-11 -18 -49 -19h-4q-36 0 -74 16q-40 18 -51 48q-37 106 -75 419.5t-50 621.5z" />
<glyph unicode="X" horiz-adv-x="921" d="M0 61q45 24 107 82t118.5 123.5t106.5 127.5t80 102l30 41q-96 235 -173 489.5t-111 462.5q159 48 234 48q65 0 69 -36q34 -338 149 -708q130 216 186 394q46 149 46 257q0 21 -2 41q4 1 10.5 3.5t26 8t36.5 8.5t37.5 3t34.5 -5q5 -17 5 -40q0 -93 -71 -291 q-89 -250 -264 -513q98 -269 217 -514l-43 -49q-68 -70 -105 -70q-16 0 -26 13q-94 126 -215 399q-5 -6 -110.5 -126.5t-182.5 -196t-141 -115.5z" />
<glyph unicode="Y" horiz-adv-x="1087" d="M4 1256q-2 18 -2 35q0 54 15 101q20 64 63 103q40 36 97.5 58.5t115.5 26.5q17 1 33 1q40 0 76 -7q51 -8 84.5 -34.5t35.5 -64.5q1 -14 1 -30q0 -43 -8 -99q-11 -75 -33 -184t-31 -163q114 -35 153 -43q-16 -33 -39.5 -53t-43 -25.5t-42.5 -4.5t-32 4t-17 6 q-31 -116 -48 -270q-11 -91 -11 -176q0 -57 5 -112q12 -134 64 -151q15 -5 30 -5q51 0 98 57q60 72 102.5 203.5t76.5 289.5t54 315t30.5 272t10.5 169q243 -50 243 -82q-21 -360 -78 -759.5t-139 -739.5q-78 -283 -229 -371q-57 -33 -114 -33q-41 0 -82 18q-73 33 -100 106 q-12 32 -12 62q0 60 45 117q77 97 265 144q19 70 47.5 234t42.5 267q-8 -49 -27.5 -105.5t-51.5 -113t-70 -101.5t-86 -71q-42 -23 -84 -23q-6 0 -13 1q-76 7 -130 48t-81 101.5t-40 139.5q-10 69 -10 136v22q2 78 10.5 162t19.5 145t21.5 114t11.5 63q-90 64 -140.5 145 t-56.5 155zM69 1340q-1 -11 -1 -21q0 -57 33 -119q39 -73 122 -117q-1 -3 10.5 59.5t23.5 127t13 67.5q12 53 12 89q0 34 -10 53q-18 31 -51 31q-8 0 -17 -2q-45 -9 -89 -58q-39 -44 -46 -110zM404 -331.5q1 -21.5 12 -35.5q10 -13 27 -15t39 11t45.5 40t49 79t46.5 121 q-59 -19 -104 -45.5t-69 -53t-35.5 -53.5t-10.5 -48.5z" />
<glyph unicode="Z" horiz-adv-x="1175" d="M2 124q11 83 117 128q73 30 182 35q128 214 279.5 509t263.5 539q-57 -58 -134.5 -92t-155.5 -41q-21 -2 -42 -2q-57 0 -112 14q-75 20 -130 62q-56 42 -84 112q-20 48 -20 105q0 26 4 53q100 -63 194 -99t164 -43q37 -4 70 -4q32 0 61 4q61 6 105 24.5t76.5 36.5 t53.5 31t28 11q48 -12 106 -40.5t95.5 -57t31.5 -39.5q-3 -5 -42 -78.5t-82 -153t-109.5 -201.5t-130 -235t-138.5 -241.5t-139 -231.5q126 -40 286 -50q38 -2 78 -3q127 0 271 25q-54 -108 -93 -153t-89 -48q-13 -1 -26 -1q-66 -1 -139 17q-87 20 -147.5 48t-116 52.5 t-73.5 26.5q-113 -173 -252 -191q-16 -2 -30 -2q-75 0 -131 51q-51 47 -51 105q0 9 1 18zM48.5 126.5q-1.5 -13.5 0.5 -24.5q5 -13 18.5 -20t34 -5t43.5 14t50 41.5t51 72.5q-48 -1 -86 -8.5t-59.5 -18.5t-36 -24.5t-16 -27z" />
<glyph unicode="[" horiz-adv-x="538" d="M2 -190q101 635 266 1706l465 28l-6 -147q-15 -1 -61.5 2t-99.5 7t-105.5 7t-87.5 1t-37 -11q-75 -365 -123.5 -701t-101.5 -806q-3 -19 186.5 -48t212.5 -24l-6 -117q-18 4 -155 23t-243.5 40.5t-103.5 39.5z" />
<glyph unicode="\" horiz-adv-x="540" d="M0 1513l72 84q257 -803 516 -1597l-105 14q-139 497 -237 807t-246 692z" />
<glyph unicode="]" horiz-adv-x="727" d="M0 -293l6 148q15 1 61.5 -2t100 -7.5t106 -7.5t88 -1t37.5 11q75 364 122.5 698t101.5 810q3 19 -177.5 47.5t-203.5 23.5l6 117q21 -5 151.5 -23.5t232.5 -39.5t99 -39q-235 -1515 -264 -1706z" />
<glyph unicode="^" horiz-adv-x="538" d="M0 928q60 75 91.5 116t75 103.5t77 125t65.5 136.5l15 2q61 -146 125.5 -249t168.5 -230l-104 -14q-80 133 -205 327q-36 -58 -96 -152.5t-107 -172.5z" />
<glyph unicode="_" horiz-adv-x="727" d="M0 -201l33 86q222 -13 569 40q32 4 49 7l29 -112q-277 -7 -680 -21z" />
<glyph unicode="a" horiz-adv-x="1093" d="M2 352q-2 25 -1 52q1 69 13 141q18 99 50.5 188.5t90.5 163t132 111.5q67 37 136 36h27q82 -8 134 -77q1 -2 3 -5.5t3 -5.5q4 15 12 42.5t12 41.5q89 -27 141 -49.5t69 -38.5t14 -30q-30 -124 -47 -229.5t-23 -195.5q-2 -35 -2 -68q0 -49 6 -91q8 -70 30.5 -120t61 -77 t91.5 -31q9 -1 19 -1q48 0 106 18q72 22 159 70l18 -47q-132 -76 -245 -104q-64 -16 -119 -16q-43 0 -79 9q-84 21 -144.5 80.5t-94.5 154.5q-63 -135 -157 -210q-81 -64 -180 -64q-17 0 -35 2q-60 6 -105 55t-67.5 125t-28.5 170zM254 340q10 -94 51 -115q22 -11 44 -11 q63 0 115 98q64 119 79 299q3 42 3 78q0 110 -32 161q-18 29 -45 29q-12 0 -25 -5q-66 -26 -116 -124q-48 -100 -66 -208q-11 -69 -11 -132q-1 -36 3 -70z" />
<glyph unicode="b" horiz-adv-x="884" d="M2 528v29q0 49 2 93q4 58 12 114q28 188 90 421t119 376q53 -16 93.5 -35.5t62 -36.5t34.5 -34.5t16 -29t1 -20.5q-10 -39 -56 -205t-69 -260q59 78 123 111q49 23 96 23q30 0 58 -10q73 -24 133 -99q53 -69 74 -166q14 -66 14 -133q0 -32 -3 -64q-10 -100 -42 -202 t-79.5 -183.5t-108 -138t-121.5 -68.5q-49 -11 -92 -11q-21 1 -41 3q-59 8 -105.5 30t-81 62t-59 87t-39.5 106t-22.5 118t-8.5 123zM260 255q26 -75 90 -75h2q36 1 78 62.5t74 155.5q31 92 50 192q13 69 13 133q-1 29 -3 56q-8 89 -48 130q-20 21 -42 21q-39 0 -85 -67 q-73 -106 -117 -292q-28 -118 -28 -204q0 -65 16 -112z" />
<glyph unicode="c" horiz-adv-x="712" d="M25 594q53 213 193 344q36 34 77 59q87 54 187 56h8q96 0 172 -45l-121 -195q-21 5 -42 5q-94 0 -170 -101q-82 -108 -102 -268q-6 -44 -6 -83q0 -109 45 -181q52 -83 147 -83q43 0 95 17q74 24 162 82q3 2 71.5 51t71.5 51l23 -43q-3 -2 -70 -51t-70 -51 q-222 -158 -386 -158q-56 0 -105 18q-128 48 -179 210q-26 84 -26 176q0 91 25 190z" />
<glyph unicode="d" horiz-adv-x="1097" d="M2 352q-2 25 -1 52q1 69 13 141q18 99 50.5 188.5t90.5 163t132 111.5q67 37 136 37q13 1 27 -1q82 -8 134 -77q1 -1 3 -4.5t3 -4.5q74 343 170 592q65 -21 110.5 -45t65 -46t27 -38t4.5 -28q-13 -50 -54.5 -198t-69.5 -261t-46 -217q-28 -153 -28 -270q-1 -31 1 -59 q10 -136 60 -208q47 -69 144 -69q6 1 10 1q104 4 259 87l19 -45q-132 -78 -246 -106q-64 -15 -119 -16q-43 0 -79 10q-84 22 -145 81.5t-95 155.5q-62 -137 -158 -213q-82 -65 -182 -66q-17 0 -35 2q-60 6 -105 55t-67.5 125t-28.5 170zM254 340q10 -94 51 -115 q23 -11 44 -11q63 0 116 97q64 118 80 298q4 44 4 82q0 107 -32 158q-19 30 -48 30q-12 0 -25 -5q-66 -26 -116 -124q-48 -100 -66 -208q-11 -69 -11 -132q-1 -36 3 -70z" />
<glyph unicode="e" horiz-adv-x="704" d="M20 606q49 210 183 334q53 49 116 78q87 40 163 40q42 0 80 -12q90 -29 109 -115q5 -21 5 -43q0 -113 -120 -264q-108 -137 -304 -282q0 -115 26.5 -178.5t79.5 -77.5q18 -5 39 -5q41 -1 89 17q74 26 176 95q3 2 71.5 51t71.5 51l22 -43q-3 -2 -69.5 -51t-69.5 -51 q-211 -151 -369 -151q-59 0 -111 21q-129 52 -181 218q-28 90 -28 189q0 86 21 179zM258 428q253 236 299 361q9 22 9 37q0 23 -21 28q-5 1 -10 1q-24 -1 -59 -23q-43 -28 -88 -79t-82.5 -138t-47.5 -187z" />
<glyph unicode="f" horiz-adv-x="839" d="M13 -391q-14 34 -14 67q0 56 40 110q76 103 270 151q52 213 86 538q-38 -4 -50.5 -5.5t-37 -1t-29 -0.5t-20 6t-16 8t-11 16.5t-10.5 21t-10 31t-14 37.5q81 -43 204 -47q2 21 4.5 79.5t5 115t10.5 131.5t19 138.5t31.5 126.5t48 105t69.5 65q30 16 65 16q13 0 28 -3 q73 -12 112 -68.5t42 -136.5v-23q0 -71 -16 -153q-19 -96 -58 -190.5t-90 -174.5q64 13 166 43q3 -42 -13 -49q-117 -38 -190 -55q-42 -366 -94 -590q-75 -294 -227 -390q-61 -38 -120 -38q-39 0 -78 16q-74 31 -103 103zM71 -335.5q1 -17.5 9 -29.5q21 -16 52 -14t77 68 t82 180q-49 -15 -88.5 -36t-64 -42.5t-41 -44.5t-22 -43.5t-4.5 -38zM639 600q75 124 109 273q31 134 31 220v19q-4 85 -24 85q-1 0 -3 -1q-15 -4 -28.5 -33.5t-24 -79t-19.5 -102t-16 -118.5t-11.5 -110t-8.5 -95.5t-5 -57.5z" />
<glyph unicode="g" horiz-adv-x="884" d="M2 352q-1 26 -1 52q0 69 13 141q17 99 50 188.5t91 163t132 111.5q67 37 135 37q11 0 22 -1q80 -7 134 -69q0 45 2 63q54 -11 93 -20.5t75.5 -20t55 -21t17.5 -20.5q-34 -637 -131 -1062q-76 -298 -230 -392q-60 -37 -118 -37q-40 0 -79 17q-74 32 -103 104 q-13 33 -13 65q0 57 42 112q76 101 268 149q29 127 47 240q-115 -152 -265 -152q-18 0 -36 2q-60 6 -105 55t-67 125.5t-29 169.5zM217.5 -349.5q1.5 -20.5 7.5 -35.5q13 -22 36 -22q12 0 27 7q72 32 131 188q10 26 19 56q-57 -18 -101 -43.5t-67.5 -51t-38.5 -52t-13.5 -47 zM254 340q10 -95 51 -115q22 -11 43 -11q62 0 116 95q66 117 85 296q5 48 5 89q0 102 -31 153q-20 33 -51 33q-13 0 -28 -6q-66 -26 -115.5 -124.5t-66.5 -207.5q-12 -69 -12 -132q0 -36 4 -70z" />
<glyph unicode="h" horiz-adv-x="985" d="M2 338v21q0 149 21 301q22 163 59 333t78.5 310t83.5 247q53 -16 94 -35.5t62 -36.5t36 -34t15.5 -28.5t-0.5 -20.5q-64 -156 -153 -558t-105 -587q34 99 76.5 209.5t97.5 238t107.5 210t86.5 83.5h6q39 0 99 -24q62 -25 61 -41l-57 -300q-14 -105 -15 -193q-1 -22 1 -44 q4 -104 36 -169q32 -64 88 -92q35 -17 81 -17q29 1 63 7q88 18 206 81l19 -45q-122 -72 -224 -102q-89 -27 -153 -27q-10 1 -19 1q-70 4 -124.5 41.5t-87 82.5t-54 115t-30.5 120.5t-11 118.5q-2 56 -3 80q1 5 1 8q0 21 2 50v3q-23 -37 -44 -81.5t-48 -118.5t-41 -114.5 t-52 -157.5t-52 -159q-5 -12 -30.5 -13.5t-55 6t-56 24.5t-32.5 39q-31 110 -33 268z" />
<glyph unicode="i" horiz-adv-x="563" d="M10 668q18 163 72 342q89 -27 141 -50t68.5 -38t13.5 -29q-39 -166 -56 -299q-13 -105 -13 -192v-45q4 -104 36 -169t88 -93q35 -17 81 -18q29 -1 63 7q88 18 205 82l18 -45q-154 -91 -282 -113q-46 -8 -88 -8q-72 0 -127 26q-87 40 -144 130t-75 220q-9 66 -9 139 q-1 73 8 153zM166 1200q-1 12 -1 24q1 34 7 65q8 43 18 78t20 56l9 21q65 -21 110.5 -45.5t65 -46t27 -38t4.5 -28.5q-13 -50 -46.5 -161t-41.5 -140q-61 16 -100.5 50.5t-54 76.5t-17.5 88z" />
<glyph unicode="j" horiz-adv-x="731" d="M13 -391q-14 34 -14 67q0 56 40 110q76 103 270 151q54 209 84.5 523t32.5 519q63 -14 95 -22t72.5 -19.5t58 -21t16.5 -19.5q-28 -554 -127 -979q-75 -294 -227 -390q-61 -38 -120 -38q-39 0 -78 16q-74 31 -103 103zM71 -317q0 -20 5 -37q11 -27 37 -27q8 0 17 3 q61 17 117 134q24 49 44 113q-55 -17 -98.5 -41.5t-67 -48.5t-39 -50t-15.5 -46zM467 1293q3 44 8 80.5t11 58.5l6 22q55 -9 97.5 -23t66.5 -28t39 -29t20 -26.5t4 -20.5q-5 -52 -23.5 -169t-21.5 -142q-63 8 -106.5 36t-64 67t-29.5 85q-8 34 -8 68q0 10 1 21z" />
<glyph unicode="k" horiz-adv-x="823" d="M2 338v21q0 149 21 301q22 163 59 333t78.5 310t83.5 247q53 -16 94 -35.5t62 -36.5t36 -34t15.5 -28.5t-0.5 -20.5q-64 -155 -153 -557t-105 -588q34 99 76.5 209.5t97.5 238t107.5 210t86.5 83.5q30 1 60 -0.5t36 -1.5q-15 -17 -39.5 -47t-81 -116t-90.5 -164 q-3 -35 -3 -69q-1 -39 3 -77q6 -74 28 -143t56 -126.5t86 -95.5t114 -51q23 -5 48 -4q44 0 98 14q84 22 177 83l16 -39q-98 -58 -186 -90q-89 -32 -157 -39q-24 -2 -46 -2q-42 0 -82 8q-60 13 -103 39.5t-79.5 67.5t-61 83.5t-43.5 93.5q-51 -142 -102 -301 q-3 -10 -20.5 -13.5t-41 0.5t-47 12.5t-42 24t-23.5 32.5q-31 110 -33 268z" />
<glyph unicode="l" horiz-adv-x="563" d="M16 721q26 184 93.5 431.5t126.5 395.5q52 -16 92 -35.5t62 -36.5t35 -34t16 -28.5t1 -20.5q-15 -59 -57.5 -209t-73.5 -273.5t-49 -226.5q-28 -153 -28 -270q0 -32 2 -60q10 -136 59 -207q48 -69 145 -69h10q104 4 259 88l18 -45q-213 -122 -364 -122q-41 0 -79 10 q-170 45 -240 235q-43 119 -43 276q0 94 15 201z" />
<glyph unicode="m" horiz-adv-x="1402" d="M6 514q20 293 88 516q89 -28 142 -51.5t70 -39t13 -28.5q-35 -82 -77.5 -287.5t-55.5 -373.5q34 100 76.5 209.5t97.5 237.5t107 210.5t86 83.5h3q39 -1 102 -25t63 -39l-73 -500q0 -34 3 -65q54 148 107.5 276t118.5 240t104 113h3q38 -1 100 -25q63 -24 63 -39 l-47 -231q-16 -106 -22 -196q-2 -36 -3 -67q-1 -50 5 -92q8 -69 31 -120t61.5 -78t91.5 -31q8 -1 17 0q47 0 107 18q72 22 160 69l19 -45q-219 -128 -371 -128q-106 0 -180 62q-29 29 -41 45q-22 27 -39.5 61t-29 70t-20 72.5t-13 73.5t-7.5 69t-3.5 62.5t0 50t1.5 36.5v17 q-34 -56 -62 -117t-42.5 -103.5t-38 -116t-39.5 -118.5q-27 -76 -39 -91q-12 -16 -28 -16q-23 0 -54 34q-24 27 -43.5 61t-32.5 70.5t-22.5 74t-14.5 75.5t-8 71.5t-3.5 65.5t-0.5 53t1 38.5t1 18.5q-19 -31 -39.5 -74t-35.5 -78.5t-38.5 -104.5t-36 -106t-43 -131.5 t-44.5 -136.5q-23 -15 -58.5 -14.5t-70.5 21t-43 49.5q-29 103 -29 272q0 79 6 172z" />
<glyph unicode="n" horiz-adv-x="976" d="M6 514q20 293 90 516q89 -28 141 -51.5t69 -39t13 -28.5q-35 -82 -77.5 -287.5t-55.5 -373.5q34 100 76.5 209.5t97.5 237.5t107 210.5t86 83.5h6q39 0 99 -24q63 -25 63 -41l-47 -232q-16 -106 -22 -195q-2 -35 -3 -68q-1 -49 5 -91q8 -70 31 -120t61.5 -77t91.5 -31 q9 -1 19 -1q47 0 105 18q72 22 160 70l19 -45q-119 -70 -219 -100q-94 -29 -161 -29h-9q-70 2 -124 38t-87 76.5t-55.5 110.5t-32 116t-13.5 118t-4 92t2 60v9q-23 -37 -44 -81.5t-48 -118.5t-41 -114.5t-52 -157.5t-52 -159q-3 -10 -20.5 -13.5t-41 0.5t-46.5 12.5t-41 24 t-23 32.5q-29 102 -29 270q-1 79 6 174z" />
<glyph unicode="o" horiz-adv-x="808" d="M6 340q-5 41 -5 84q0 53 8 109q15 100 47.5 191t95 167.5t143.5 118.5q80 44 166 44h15q94 -4 155 -69q42 -49 63 -102q-70 28 -131 28q-113 0 -198 -94q-98 -108 -126 -296q-9 -60 -9 -113q0 -93 28 -165q36 -94 107 -93h14q54 7 102 45.5t79 92t53.5 116.5t25.5 119 q1 17 1 33q0 37 -5 67q-123 4 -150 73q-7 18 -7 35q0 32 24 65q36 48 90 48h6q18 -1 35 -8q37 -16 61 -46.5t32 -71t10 -82.5v-13q0 -36 -7 -77q-8 -48 -17 -84t-20 -73q-55 -175 -170 -285q-108 -104 -255 -104h-19q-68 3 -121 49.5t-81 122t-40 168.5z" />
<glyph unicode="p" horiz-adv-x="925" d="M2 -152q11 216 34 455.5t62.5 473.5t79.5 345q28 -2 61.5 -8.5t65 -15.5t57 -18.5t39.5 -19.5t11 -18q-12 -29 -25 -73q44 47 90 71q50 23 96 23q30 0 59 -9q72 -25 132 -100q51 -65 73 -156q16 -68 16 -136q0 -25 -2 -50q-8 -95 -33.5 -192.5t-71 -179.5t-97.5 -142 t-113 -86q-35 -15 -68 -15q-26 0 -50 9q-128 44 -185 180q-25 -158 -40.5 -323t-16.5 -257v-23q0 -75 6 -109q2 -6 -8 -8q-6 -1 -13 -1q-29 0 -78 21q-66 29 -73 68q-11 49 -11 153q0 61 3 141zM309 245q24 -73 87 -73h3q36 1 78 62t74 154t51 192q13 69 13 133q0 29 -3 57 q-8 89 -47 131q-20 21 -42 21q-40 0 -87 -68q-73 -107 -117 -294q-27 -116 -27 -200q0 -67 17 -115z" />
<glyph unicode="q" horiz-adv-x="897" d="M2 383q-1 25 -1 51q0 69 13 142q17 99 50 188t91 162.5t132 111.5q67 37 136 37q13 0 27 -1q82 -9 134 -77q31 -43 47 -90q10 35 49 142q53 -16 93.5 -35.5t62 -36.5t34.5 -34.5t16 -29t1 -20.5q-14 -55 -54.5 -200.5t-69 -260t-46.5 -217.5q-25 -148 -27 -275 q-1 -13 -1 -27q0 -110 19 -196q20 -97 71 -151q47 -49 117 -49h11l11 -43q-61 -17 -114 -17q-38 0 -71 9q-80 21 -136 78.5t-89 149t-45 201.5q-7 66 -7 138q0 48 3 98q-100 -100 -224 -100q-16 0 -32 2q-60 6 -105 55t-67 125.5t-29 169.5zM254 370q10 -94 51 -114 q21 -10 41 -10q63 0 117 97q65 118 84 297q5 50 5 91q0 100 -31 149q-19 31 -49 31q-13 0 -28 -6q-66 -26 -115.5 -124.5t-66.5 -206.5q-12 -70 -12 -133q0 -36 4 -71z" />
<glyph unicode="r" horiz-adv-x="831" d="M0 307q55 118 94 256.5t45 245.5q-57 30 -89 92q-30 58 -30 141v13q2 92 50 192l180 -102q-48 -133 -48 -208q0 -37 12 -61q13 -25 34 -25q12 0 26 8q45 26 68 104l10 47q18 -5 50.5 -15.5t76 -27.5t72 -37.5t24.5 -36.5q-39 -166 -57 -299q-14 -106 -14 -193v-44 q4 -104 36 -169t88 -93q35 -17 81 -17q29 0 63 6q88 18 205 82l18 -45q-104 -62 -197 -92q-90 -29 -163 -29h-5q-74 1 -135 28t-104.5 78.5t-72 123.5t-39.5 162q-7 60 -7 126q0 34 2 68q6 104 27 219q-41 -17 -82 -17h-12q-7 -92 -55.5 -254.5t-122.5 -293.5q-1 2 -29 67z " />
<glyph unicode="s" horiz-adv-x="743" d="M0 -162l43 39q118 -82 186 -81q59 0 79 62q11 33 11 93q0 90 -25 240q-5 33 -17 99q-25 145 -33 210q-6 46 -8 92q-2 33 -2 73v31q1 58 7.5 108.5t23 98.5t41.5 80.5t65 48.5q28 12 62 12q14 0 30 -2q77 -10 140 -49.5t79 -107.5q8 -46 9 -93q-1 -32 -5 -64 q-10 -80 -34.5 -162t-51.5 -144.5t-47.5 -105.5t-20.5 -44q15 -109 15 -199q-1 -19 -1 -35q-4 -104 -22.5 -180.5t-62.5 -119t-106 -48.5q-9 -1 -19 -1q-56 0 -134 31q-90 37 -202 118zM503 650q-4 -37 -3 -80q0 -91 16 -210q64 151 90 270q20 95 20 148q0 14 -2 25 q-6 54 -30 61q-4 1 -7 1q-21 -1 -45 -47q-26 -54 -39 -168z" />
<glyph unicode="t" horiz-adv-x="595" d="M0 1061q47 -11 117 -21q60 212 106 340q53 -17 93.5 -36.5t62.5 -36.5t35 -34t16 -29t0 -21q-10 -40 -29 -110t-26 -95h34q107 0 191 16l4 -90q-66 -13 -145 -13q-51 0 -107 5q-42 -149 -65 -299q-21 -126 -21 -226q0 -43 4 -81q13 -126 64 -191q47 -60 137 -61q8 0 17 1 q103 6 253 87l19 -45q-212 -122 -363 -122q-39 0 -73 8q-170 39 -241 219q-49 123 -49 290q0 79 11 168q15 142 57 293l-100 29z" />
<glyph unicode="u" horiz-adv-x="1030" d="M18 293q-17 102 -17 215q0 215 60 473q9 39 19 78q89 -27 141.5 -50t69 -39t12.5 -30q-47 -176 -63 -353q-9 -91 -9 -163q-1 -66 7 -116q14 -93 47 -94q3 0 6 1q43 11 94.5 177t102.5 394.5t63 266.5q88 -27 140 -50t69 -38.5t14 -30.5q-40 -166 -58 -298 q-14 -105 -13 -193q1 -22 1 -44q4 -104 35 -169q31 -64 87 -92q35 -17 81 -18q29 0 64 8q88 18 205 81l18 -45q-110 -66 -216 -90q-57 -13 -109 -13q-44 0 -85 10q-88 21 -153.5 82t-99.5 173q-28 93 -28 212q0 25 1 50q-79 -407 -208 -539q-49 -50 -96 -50q-33 0 -65 25 q-84 67 -117 269z" />
<glyph unicode="v" horiz-adv-x="528" d="M2 514q6 292 64 514q91 -28 144.5 -50.5t71.5 -38t13 -28.5q-30 -82 -62 -287t-38 -374q44 152 164.5 429.5t187.5 362.5q6 2 17 3t40 -6.5t53 -28.5q-108 -93 -240 -396.5t-196 -599.5q-7 -13 -32.5 -14.5t-54.5 6t-55.5 25t-33.5 39.5q-43 133 -43 377q-1 33 0 67z" />
<glyph unicode="w" horiz-adv-x="962" d="M3 514q-2 60 -2 117q0 222 34 397q92 -28 147 -50.5t73.5 -38t14.5 -28.5q-25 -83 -45 -289q-15 -158 -15 -293q0 -40 1 -79q33 142 129 407t162 371q92 -28 147 -50.5t73.5 -38t14.5 -28.5q-25 -83 -45 -289q-15 -158 -15 -293q0 -40 1 -79q34 153 137 430t166 362 q7 2 18 3t40 -6.5t53 -28.5q-102 -94 -216 -399t-157 -597q-7 -12 -33 -13.5t-55 6t-56 24.5t-36 39q-43 106 -61 298q-12 129 -12 261q0 64 3 129q-71 -160 -130.5 -361t-86.5 -383q-7 -12 -32.5 -13.5t-55 6t-56.5 24.5t-36 39q-58 150 -69 444z" />
<glyph unicode="x" horiz-adv-x="720" d="M6 96q124 162 225 334q-133 196 -191 376q-40 124 -40 189q0 28 8 45q20 4 51 -2t51 -14l21 -8q-6 -27 -6 -60q-1 -64 23 -149q36 -128 133 -289q131 253 180 475q4 19 40 19q62 0 220 -56q-44 -141 -128.5 -308t-186.5 -322q20 -23 53 -58.5t115.5 -111t140.5 -109.5 l-47 -37q-168 106 -303 252q-124 -180 -215 -256q-19 -16 -55 6.5t-63 53.5z" />
<glyph unicode="y" horiz-adv-x="788" d="M3 420q-2 41 -2 84q0 260 79 559q88 -27 140.5 -50t69 -38.5t13.5 -28.5q-49 -177 -67 -362q-11 -105 -11 -187q0 -61 6 -109q13 -103 46 -103q3 0 6 1q37 10 82.5 144t78.5 314.5t39 324.5q0 6 11 6q15 0 50 -10q61 -17 122 -43q59 -25 59 -35q0 -27 -9 -167 q-6 -80 -18.5 -207.5t-28.5 -237t-42 -236t-57.5 -224t-76.5 -182t-98 -127.5q-74 -60 -150 -60q-29 0 -58 8q-79 23 -118 95q-22 41 -22 82q0 45 26 90q66 119 283 173q47 173 80 432q-83 -275 -192 -331q-25 -13 -49 -13q-52 0 -98 65q-82 118 -94 373zM119 -377 q1 -17 8 -29q20 -17 51.5 -16.5t78 66.5t81.5 182q-48 -15 -87 -35.5t-63.5 -42t-41 -44t-22.5 -43.5t-5 -38z" />
<glyph unicode="z" horiz-adv-x="702" d="M4 1076q10 70 51 136l183 -102q-40 -101 -40 -163q0 -58 35 -82q21 -14 47 -14q32 0 74 20q66 32 91 82q6 13 8 26q35 -9 104 -59q50 -37 50 -57q0 -8 -7 -13l-136 -209q-54 -87 -54 -97l214 -288q58 -126 58 -278q0 -27 -2 -54q-11 -98 -54.5 -185t-102.5 -143t-129 -84 q-49 -19 -95 -20q-20 0 -39 4q-76 14 -116 88q-26 48 -26 98q0 39 15 79q45 120 205 179q49 18 108 29q-1 55 -17 106.5t-40 90t-53 72t-57.5 57t-52.5 40.5t-38 26t-14 10q14 50 113.5 211.5t124.5 228.5q-68 -45 -136 -53q-18 -2 -34 -2q-47 0 -85 16q-52 22 -91.5 69 t-55.5 106q-10 36 -10 77q0 25 4 52zM438 -106z" />
<glyph unicode="{" horiz-adv-x="700" d="M1.5 635q0.5 29 12.5 31q21 1 72.5 -1.5t89.5 1t64 18.5q53 30 78 81t29.5 116.5t5.5 135.5t17 156.5t54 159.5q24 46 81.5 73.5t129 34t120.5 6t93 -4.5l2 -23q-8 0 -22 -0.5t-52.5 -6.5t-71.5 -17.5t-67.5 -37.5t-52.5 -63q-38 -82 -51 -180.5t-14 -170.5t-14 -140 t-64.5 -113t-153.5 -65q133 -52 151 -133q21 -80 15 -152.5t-17.5 -140.5t-26.5 -127t-12.5 -111.5t24.5 -94.5t84.5 -76t166.5 -56q-1 1 -7 -6t-13.5 -14.5t-10.5 -6.5q-23 5 -75 17t-54 12q-92 23 -152 53t-87.5 65t-38 77t-3.5 88.5t16.5 99.5t22 110.5t13 121 t-10.5 130.5q-11 58 -57 97q-22 19 -47 27t-40.5 8.5t-54.5 -3t-55 -4.5q-17 0 -16.5 29z" />
<glyph unicode="}" horiz-adv-x="886" d="M0 -260q107 2 175 23.5t99 60.5t42 87t11 112.5t-1 128t12 142t45 146.5q40 81 176 105q-69 27 -109.5 63t-54 78.5t-13 88.5t10 103.5t18.5 113.5t8.5 127t-16.5 136q-9 39 -36.5 71t-60.5 49.5t-64.5 29.5t-52.5 16l-21 4l6 23q36 -3 70 -8t91.5 -19t101.5 -32.5 t82 -50.5t50 -72q19 -67 20.5 -141t-8.5 -132t-19 -119t-12.5 -108.5t13 -92.5t55.5 -77q23 -20 59.5 -30t86.5 -16.5t72 -12.5q7 -2 7.5 -17t-6 -28.5t-18.5 -10.5q-19 4 -53.5 13t-51 11.5t-42 -1.5t-51.5 -19q-53 -29 -76 -82q-28 -67 -39.5 -144t-10 -138t0.5 -123 t-13.5 -108.5t-45.5 -85t-102 -61.5t-177 -30q-14 0 -131 -6q-4 0 -10.5 8.5t-11 16.5t-5.5 8z" />
<glyph unicode="&#xad;" d="M0 584l27 86q119 -9 210.5 1t243.5 40q7 2 10.5 2.5t8.5 1.5l10 2l22 -113q-291 -9 -532 -20z" />
<glyph unicode="&#x2000;" horiz-adv-x="1121" />
<glyph unicode="&#x2001;" horiz-adv-x="2243" />
<glyph unicode="&#x2002;" horiz-adv-x="1121" />
<glyph unicode="&#x2003;" horiz-adv-x="2243" />
<glyph unicode="&#x2004;" horiz-adv-x="747" />
<glyph unicode="&#x2005;" horiz-adv-x="560" />
<glyph unicode="&#x2006;" horiz-adv-x="373" />
<glyph unicode="&#x2007;" horiz-adv-x="373" />
<glyph unicode="&#x2008;" horiz-adv-x="280" />
<glyph unicode="&#x2009;" horiz-adv-x="448" />
<glyph unicode="&#x200a;" horiz-adv-x="124" />
<glyph unicode="&#x2010;" d="M0 584l27 86q119 -9 210.5 1t243.5 40q7 2 10.5 2.5t8.5 1.5l10 2l22 -113q-291 -9 -532 -20z" />
<glyph unicode="&#x2011;" d="M0 584l27 86q119 -9 210.5 1t243.5 40q7 2 10.5 2.5t8.5 1.5l10 2l22 -113q-291 -9 -532 -20z" />
<glyph unicode="&#x2012;" d="M0 584l27 86q119 -9 210.5 1t243.5 40q7 2 10.5 2.5t8.5 1.5l10 2l22 -113q-291 -9 -532 -20z" />
<glyph unicode="&#x2013;" horiz-adv-x="1118" d="M0 584l52 86q229 -9 405 1t469 40q13 2 20 2.5t16.5 1.5t19.5 2l42 -113q-560 -9 -1024 -20z" />
<glyph unicode="&#x2014;" horiz-adv-x="2142" d="M0 584l104 86q458 -9 810.5 1t937.5 40q27 2 40.5 2.5t32.5 1.5l38 2l85 -113q-1120 -9 -2048 -20z" />
<glyph unicode="&#x202f;" horiz-adv-x="448" />
<glyph unicode="&#x205f;" horiz-adv-x="560" />
<glyph unicode="&#x25fc;" horiz-adv-x="1044" d="M0 0v1044h1044v-1044h-1044z" />
<glyph horiz-adv-x="1900" d="M2.5 356.5q-6.5 93.5 11 192.5t50.5 188.5t91 163t132 111.5q80 45 162.5 36t134.5 -77q1 -2 3 -5t3 -5q4 14 12 41t12 42q89 -27 141 -49.5t69 -38.5t14 -30q-63 -270 -73 -420q-28 -450 292 -457q84 2 174 49.5t167.5 124t139 180t93.5 213t25 228t-61 219.5 q164 -52 212 -210q48 -155 -30 -350q-79 -196 -246 -333q-213 -175 -476 -170q-172 3 -283.5 65t-196.5 214q-63 -135 -157.5 -210.5t-214.5 -62.5q-60 6 -105 55t-67 125.5t-28.5 170zM254 343.5q10 -94.5 51 -114.5q90 -44 159 88q64 119 79 300q14 171 -29 239 q-27 42 -70 25q-66 -27 -115.5 -126t-67 -208t-7.5 -203.5z" />
<glyph horiz-adv-x="2371" d="M2.5 356.5q-6.5 93.5 11 192.5t50.5 188.5t91 163t132 111.5q80 44 162.5 35.5t134.5 -76.5q1 -2 3 -5t3 -5q4 14 12 41t12 42q89 -29 140.5 -51t69 -37.5t14.5 -29.5q-146 -609 4 -762q4 -4 4 -6q82 -75 237 -27h2q47 18 121 52.5t137 65.5t146 63.5t155.5 52t158 23 t161 -14.5t156 -68.5t151.5 -132.5q62 -72 -35 -305q-207 359 -479 396q-155 21 -379 -64q-29 -12 -182 -76q-155 -72 -272 -84h-9q-2 -2 -8 -2h-10q-122 -6 -200 55t-122 184q-63 -134 -157.5 -208.5t-214.5 -61.5q-60 6 -105 55t-67 125.5t-28.5 170zM254 343.5 q10 -94.5 51 -114.5q89 -44 159 87q63 118 79 299q14 171 -29 240q-26 42 -70 24q-66 -26 -115.5 -125t-67 -207.5t-7.5 -203z" />
<glyph horiz-adv-x="876" d="M-1810 1012q29 117 123 210t214.5 140.5t241.5 46.5q125 -1 282 -30t300 -68.5t281.5 -78t263.5 -59.5t208 -10q21 84 60 199q38 92 78 156q107 166 246 182q104 13 180 -59q74 -69 71 -168q-3 -129 -136 -225q-97 -70 -251 -111v-2q-33 -115 -49 -209q57 76 121 110 q82 38 155.5 13.5t131.5 -99.5q54 -69 75 -166t11.5 -197t-42 -201.5t-80 -183t-108 -138t-121.5 -68.5q-74 -17 -133 -8.5t-105.5 30.5t-81 62t-59 87.5t-39.5 106t-22.5 118t-8.5 123.5t3 121.5t12 113.5q18 126 76 354q-135 0 -310.5 22.5t-318.5 49.5t-316.5 42.5 t-322.5 9t-315.5 -59.5t-314.5 -156zM256 241q26 -76 92 -75q36 1 78 62.5t73.5 155t50 193t10 188.5t-47.5 130q-55 58 -127 -46q-73 -106 -117 -292q-49 -207 -12 -316zM371 1194q20 60 42 110t42.5 85.5t42 62t40.5 41t36.5 22t32 6.5t26.5 -8q21 -13 28 -42t-6 -67.5 t-43.5 -77.5t-93.5 -75t-147 -57z" />
<glyph horiz-adv-x="876" d="M-105 1575.5q3 110.5 46 224t117.5 204t175 153.5t206.5 77q145 19 274.5 -25t217 -132t130 -217.5t21.5 -274.5q-236 399 -508 480q-197 59 -370 -58q-134 -91 -203 -252q-73 -170 -33 -323q37 -135 156 -207q31 97 57 159q104 240 257 306q112 48 210 -10 q81 -47 105 -136q30 -113 -52 -214q-101 -124 -340 -177q-30 -98 -61 -227q58 77 123 110q81 38 154 13.5t133 -99.5q63 -82 81 -203t-7.5 -242.5t-74.5 -232t-120.5 -186t-143.5 -90.5q-66 -12 -121 -9.5t-99 22.5t-78.5 49t-60 71.5t-43 89t-28 101t-16 108.5t-5 111.5 t4 109t10.5 101.5q33 212 99 428q-109 74 -163 180.5t-51 217zM254 241q26 -76 92 -75q36 1 78 62.5t74 155t51 193t10.5 188.5t-47.5 130q-56 59 -129 -47q-74 -106 -117 -293q-48 -205 -12 -314zM381 1210q81 16 143.5 46.5t95.5 65t49.5 71t15 66t-16.5 48.5 q-13 17 -34 20.5t-49.5 -10t-59 -44.5t-65.5 -91.5t-67 -142.5z" />
<glyph horiz-adv-x="1978" d="M5.5 327q-5.5 71 0 145.5t29.5 150t58.5 143t86.5 126t115 97.5q86 54 186.5 55.5t180.5 -45.5l-121 -196q-66 15 -125.5 -18t-100 -95.5t-66 -144t-29 -161t18 -149.5t68.5 -106q56 -43 153.5 -46t212 23t245 64t264.5 71.5t257.5 50t237.5 -5.5t191 -89q29 -26 44 -62 t17.5 -62.5t3 -81t2.5 -79.5q-91 89 -196 144t-206 75t-213.5 20t-214.5 -17.5t-213 -41t-205.5 -47t-196.5 -39t-181 -14.5q-67 0 -122.5 25.5t-91.5 71.5t-60 106.5t-29.5 131.5z" />
<glyph horiz-adv-x="1091" d="M-1268 1090q34 116 131.5 205t219.5 131.5t243 37.5q125 -5 281 -41t297 -81.5t277 -89.5t260 -70t208 -19q41 129 70 197q37 87 82 151v2q114 161 254 172q104 8 177 -66q71 -72 65 -172q-8 -126 -143 -217q-100 -67 -257 -102q-56 -171 -100 -434q-26 -157 -27 -273.5 t26 -196.5t83 -113t147 -18t215 83l19 -45q-133 -79 -246.5 -106.5t-198 -6t-144 81.5t-93.5 156q-62 -136 -159 -212.5t-218 -63.5q-60 6 -104.5 55t-66 125.5t-28 169.5t11 192.5t50.5 188.5t91 162.5t132 111.5q80 44 162 35.5t135 -76.5q0 -2 4 -6q5 25 12.5 53.5 t16.5 62t14 52.5q-134 6 -309 36t-317 62.5t-314.5 55t-321 21.5t-317 -47.5t-320.5 -143.5zM254 317.5q10 -94.5 51 -114.5q88 -44 159 86q64 118 80 298q16 172 -28 241q-27 42 -72 24q-66 -26 -115.5 -124.5t-67 -207t-7.5 -203zM918 1184q82 17 144 48.5t95 67t49 72.5 t13 66.5t-19 46.5q-15 15 -36.5 17t-50.5 -15t-59.5 -51.5t-66.5 -99.5t-69 -152z" />
<glyph horiz-adv-x="1093" d="M2.5 330q-6.5 93 11 192.5t50.5 188.5t91 162.5t132 111.5q80 44 162.5 35.5t134.5 -76.5q4 -4 4 -6q21 86 45 168l16 55q-102 75 -150 181.5t-42.5 215t50.5 219.5t119 199t173.5 149.5t204.5 74.5q145 19 274.5 -24.5t217 -131.5t130 -218t21.5 -276q-235 399 -506 481 q-197 60 -371 -56q-135 -91 -205 -252q-74 -170 -34 -323q32 -122 133 -194q23 71 55 154q46 101 84 151v2q113 161 253 172q104 8 177 -66q71 -72 65 -172q-8 -127 -144 -217q-100 -67 -257 -102q-56 -171 -100 -434q-25 -157 -25.5 -273.5t26.5 -196.5t83 -113t147 -18 t215 83l19 -45q-133 -79 -246.5 -106.5t-198 -6t-145 81.5t-94.5 156q-63 -136 -158.5 -212.5t-216.5 -63.5q-60 6 -105 55t-67 125.5t-28.5 169.5zM254 317.5q10 -94.5 51 -114.5q89 -44 160 86q64 118 80 298q15 171 -28 240q-27 43 -73 25q-66 -26 -115.5 -124.5 t-67 -207t-7.5 -203zM918 1184q66 14 120 37.5t87.5 50.5t56.5 57t31 58t6.5 52t-13.5 40q-13 18 -34 22t-50.5 -11t-61.5 -49t-69.5 -100.5t-72.5 -156.5z" />
<glyph horiz-adv-x="1988" d="M3 467q6 115 41.5 220.5t107 195t167.5 133.5q136 63 243 28q90 -29 109 -115q28 -127 -115 -307q-108 -137 -304 -282q-1 -118 28 -192.5t82 -88.5q58 -16 164.5 3.5t226 59t262.5 83t274.5 74.5t262.5 34t226 -39q45 -20 79 -60.5t52.5 -91.5t27 -102.5t9.5 -103.5 q-109 106 -243 164.5t-268.5 69t-273 -1.5t-271.5 -42t-247 -58t-216.5 -43t-164.5 -3q-89 17 -151 87.5t-88 166.5t-20 211zM256 426q60 55 109 105.5t82.5 90.5t58 74.5t37 60t18 45t2.5 31t-12 17.5q-17 9 -48.5 -4t-70 -48.5t-75 -86t-64.5 -126t-37 -159.5z" />
<glyph horiz-adv-x="819" d="M13 -387q-36 92 30 178q76 99 266 146q56 216 86 538q-107 -10 -130 -4q-25 7 -39 41q-1 2 -27 76q9 -5 25.5 -12t69 -20t107.5 -15q2 21 4.5 79.5t5.5 115t11 131.5t19 138.5t32 126.5t48.5 105t69.5 64.5t93 13.5q91 -15 128.5 -98t24 -195.5t-57.5 -235t-109 -223.5 q33 7 147 39q0 -43 -12 -47q-83 -30 -170 -53q-28 -286 -84 -543q154 10 329.5 -5.5t309.5 -41.5t316.5 -59t310.5 -48q282 -39 553.5 -2.5t533.5 158.5q-46 -90 -106 -159t-121 -111.5t-136 -69.5t-139.5 -38t-144 -12t-137 4t-129.5 15q-144 21 -357 78t-385 108.5 t-371 89.5t-341 32q-76 -284 -227 -374q-99 -59 -195 -17q-74 33 -102 106zM72 -331q1 -17 8 -29q19 -33 60 -16q69 29 127 177q13 32 24 68q-48 -15 -86.5 -35.5t-63 -41.5t-41 -43.5t-23 -42.5t-5.5 -37zM643 596q75 125 109 275t29 241t-29 84q-14 -4 -27.5 -33.5 t-23.5 -79t-18.5 -103t-15.5 -119t-11 -111t-8 -96t-5 -58.5z" />
<glyph horiz-adv-x="823" d="M-328 -494q204 -228 465 -224q188 3 347 119q124 92 167 206q47 122 -31 199q-35 35 -94 55q-81 -262 -228 -340q-100 -52 -193 -6q-72 36 -96 111q-30 96 44 180q79 91 256 135q55 211 86 536h-1h-1h-1h-1h-1q-104 -9 -127 -2q-24 8 -39 45q-4 11 -14 40q-7 20 -11 32 q81 -43 202 -47q2 21 4.5 79.5t5.5 114.5t11 131t19 138.5t32 126.5t48.5 105.5t69.5 64.5t93 14q91 -15 128.5 -97.5t24.5 -195t-57 -234.5t-108 -223q91 21 145 39q4 -44 -12 -49q-99 -32 -170 -51q-34 -335 -92 -588q-1 -2 -2 -6t-2 -6q161 -50 182 -196 q19 -135 -82 -298q-96 -154 -247 -248q-195 -122 -379 -77q-33 8 -64 22q-107 46 -187 152t-90 243zM72.5 -334q2.5 -21 15.5 -33q12 -8 28 -11t38.5 13t44.5 42.5t46.5 77.5t45.5 118q-61 -19 -106.5 -47t-69 -56t-34.5 -55.5t-8.5 -48.5zM643 602q75 125 109 274.5t29 240 t-29 83.5q-14 -4 -27.5 -33.5t-23.5 -79t-18.5 -102.5t-15.5 -118t-11 -111t-8 -96t-5 -58z" />
<glyph horiz-adv-x="886" d="M2.5 352.5q-6.5 93.5 11 192.5t50.5 188.5t91 163t132 111.5q78 43 157.5 36t133.5 -69q0 45 2 63q54 -11 93 -20.5t75.5 -20t55 -21t17.5 -20.5q-7 -147 -38.5 -461.5t-80.5 -541.5q120 10 243.5 7.5t236 -18t231 -34.5t229 -42.5t229 -41t231.5 -30t237.5 -10.5 t245.5 17.5t255.5 55.5t268.5 102q-50 -98 -117.5 -170.5t-133 -115.5t-153 -66.5t-152 -31.5t-157 -3t-142 11.5t-132.5 19.5q-141 21 -309 64.5t-307.5 85.5t-281.5 80.5t-280 56t-254 4.5q-76 -298 -230 -392q-100 -62 -197 -20q-74 32 -103 104q-36 92 29 177 q76 101 268 149q29 127 47 240q-129 -170 -301 -150q-60 6 -105 55t-67 125.5t-28.5 170zM217.5 -358.5q1.5 -21.5 13.5 -34.5q11 -12 28 -13.5t39 11.5t45 40t48.5 78.5t46.5 120.5q-60 -19 -105 -46t-69 -54t-36 -54t-10.5 -48.5zM254 339.5q10 -94.5 51 -114.5 q87 -43 159 84q66 117 85 296q17 171 -26 242q-29 47 -79 27q-66 -26 -115.5 -124.5t-67 -207t-7.5 -203z" />
<glyph horiz-adv-x="886" d="M-143 -502q204 -227 465 -223q187 3 346 119q124 91 168 204q47 123 -30 200q-44 44 -126 65q-77 -277 -226 -364q-101 -59 -196 -16q-74 34 -101 107q-34 93 34 179q77 97 264 143q23 90 47 240q-129 -170 -301 -150q-60 6 -104.5 55t-66 125.5t-28 170t11 192.5 t50.5 188.5t91 163t132 111.5q76 43 156 36t132 -69q3 35 3 63q54 -11 94 -20.5t75.5 -20t54 -21t17.5 -20.5q-29 -612 -127 -1046q176 -40 209 -182q30 -130 -63 -295q-89 -156 -238 -258q-189 -128 -374 -98q-48 8 -93 28q-105 46 -185 152t-91 241zM215.5 -358.5 q1.5 -21.5 13.5 -34.5q12 -12 28.5 -13.5t39 12t45.5 40.5t48 78.5t46 119.5q-60 -19 -105 -46t-69 -54t-36 -54t-10.5 -48.5zM254 339.5q10 -94.5 51 -114.5q88 -43 160 86q65 117 83 295q17 171 -26 242q-29 46 -78 26q-66 -26 -115.5 -124.5t-67 -207t-7.5 -203z" />
<glyph horiz-adv-x="995" d="M-79 1575.5q3 110.5 46.5 223.5t117.5 203.5t175 153.5t207 76q145 19 274.5 -24.5t217.5 -131.5t130.5 -217.5t20.5 -275.5q-235 400 -507 482q-197 58 -369 -58q-135 -91 -205 -252q-73 -170 -33 -323q37 -135 156 -207q18 58 57 159q104 240 258 306q112 48 210 -10 q80 -47 104 -138q29 -113 -53 -213q-102 -123 -341 -176q-64 -194 -117.5 -464t-66.5 -439q32 96 75.5 209t97.5 239t106.5 209t86.5 84q40 2 105 -24t61 -43q-39 -166 -56 -298.5t-12.5 -236.5t35.5 -169t87.5 -92.5t144.5 -10t205 81.5l18 -45q-152 -90 -272.5 -116.5 t-191.5 3t-125 87t-72 137.5t-33.5 153.5t-9 135t1.5 81.5v10q-19 -31 -39.5 -74t-35.5 -79.5t-39 -104.5t-36.5 -106t-43 -131t-44.5 -136q-11 -13 -37.5 -14.5t-54.5 6t-52 25t-30 39.5q-32 113 -37.5 256t12.5 290.5t48 287t71 274.5q-110 74 -164.5 180.5t-51.5 217z M408 1210q81 16 143 46.5t95 65t50 71t15 66t-17 48.5q-14 17 -35 20.5t-49.5 -10.5t-59 -45t-65 -91t-65.5 -142q-10 -25 -12 -29z" />
<glyph horiz-adv-x="997" d="M-1774 1114q34 116 131.5 205.5t219.5 132t243 37.5q125 -5 281 -41t297 -81.5t277 -89.5t260 -70t208 -19q40 125 70 196q104 240 258 306q112 48 210 -10q80 -47 104 -138q29 -113 -53 -213q-102 -123 -341 -176q-64 -190 -117.5 -459.5t-68.5 -443.5q34 99 76.5 209.5 t97.5 238t107.5 210t86.5 83.5q39 2 104.5 -24t61.5 -43q-34 -142 -52 -259.5t-19.5 -214.5t15 -167t53 -112.5t92.5 -55t135 8t180 75.5l18 -45q-122 -72 -224 -102.5t-172 -26t-124.5 42t-86.5 82t-53.5 114.5t-30.5 120.5t-11.5 118t-2 89t2.5 50.5v3q-19 -31 -39.5 -74 t-35.5 -79.5t-39 -104.5t-36.5 -106t-43 -131t-44.5 -136q-11 -12 -37 -13.5t-54 6t-52.5 24.5t-30.5 39q-30 108 -36.5 243t8.5 275.5t41.5 275t64.5 266.5q-134 6 -309 36t-317 62.5t-314.5 55t-321 21.5t-317 -47.5t-320.5 -143.5zM412 1210q80 16 141 46t94 64 t50.5 70.5t16.5 66t-16 48.5q-13 17 -34.5 20.5t-50.5 -12t-61 -49.5t-69 -99.5t-71 -154.5z" />
<glyph horiz-adv-x="1292" d="M1.5 528.5q0.5 -221.5 80.5 -356.5q39 -64 103 -104.5t141.5 -54t149 -13.5t149.5 10q245 32 432 218q153 153 210 349q56 196 -14 335q-58 113 -190 155q53 -101 60 -219.5t-25.5 -227.5t-94 -213t-139.5 -180.5t-168 -123.5t-174 -48q-214 3 -274 215q-43 210 59 631 q3 14 -14 29.5t-68.5 38t-140.5 51.5q-83 -270 -82.5 -491.5zM166 1207.5q-3 46.5 5.5 89.5t18.5 78t20 56l9 21q52 -16 92.5 -35.5t62 -37t34.5 -34.5t16.5 -28.5t1.5 -20.5q-12 -53 -48.5 -172t-39.5 -131q-61 16 -100.5 50.5t-54 76t-17.5 88z" />
<glyph horiz-adv-x="1757" d="M11.5 372.5q-38.5 271.5 72.5 631.5q89 -29 140.5 -51.5t68.5 -38t14 -29.5q-170 -714 62 -801q24 -9 51 -10.5t61.5 6.5t61 15.5t71.5 27t70.5 31.5t78.5 37q85 41 131 61.5t132 52.5t143 41t139 10.5t146.5 -21.5t138.5 -71.5t140 -124.5q61 -70 -37 -305 q-203 353 -454 397q-148 27 -358 -55q-18 -7 -207 -90q-185 -80 -294 -86q-84 -5 -156 25q-177 76 -215.5 347.5zM166 1191.5q-3 46.5 5.5 89.5t18.5 78t20 56l9 21q52 -16 92.5 -35.5t62 -37t34.5 -34.5t16.5 -28.5t1.5 -20.5q-12 -53 -48.5 -172t-39.5 -131 q-61 16 -100.5 50.5t-54 76t-17.5 88z" />
<glyph horiz-adv-x="727" d="M11 -384q-34 93 33 179q77 98 265 144q54 211 85.5 528t31.5 514q123 -27 183.5 -45.5t60.5 -36.5q-28 -526 -119 -940q158 12 337.5 -2.5t315.5 -40.5t323 -60t316 -49q97 -13 185 -16q229 -13 450 25t453 147q-46 -90 -106.5 -159t-122 -111.5t-136.5 -69.5t-140 -38 t-144 -12t-136 4t-129 15q-15 2 -39.5 6.5t-35.5 6.5q-27 3 -97 16q-149 29 -349.5 85.5t-344 100t-313 73t-301.5 18.5q-77 -283 -228 -373q-100 -59 -196 -16q-74 34 -102 107zM72.5 -338.5q3.5 -21.5 17.5 -32.5q12 -7 28 -9t38.5 14.5t44.5 43t46 77t44 116.5 q-62 -20 -108 -48.5t-69.5 -56.5t-34 -55.5t-7 -49zM469 1295q3 44 8 80.5t11 58.5l6 22q55 -9 97.5 -23t66.5 -28t39 -29t20 -26.5t4 -20.5q-4 -48 -22.5 -159.5t-22.5 -151.5q-63 8 -106.5 36t-64 67t-30 84.5t-6.5 89.5z" />
<glyph horiz-adv-x="729" d="M-313 -498q204 -226 464 -223q188 2 346 118q125 90 168 204q47 122 -29 199q-40 40 -110 61q-80 -264 -228 -343q-99 -54 -192 -8q-73 36 -97 111q-31 94 42 179q78 92 258 137q54 209 84.5 523t32.5 519q40 -9 64.5 -14.5t56.5 -13.5t50.5 -14t37 -13t26 -13.5 t7.5 -13.5q-27 -602 -129 -989q165 -44 193 -185q27 -132 -70 -296q-90 -155 -240 -254q-192 -126 -376 -90q-43 9 -83 26q-107 44 -186.5 150t-89.5 243zM70.5 -332.5q1.5 -21.5 13.5 -34.5q10 -13 27 -15t39 11t45.5 40t49 79t46.5 121q-60 -19 -105 -45.5t-69 -53.5 t-36 -54t-10.5 -48.5zM469 1293q3 44 8 80.5t11 58.5l6 22q67 -12 115 -29.5t70 -36.5t31.5 -34t8.5 -27q-5 -52 -23.5 -169t-21.5 -142q-62 8 -105.5 36t-63.5 67t-29.5 84.5t-6.5 89.5z" />
<glyph horiz-adv-x="821" d="M-1784 1114q34 117 131.5 207t219.5 132t243 36q152 -7 356 -59t365.5 -108.5t332 -98.5t271.5 -33q45 137 68 196q105 242 261 306q112 46 210 -13q81 -49 103 -140q28 -114 -57 -214q-103 -120 -337 -172q-69 -207 -122.5 -454.5t-70.5 -448.5q49 142 108 292t138 299 t123 150q31 1 61.5 -0.5t34.5 -1.5q-15 -17 -39.5 -47t-81 -116t-90.5 -164q-3 -55 -2.5 -111t13 -109t29.5 -102t46 -89.5t64.5 -71.5t84.5 -48t104.5 -19.5t125.5 14.5t148 54l10 -26q-98 -58 -186 -90t-156.5 -39t-128 6t-103 39.5t-80 67.5t-61 83.5t-43.5 93.5 q-51 -142 -102 -301q6 -12 -14 -14q-41 -6 -101 20q-51 21 -59 50q-28 100 -31.5 241.5t13.5 287.5t43 281.5t59 249.5q-134 6 -309 36t-317.5 63t-315 55.5t-321.5 21.5t-317.5 -48t-320.5 -144zM403 1210q65 13 118 36t86.5 49.5t56.5 56t31.5 57t7.5 51.5t-11 41 q-24 39 -75 19q-83 -32 -165 -197q-25 -51 -49 -113z" />
<glyph horiz-adv-x="817" d="M-24 1601.5q9 106.5 55 214t119.5 193t170.5 144t199 71.5q145 19 274.5 -24.5t217.5 -131.5t130.5 -217.5t20.5 -275.5q-235 400 -507 481q-197 59 -369 -57q-135 -91 -204 -252q-74 -170 -33 -322q27 -104 106 -172q13 45 47 131q104 240 258 306q112 48 210 -10 q80 -47 104 -138q29 -113 -53 -213q-102 -123 -341 -176q-69 -209 -123 -457t-68 -446q34 100 76.5 209.5t97.5 237.5t107 210.5t86 83.5q31 1 62 -0.5t36 -1.5q-15 -17 -40 -47.5t-82 -116.5t-91 -163q-6 -72 1.5 -145t29.5 -141.5t56.5 -126t86.5 -95.5t114.5 -52t146 6 t176.5 76l12 -30q-136 -80 -251.5 -110.5t-195 -18t-144 57.5t-102 101.5t-65.5 128.5q-57 -159 -102 -299q-32 -26 -96 -7t-76 63q-43 141 -35 342.5t45 402t96 391.5q-91 78 -131.5 183.5t-31.5 212zM401 1210q80 16 141 46t94.5 64t50.5 70.5t16.5 66t-15.5 48.5 q-13 17 -34.5 20.5t-51 -12t-61.5 -49.5t-69 -99.5t-71 -154.5z" />
<glyph horiz-adv-x="2205" d="M7.5 513q20.5 291 88.5 515q89 -27 141.5 -50t69.5 -38.5t12 -28.5q-35 -84 -77.5 -289.5t-55.5 -371.5q49 142 108 292t138 299t123 150q39 2 104 -24t62 -43q-86 -359 -68 -562q51 143 106 274.5t119.5 242.5t102.5 112q39 2 104 -24t62 -43q-13 -56 -22.5 -98 t-22.5 -114.5t-18.5 -128t-7 -128t7 -126t28.5 -109t53 -91.5t85.5 -59.5t121.5 -24.5q84 1 174 48.5t168 124t139 180.5t93.5 213.5t25.5 228t-61 219.5q164 -52 212 -210q47 -155 -31 -350q-78 -197 -245 -333q-214 -175 -477 -170q-147 2 -230.5 23t-150.5 96 q-43 46 -70.5 110.5t-38.5 146.5t-13.5 136t-2.5 137q-34 -56 -61.5 -117t-42.5 -104t-38.5 -117t-39.5 -119q-2 -6 -7 -19q-10 -27 -15.5 -40t-16 -29.5t-20.5 -18t-26 6t-36 29.5q-24 27 -43 61t-32 70.5t-22.5 74t-14.5 76t-8 71.5t-3.5 65t-0.5 52.5t1 38.5v19 q-19 -31 -39 -74.5t-34.5 -78.5t-39.5 -105.5t-36.5 -105t-43.5 -132t-44 -135.5q-23 -15 -58.5 -14.5t-70.5 21t-43 49.5q-42 152 -21.5 443z" />
<glyph horiz-adv-x="2658" d="M6 513.5q20 292.5 88 514.5q89 -27 142 -50t70 -38.5t13 -28.5q-35 -82 -77.5 -287.5t-55.5 -373.5q34 100 76.5 209.5t97.5 237.5t107 210.5t86 83.5q40 2 105.5 -24t62.5 -43q-85 -356 -70 -562q54 148 107.5 276t118.5 240t104 113q39 2 104 -24t62 -43 q-110 -460 -47 -671q62 -207 289 -124q47 17 120.5 51.5t136 66t145.5 63.5t155.5 51.5t158 23.5t161 -14t156.5 -68.5t152 -132.5q61 -73 -37 -305q-53 91 -111 160.5t-107 116.5t-115.5 72t-109 41t-116.5 8.5t-108.5 -10.5t-114.5 -31t-105 -38t-109 -46 q-86 -36 -131.5 -53.5t-114 -37t-123 -17.5t-103.5 23q-48 24 -85 63.5t-58.5 92t-35 103.5t-19 117t-7 111t-0.5 105q-34 -56 -62 -117t-42.5 -103.5t-38 -116t-39.5 -118.5q-27 -76 -38 -91q-30 -41 -83 18q-24 27 -43.5 61t-32.5 70.5t-22.5 74t-14.5 75.5t-8 71.5 t-3.5 65.5t-0.5 53t1 38.5t1 18.5q-23 -37 -44 -81.5t-48 -118.5t-41 -114.5t-52 -157.5t-52 -159q-23 -15 -58.5 -14.5t-70.5 21t-43 49.5q-43 151 -23 443.5z" />
<glyph horiz-adv-x="1781" d="M7.5 514q20.5 292 88.5 516q90 -28 142.5 -51.5t69 -39t11.5 -28.5q-34 -80 -76.5 -285.5t-56.5 -375.5q49 142 108 292t138 299t123 150q40 1 105.5 -24.5t60.5 -40.5q-116 -498 -37 -703q66 -173 260 -176q84 1 174 48t168 123.5t140 180.5t94.5 213t25.5 227.5 t-61 219.5q164 -52 211 -210q47 -155 -31 -350q-79 -196 -245 -333q-175 -143 -388 -166q-147 -16 -252.5 4.5t-172 69.5t-104.5 136t-51.5 189.5t-11.5 245.5q-23 -37 -44 -81.5t-48 -118.5t-41 -114.5t-52 -157.5t-52 -159q-5 -13 -30.5 -14.5t-55 6t-56 25t-32.5 39.5 q-42 152 -21.5 444z" />
<glyph horiz-adv-x="2244" d="M7.5 514q20.5 292 88.5 516q89 -29 141.5 -52t69.5 -38.5t12 -28.5q-35 -82 -77.5 -287.5t-55.5 -373.5q49 142 108 292t138 299t123 150q38 2 104 -24t62 -41q-136 -579 -11 -753q77 -109 253 -44q47 17 121 51.5t137 66t146 63.5t155.5 51.5t157.5 23.5t160.5 -14 t156 -68.5t151.5 -132.5q63 -72 -37 -305q-53 91 -109 161t-110 115t-112 73.5t-112 39.5t-112.5 10t-112 -11.5t-111 -29.5t-108.5 -39.5t-107 -44.5q-69 -30 -104.5 -44t-95.5 -34t-99.5 -25t-87 -2.5t-87.5 19.5q-49 24 -86 69.5t-58.5 95t-35.5 111t-19 110t-6 99.5 t0 72t2 35q-23 -37 -44 -81.5t-48 -118.5t-41 -114.5t-52 -157.5t-52 -159q-5 -13 -30.5 -14.5t-55 6t-56 25t-32.5 39.5q-42 152 -21.5 444z" />
<glyph horiz-adv-x="1406" d="M4 340q-12 93 3 193t47.5 191t95 167.5t143.5 118.5q87 48 180.5 44t155.5 -69q42 -49 63 -102q-198 79 -329 -66q-98 -108 -126 -296q-25 -166 19 -278q40 -103 121 -93q54 7 102 45.5t79 92t53.5 116.5t25.5 119t-4 100q-122 4 -149 73q-20 50 17 100q38 51 96 48 q17 -1 34 -8q91 -38 102 -172q517 70 559 534q31 -53 52 -121t19 -145t-42 -121q-62 -69 -181.5 -116.5t-222 -64t-184.5 -16.5q-2 -86 -43 -225q-55 -175 -170 -285.5t-274 -103.5q-68 3 -121 49.5t-81 122t-40 168.5z" />
<glyph horiz-adv-x="1988" d="M4 340q-12 93 3 193t47.5 191t95 167.5t143.5 118.5q87 48 180.5 44t155.5 -69q42 -49 63 -102q-198 79 -329 -66q-98 -108 -126 -296q-25 -166 19 -278q40 -103 121 -93q54 7 102 45.5t79 92t53.5 116.5t25.5 119t-4 100q-123 4 -150 73q-20 50 17 100q38 51 96 48 q18 -1 35 -8q86 -37 100 -152q63 16 154.5 41.5t161.5 46t157.5 42t155.5 33.5t143.5 15t134 -8.5t112.5 -41t93 -77.5q25 -31 39.5 -74t25.5 -99t21 -85q-75 73 -160 123.5t-164.5 78t-174 37t-173 7.5t-178 -17t-172 -30t-171.5 -38q-2 -1 -3 -1q2 -105 -43 -248 q-55 -175 -170 -285.5t-274 -103.5q-68 3 -121 49.5t-81 122t-40 168.5z" />
<glyph horiz-adv-x="929" d="M-2288 -41q113 -90 259 -144t309.5 -69.5t331.5 -12t359 27t355.5 48t357 51t330.5 36.5q-11 290 50 675.5t118 548.5q28 -2 61.5 -8.5t65 -15.5t57 -18.5t39.5 -19.5t11 -18q-10 -23 -25 -73q44 47 90 71q82 38 154.5 13.5t132.5 -99.5q51 -65 73 -156.5t14 -186.5 t-33.5 -192.5t-71 -179.5t-97.5 -142.5t-113.5 -86.5t-117.5 -6q-128 44 -184 182q-4 -19 -20 -148.5t-13 -129.5q168 -77 194 -201q19 -91 -42 -167q-54 -67 -131 -71q-43 -3 -81 19q-112 63 -129 358q-112 -14 -248.5 -44.5t-259 -67t-261 -75.5t-261.5 -72.5t-254 -54.5 t-245 -25.5t-228 18t-209.5 72t-183 141.5t-154.5 223zM188 -154q-27 -214 30 -270q29 -28 63 -2q23 17 35 50t8.5 72t-38.5 80.5t-98 69.5zM312 242q26 -75 91 -74q36 1 78 62t74 154.5t51 193t10.5 189t-47.5 130.5q-56 59 -129 -47t-116 -293q-49 -206 -12 -315z" />
<glyph horiz-adv-x="897" d="M-1872 8q114 -93 263 -148t315.5 -71t338.5 -12.5t365.5 27t362 48.5t361.5 49.5t333 32.5q-15 102 -8 199q-112 -112 -258 -98q-60 6 -104.5 55t-66 125.5t-28 169.5t11 192.5t50.5 188.5t91 162.5t132 111.5q80 44 162 35.5t135 -76.5q27 -37 45 -90q35 103 51 142 q52 -16 92.5 -35.5t62 -37t34.5 -34.5t16.5 -28.5t1.5 -20.5q-15 -56 -55.5 -200.5t-69 -259.5t-45.5 -218q-26 -143 -29 -287q174 -47 213 -146q27 -72 -24 -136q-49 -61 -130 -65q-81 -5 -151 55q-87 75 -121 247q-114 -10 -251.5 -38.5t-262.5 -64.5t-266 -74.5 t-267 -73.5t-259.5 -57t-250.5 -28t-233.5 16t-214 72t-186.5 143.5t-156 227.5zM254 372.5q10 -94.5 51 -114.5q86 -42 157 87q65 118 83 297q18 171 -25 240q-28 45 -76 25q-66 -26 -115.5 -124.5t-67 -207t-7.5 -203zM688 -125q6 -154 69 -185q37 -19 69 13l8 10 q12 19 12.5 41.5t-12.5 46.5t-51 44t-95 30z" />
<glyph horiz-adv-x="733" d="M-1640 -494q40 268 188 314q251 76 535 94.5t556.5 -15.5t534.5 -114q120 -36 134 112q9 98 -36 356q-32 185 -39 247q-7 54 -9 109.5t0.5 123t17 123.5t39 102.5t69 69t103.5 14.5q78 -10 140.5 -49.5t78.5 -107.5q14 -77 4.5 -156.5t-34.5 -161.5t-51.5 -145 t-46.5 -105.5t-20 -44.5q15 -127 13.5 -227.5t-21 -178t-58.5 -120.5t-98.5 -54.5t-142.5 19.5q-224 80 -464.5 110.5t-481 10.5t-476.5 -102.5t-435 -223.5zM493 637q-11 -112 13 -277q41 98 67.5 184.5t35 144t7 99.5t-12 60.5t-25.5 17.5q-26 -2 -50 -59.5t-35 -169.5z " />
<glyph horiz-adv-x="591" d="M0 1061q47 -11 117 -21q60 212 106 340q53 -17 93.5 -36.5t62.5 -36.5t35 -34t16 -29t0 -21q-10 -40 -29 -110t-26 -95q112 -11 219.5 12t193 72.5t156 119t116 149t66.5 166t13 166t-50.5 152.5t-117.5 123q-9 6 9 9q53 8 143 -17q166 -48 222 -167q28 -58 25 -130 q-3 -65 -31 -137.5t-79.5 -145t-120.5 -141.5t-158 -127t-186.5 -100t-211.5 -62.5t-229 -13.5q-43 -153 -67 -309q-30 -181 -17 -306.5t64 -191.5t154 -60t253 87l19 -45q-266 -153 -435.5 -114t-241.5 219.5t-38 457.5q15 142 57 293l-100 29z" />
<glyph horiz-adv-x="2099" d="M16 304q-47 302 45 698q9 39 19 77q89 -29 140.5 -51t68.5 -37.5t14 -29.5q-49 -177 -67.5 -362t-4.5 -296t52 -102q42 11 93 177t102 393.5t63 266.5q89 -27 141 -49.5t68.5 -37.5t13.5 -29q-56 -235 -68 -342q-40 -352 153 -482q39 -27 89 -45q253 -90 544 -5 q206 60 344 178q115 99 113 182q0 53 -55 84q118 23 176 -36q51 -52 23 -133q-34 -100 -169 -173q-22 -12 -46 -23q-163 -73 -361 -111.5t-401.5 -30t-347.5 73.5q-147 67 -213 191q-60 129 -51 325q-78 -404 -204 -531q-83 -84 -159 -19q-83 71 -115 279z" />
<glyph horiz-adv-x="788" d="M3 418q-15 296 77 645q88 -27 140 -50t69 -38.5t14 -30.5q-49 -177 -67.5 -362t-4.5 -296t52 -102q37 10 82.5 144.5t78.5 315.5t39 325q0 13 61 -4t121.5 -42.5t59.5 -35.5q-24 -516 -117 -938q198 13 409.5 -13t464.5 -75t394 -66q101 -13 184 -16q480 -24 903 172 q-46 -90 -106.5 -159t-121.5 -111.5t-136 -69.5t-139.5 -38t-143.5 -11.5t-136.5 5t-129.5 15.5q-12 2 -37.5 5t-38.5 5q-16 3 -48 8.5t-48 8.5q-147 28 -342.5 83t-337 98t-308 73.5t-296.5 23.5q-77 -285 -229 -374q-100 -59 -196 -16q-74 33 -101 106q-34 93 33 178 q77 98 266 145q38 150 69 398q-83 -274 -191 -330q-81 -42 -147 52q-83 118 -95 372zM130.5 -357.5q5.5 -20.5 21.5 -29.5q13 -5 29.5 -4.5t37.5 18t42 44.5t44 76t43 112q-65 -20 -112 -50t-70 -59.5t-32 -58t-3.5 -49z" />
<glyph horiz-adv-x="788" d="M-256 -496q203 -227 464 -224q188 2 347 118q125 92 168 206q47 122 -29 199q-38 39 -106 60q-79 -270 -228 -353q-101 -56 -195 -10q-74 35 -98 109q-32 94 40 179q78 93 260 138q38 150 69 398q-83 -274 -191 -330q-81 -42 -147 52q-83 118 -95 372q-15 296 77 645 q88 -27 140.5 -50t69 -38.5t13.5 -28.5q-49 -178 -67.5 -363t-4.5 -296.5t52 -102.5q37 11 82.5 145.5t78.5 315t39 324.5q0 13 61 -4t121.5 -42.5t59.5 -35.5q-28 -547 -125 -977q163 -45 190 -186q26 -132 -71 -296q-92 -155 -242 -254q-191 -126 -376 -88q-42 8 -81 25 q-107 44 -186.5 150t-89.5 243zM130 -354q5 -21 20 -31q13 -6 29 -6.5t37.5 16.5t43 44t45 76.5t43.5 113.5q-63 -20 -110.5 -49t-70.5 -58t-32.5 -57t-4.5 -49z" />
<glyph horiz-adv-x="561" d="M-69 1559.5q6 108.5 51 219t119 198.5t173 149t203 74q116 15 223.5 -9.5t190.5 -83.5t141.5 -142.5t81.5 -191t6 -223.5q-235 399 -507 481q-198 59 -371 -58q-134 -91 -203 -252q-73 -170 -33 -322q32 -118 129 -189q26 79 51 142q106 243 262 306q112 46 209 -13 q81 -48 104 -139q28 -113 -56 -213q-102 -121 -338 -173v-2q-77 -281 -103 -434q-36 -194 -27 -329.5t59 -207.5t154 -68.5t259 87.5l18 -45q-253 -147 -418.5 -117t-242.5 189t-60 413q14 236 113 557q-100 76 -147 182t-41 214.5zM385 1176q81 16 143 47t95 66t49.5 71.5 t15 66.5t-17.5 48q-13 16 -34.5 18.5t-50.5 -14t-60.5 -50.5t-68.5 -99.5t-71 -153.5z" />
<glyph horiz-adv-x="552" d="M-1796 1081q34 116 131.5 205.5t219.5 132t243 37.5q125 -6 281 -42.5t297.5 -81.5t278 -89t260.5 -69.5t208 -18.5q24 87 67 197q106 243 262 306q112 46 209 -13q81 -48 104 -139q28 -113 -56 -213q-102 -121 -338 -173v-2q-77 -281 -103 -434q-36 -194 -27 -329.5 t59 -207.5t154 -68.5t259 87.5l18 -45q-253 -147 -418.5 -117t-242.5 189t-60 413q13 209 94 490q-118 5 -264 29t-272 51t-268 53.5t-276 36t-270.5 0.5t-277.5 -55t-272 -130zM389 1176q81 16 143.5 47t95.5 66.5t49.5 72t14.5 66t-18 47.5q-14 16 -35.5 18.5t-50.5 -14 t-60.5 -51t-68 -100t-70.5 -152.5z" />
<glyph horiz-adv-x="1652" d="M-113.5 1638q8.5 87 41 167.5t84 155.5t116 132.5t142.5 96t158 48.5q145 19 274.5 -24t217 -131t130 -217.5t21.5 -274.5q-236 399 -508 480q-197 59 -370 -58q-135 -91 -204 -252q-73 -170 -33 -323q38 -135 157 -207q32 101 57 160q104 241 258 306q112 48 210 -11 q80 -48 103 -138q29 -114 -54 -214q-101 -121 -335 -173q-46 -170 -57 -221q53 75 121 111q82 38 155 13.5t131 -99.5q68 -85 84 -213q47 -1 89.5 20t70.5 55q-51 34 -79.5 95t-24.5 150t49 185l178 -102q-71 -198 -36 -269q20 -39 60 -17q45 26 68 104l10 47 q18 -5 50.5 -15.5t76.5 -27.5t72.5 -37.5t24.5 -36.5q-29 -124 -46 -229.5t-22.5 -196t3.5 -159.5t31.5 -120t61 -78t91.5 -31t124.5 17.5t159.5 69.5l19 -45q-119 -70 -223 -100t-184 -19t-142.5 53.5t-101.5 116.5t-58.5 170t-16 214t28.5 249q-56 -24 -110 -12 q-36 -48 -94 -81t-125 -28q6 -144 -44 -297t-134.5 -260.5t-174.5 -126.5q-126 -25 -217 9t-138 109t-69.5 184.5t-20.5 226t18.5 241.5t38 223.5t46.5 180.5q-83 56 -134 131t-67.5 155.5t-8 167.5zM248 255q25 -75 90 -73q36 1 78 62t74 154t51 192.5t10.5 189 t-47.5 131.5q-56 59 -129 -47q-73 -107 -117 -294q-48 -207 -10 -315zM369 1217q84 17 148 50t96 70.5t47 75t9.5 67.5t-24.5 44q-11 8 -25 10t-31.5 -4.5t-37 -20.5t-42 -39.5t-45 -59.5t-47.5 -83.5t-48 -109.5z" />
<glyph horiz-adv-x="1658" d="M-1817 1018q29 117 123.5 210t215 140.5t241.5 46.5q125 -1 282 -30t300 -68.5t281.5 -78t263.5 -59.5t208 -10q31 117 62.5 201.5t79.5 159.5q106 162 244 177q103 12 179 -60q73 -69 70 -168q-4 -129 -138 -226q-96 -70 -249 -110q-9 -37 -24 -106.5t-21 -96.5 q59 78 123 111q81 38 154 13.5t133 -99.5q66 -87 82 -213q49 -1 91 20t68 55q-51 34 -79.5 95t-24.5 150t49 185l180 -102q-71 -198 -35 -269q19 -39 58 -17q46 25 69 101q8 24 11 50q19 -5 50.5 -15.5t75.5 -27t72.5 -37t24.5 -37.5q-30 -124 -47 -229.5t-22.5 -196 t3 -159.5t31 -120t61 -78t91.5 -31t124.5 17.5t159.5 69.5l19 -45q-119 -70 -223 -100t-183.5 -19t-142 53.5t-101.5 116.5t-58 170t-15.5 214t28.5 249q-58 -24 -110 -12q-38 -49 -95 -81.5t-124 -27.5q5 -144 -45 -297t-134.5 -260.5t-175.5 -126.5q-122 -25 -210 6 t-135.5 99.5t-72 170.5t-25.5 209t11.5 227t30 212t39.5 176q-134 0 -310 23t-319.5 50t-317 42.5t-322.5 8.5t-315.5 -60t-314.5 -156zM254 257q26 -77 92 -75q36 1 78 62t73.5 154t50.5 192.5t10.5 189t-48.5 131.5q-55 58 -127 -46q-73 -106 -117 -293q-48 -207 -12 -315 zM365 1200q85 21 148 57.5t93.5 75.5t43 77.5t4.5 67.5t-29 42q-12 7 -26 7.5t-32 -7t-36.5 -22.5t-39.5 -41.5t-41.5 -62t-42.5 -85t-42 -109.5z" />
<glyph horiz-adv-x="1538" d="M-119 1581q3 110 46.5 223t118 203.5t175.5 153.5t207 77q144 19 273.5 -24t217.5 -131t130.5 -218t21.5 -276q-235 399 -507 482q-197 59 -371 -57q-134 -91 -204 -252q-73 -169 -33 -321q36 -136 155 -208q110 335 285 443q115 71 221 25q81 -36 114 -120 q41 -104 -20 -207q-87 -148 -342 -210q-10 -3 -21 -5q-25 -94 -55 -219q59 78 123 111q81 38 153.5 13.5t132.5 -99.5q66 -82 82 -213q91 -3 150 63q-73 68 -85.5 175.5t52.5 221.5l180 -102q-76 -200 -4 -248q44 -31 119 7q64 32 88 82q6 13 8 26q34 -9 102 -59.5t42 -69.5 l-142 -223q-51 -82 -47 -86q144 -138 211.5 -286.5t57.5 -334.5q-11 -99 -54 -186.5t-101.5 -144.5t-127.5 -85t-131 -16q-75 14 -115 89q-45 86 -9 179q46 122 206 180q47 17 102 27q-1 55 -16.5 107t-39.5 91t-52.5 72.5t-56.5 57t-51.5 40.5t-37.5 26t-14 10 q14 52 111.5 215.5t121.5 228.5q-141 -95 -264 -33q-82 -90 -196 -82q5 -144 -44.5 -297t-134 -260.5t-174.5 -126.5q-126 -26 -217 8t-138 109t-69.5 184.5t-20.5 226t18 242t37.5 224t45.5 180.5q-109 74 -162.5 180.5t-50.5 216.5zM248 255q25 -75 90 -73q36 1 78 62 t74 154t51 192.5t10.5 189t-47.5 131.5q-56 59 -129 -47q-73 -107 -117 -294q-48 -207 -10 -315zM369 1217q86 17 150.5 50.5t96 71.5t46 76.5t7.5 68t-28 42.5q-11 7 -25 8t-31.5 -6t-37 -21.5t-41 -40t-43.5 -59.5t-46.5 -83t-47.5 -107zM1049 -297q-6 -32 4.5 -56.5 t31.5 -35.5q12 -6 26 -7t29.5 5t31 19t31 35.5t29 52.5t25.5 73.5t21 95.5q-75 -20 -127 -52t-74 -65t-28 -65z" />
<glyph horiz-adv-x="1546" d="M-1815 1018q29 117 123.5 210t215 140.5t241.5 46.5q125 -1 282 -30t299.5 -69t280 -78t262.5 -59.5t209 -11.5q62 241 150 371q107 156 244 168q103 9 177 -64q72 -71 67 -171q-7 -129 -146 -225q-94 -65 -240 -103l-2 -2q-12 -39 -26.5 -110.5t-18.5 -90.5 q59 78 123 111q81 38 154 13.5t133 -99.5q66 -87 82 -213q83 -3 149 63q-73 68 -85.5 175.5t52.5 221.5l179 -102q-76 -198 -5 -247q44 -32 120 6q64 32 89 83q7 14 9 27q36 -12 101.5 -61.5t41.5 -69.5l-138 -215q-55 -89 -51 -94q144 -138 211.5 -287t55.5 -334 q-11 -99 -53.5 -186.5t-100.5 -144.5t-127 -85t-131 -16q-75 14 -115 89q-45 85 -10 179q45 121 204 180q49 18 105 29q-2 55 -17.5 106.5t-39.5 90.5t-52.5 72.5t-56.5 57t-51 40.5t-37 26.5t-14 10.5q13 50 110.5 213t121.5 231q-69 -49 -140.5 -57t-122.5 22 q-90 -90 -196 -82q5 -144 -45 -297t-134.5 -260.5t-175.5 -126.5q-122 -25 -210.5 6t-136 99t-71.5 171t-25 209t11.5 227.5t29.5 212t38 175.5q-134 0 -310 23t-319 50t-316.5 42.5t-322 8.5t-315 -60t-314.5 -156zM256 257q26 -77 92 -75q36 1 78 62t73.5 154t50.5 192.5 t10.5 189t-48.5 131.5q-55 58 -127 -46q-73 -106 -117 -293q-48 -207 -12 -315zM367 1200q82 20 143.5 54.5t92.5 71.5t45.5 74.5t9.5 67t-23 45.5q-11 9 -25 12t-32 -2.5t-37 -19.5t-41 -40t-43.5 -61.5t-45 -87.5t-44.5 -114zM1058.5 -337.5q6.5 -24.5 22.5 -39.5 q15 -15 36 -18t45.5 11.5t47.5 45t44 89t34 136.5q-69 -20 -119 -49.5t-74 -59.5t-33.5 -60.5t-3 -55z" />
<glyph horiz-adv-x="1937" d="M-1262 1116q34 117 131.5 206.5t219.5 131.5t243 37q125 -5 281 -41t297 -81.5t277.5 -89.5t260.5 -70t207 -19q110 355 289 473q117 77 225 34q81 -33 115 -116q43 -101 -14 -204q-79 -145 -320 -211q-23 -6 -47 -11q-49 -146 -98 -436q-5 -28 -9 -60.5t-10 -84.5 t-6.5 -101t2 -104t14 -98.5t29.5 -79t50 -52t75 -10.5q65 9 117 63t83.5 125.5t54 166.5t32 170.5t14.5 152.5q-43 20 -73.5 61.5t-44.5 97.5t-4 129.5t47 151.5l178 -102q-71 -198 -35 -269q19 -39 59 -17q47 27 70 105q7 22 10 46q19 -5 49.5 -15.5t75 -28t73 -37.5 t25.5 -36q-40 -166 -57.5 -299t-13 -237t35.5 -169t87.5 -93t144.5 -10.5t205 81.5l18 -45q-104 -62 -197.5 -92t-167.5 -29t-135.5 28t-105 78.5t-72 124t-40 161.5t-6 193.5t27.5 219.5q-55 -24 -111 -12q-16 -243 -46 -374q-88 -378 -333 -384q-121 -3 -204 61t-125 185 q-63 -136 -159.5 -213t-217.5 -64q-60 6 -104.5 55t-66 125.5t-28 170t11 192.5t50.5 188.5t91 163t132 111.5q80 44 162 35.5t135 -76.5q0 -4 4 -8q14 68 43 172q-118 5 -264 29t-272.5 50.5t-268.5 53t-276 36t-270.5 0.5t-277.5 -55.5t-272 -130.5zM262 341.5 q10 -94.5 51 -114.5q88 -43 159 86q64 118 81 298q16 172 -27 241q-27 43 -73 25q-66 -26 -115.5 -125t-67.5 -207.5t-8 -203zM924 1212q85 17 149.5 50t96.5 70.5t47 75.5t9 68t-26 44q-11 8 -25.5 9.5t-32.5 -5t-37.5 -20.5t-41.5 -39.5t-44.5 -59.5t-47 -83.5 t-47.5 -109.5z" />
<glyph horiz-adv-x="1929" d="M2.5 354.5q-6.5 93.5 11 192.5t50.5 188.5t91 163t132 111.5q80 44 162.5 35.5t134.5 -76.5q1 -1 3 -4t3 -4q21 105 57 227q-102 75 -149.5 181.5t-42 215t50.5 219.5t118.5 199t173 149.5t203.5 75.5q145 19 274.5 -25t217.5 -132t130.5 -218t21.5 -276 q-235 400 -507 482q-197 59 -370 -57q-135 -90 -204 -251q-74 -170 -34 -322q32 -122 134 -194q108 329 282 435q115 70 222 23q81 -36 114 -120q40 -103 -22 -206q-89 -148 -352 -209l-11 -3q-29 -87 -62 -244t-57 -348t15 -320t149 -114q65 9 117 63t83.5 125.5t54 167 t32.5 170t16 152.5q-43 20 -74 61.5t-45 97.5t-4.5 129.5t45.5 151.5l181 -102q-71 -198 -36 -269q20 -39 60 -17q45 26 68 104l10 47q18 -5 50.5 -15.5t76 -27.5t72 -37.5t24.5 -36.5q-40 -166 -57.5 -299t-13 -237t35.5 -169t87.5 -93t144.5 -10.5t205 81.5l18 -45 q-104 -62 -197 -92t-167.5 -29t-135.5 28t-104.5 78.5t-72 123.5t-39.5 161.5t-5.5 194t27.5 219.5q-59 -24 -111 -12q-1 -8 -2 -26q-4 -53 -6.5 -84.5t-10.5 -95.5t-16.5 -107.5t-24.5 -105.5t-34.5 -104.5t-47 -89.5t-61.5 -76t-78.5 -48.5t-97.5 -20.5q-121 -3 -205 61 t-126 185q-63 -137 -158.5 -213.5t-216.5 -63.5q-60 6 -105 55t-67 125.5t-28.5 170zM254 341.5q10 -94.5 51 -114.5q89 -43 160 86q64 118 80 298q15 172 -28 241q-27 43 -73 25q-66 -26 -115.5 -125t-67 -207.5t-7.5 -203zM918 1212q82 16 145 48t95.5 67.5t48.5 72.5 t12.5 67t-21.5 46q-15 14 -36.5 15t-50 -16.5t-59.5 -52t-66.5 -98.5t-67.5 -149z" />
<glyph horiz-adv-x="1787" d="M2.5 352.5q-6.5 93.5 11 192.5t50.5 188.5t91 163t132 111.5q80 44 161.5 35t133.5 -78l6 -7q25 122 59 228q-102 75 -150 181.5t-42.5 215t50 219t118.5 198.5t173.5 149.5t204.5 74.5q145 19 274 -24.5t216.5 -131.5t130 -217.5t20.5 -275.5q-235 400 -507 482 q-197 59 -370 -57q-134 -91 -204 -251q-73 -170 -33 -322q32 -122 134 -194q22 65 55 151q105 242 260 304q110 44 206 -15q79 -49 101 -140q26 -115 -60 -214q-101 -116 -329 -166q-70 -212 -98 -438q-80 -576 113 -589q14 -1 30 1q63 9 113.5 58.5t82 116.5t54.5 157 t34 163.5t17 151.5q-104 52 -134.5 178t44.5 260l180 -104q-76 -199 -4 -247q44 -30 119 8q64 33 88 82q6 14 8 26q37 -12 103.5 -61.5t42.5 -69.5l-141 -220q-52 -83 -48 -87q143 -138 209.5 -287.5t56.5 -335.5q-11 -99 -53.5 -186t-100.5 -144t-127 -85t-132 -17 q-74 14 -114 89q-45 85 -10 179q45 122 203 181q48 17 105 28q-1 55 -16.5 107t-39.5 91t-52.5 72.5t-56.5 57t-51.5 40.5t-37.5 26t-14 10q15 51 112 214t121 230q-114 -77 -217 -51q-4 -50 -6.5 -84.5t-10 -96t-16.5 -106.5t-25 -104.5t-34.5 -102.5t-47 -88.5t-62 -74.5 t-78.5 -48t-97 -20q-120 -4 -204 60t-128 186q-61 -136 -157 -213t-217 -66q-60 6 -104.5 55.5t-66 126.5t-28 170.5zM254 337.5q10 -94.5 51 -114.5q88 -43 159 88q64 119 80 299q16 171 -28 240q-27 42 -72 24q-66 -26 -115.5 -125t-67 -208t-7.5 -203.5zM915 1210 q86 17 150.5 50.5t96.5 71t46.5 75.5t8.5 67.5t-27 43.5q-11 8 -25.5 9t-32.5 -5.5t-37.5 -21t-41.5 -40t-44.5 -59.5t-46.5 -83t-47 -108zM1312 -260q-29 -60 0 -105q14 -21 36 -28t46.5 4t50 40.5t48 90t35.5 143.5q-168 -48 -216 -145z" />
<glyph horiz-adv-x="1783" d="M-1274 1114q34 116 131.5 205.5t219.5 132t243 37.5q125 -6 281.5 -42.5t297.5 -81.5t277.5 -89t260.5 -69.5t208 -18.5q38 119 68 196q103 236 257 301q113 47 212 -10q81 -48 105 -137q30 -111 -52 -210q-102 -122 -342 -175q-53 -161 -100 -438q-5 -28 -9 -60 t-10 -84.5t-6.5 -101.5t2 -103.5t14 -98t29.5 -78.5t50 -51.5t75 -10.5q62 9 112.5 58.5t81.5 116.5t54 157t34 163.5t17 151.5q-50 25 -85 72t-50 105t-4 127t51 132l178 -102q-76 -198 -5 -247q44 -32 120 6q64 32 89 83q7 14 9 27q37 -13 102.5 -62t40.5 -69l-137 -215 q-55 -89 -51 -94q144 -137 211 -286t55 -335q-11 -99 -53 -186.5t-100 -144.5t-127 -85t-131 -16q-75 14 -115 89q-45 85 -10 179q45 121 204 180q49 18 105 29q-1 55 -16.5 106.5t-39.5 90.5t-52.5 72.5t-56.5 57t-51.5 40.5t-37.5 26.5t-14 10.5q11 42 58.5 124t101 173 t73.5 147q-113 -77 -217 -51q-4 -51 -6.5 -85t-10 -96t-16.5 -106.5t-25 -104.5t-34.5 -103t-47 -89t-62 -74.5t-78.5 -48t-97 -20.5q-121 -3 -205.5 61.5t-126.5 183.5q-63 -135 -158.5 -211t-215.5 -65q-60 6 -105 55.5t-67 126.5t-28.5 170.5t11 192.5t50.5 188.5t91 163 t132 111.5q80 44 161.5 34.5t135.5 -77.5l4 -7q18 84 43 172q-118 5 -264 28.5t-272.5 50t-268.5 53.5t-276 36.5t-270.5 0.5t-277.5 -55t-272 -130zM250 337.5q10 -94.5 51 -114.5q89 -44 160 87q64 118 80 298q15 172 -28 241q-27 43 -73 25q-66 -27 -115.5 -126 t-67 -207.5t-7.5 -203zM913 1208q83 17 146 49t95.5 68.5t48 73.5t11.5 66.5t-22 45.5q-10 9 -24 12.5t-32 -2t-38 -18.5t-42.5 -38t-45.5 -59.5t-48.5 -85t-48.5 -112.5zM1298 -344.5q7 -24.5 25 -38.5q17 -13 37.5 -14t44.5 14.5t46 46t42.5 88t32.5 133.5 q-71 -20 -121.5 -50.5t-74 -61.5t-31.5 -62t-1 -55.5z" />
<glyph horiz-adv-x="1679" d="M2.5 354.5q-6.5 93.5 11 192.5t50.5 188.5t91 163t132 111.5q78 42 157.5 34.5t133.5 -69.5q0 45 2 65q41 -9 63.5 -14.5t56 -13.5t51 -14t36.5 -13t26.5 -13.5t7.5 -13.5q-12 -169 -16 -215q101 -11 170 76q-51 33 -79.5 93.5t-24.5 149.5t49 185l178 -102 q-71 -198 -36 -269q20 -39 60 -17q45 26 68 104l10 47q19 -5 50.5 -15.5t75.5 -27t72.5 -37t24.5 -37.5q-39 -166 -56 -299t-12.5 -237t35.5 -169t87.5 -93t144.5 -10.5t205 81.5l18 -45q-104 -61 -197.5 -91.5t-167.5 -29t-135.5 28.5t-105 78.5t-72 123.5t-40 161 t-6 193.5t27.5 219.5q-57 -24 -111 -12q-38 -52 -100 -84.5t-137 -20.5q-37 -443 -99 -733q280 26 664 -38q79 -14 237 -44q350 -66 531 -81q423 -34 788 93q94 32 187 76q-189 -370 -614 -389q-134 -6 -366 30h-1h-1h-1l-1 1h-1h-2q-141 21 -309 64.5t-307.5 85.5 t-281.5 80.5t-280 56t-254 4.5q-76 -298 -230 -392q-100 -61 -197 -19q-74 32 -103 104q-36 92 29 178q76 100 268 147q29 128 47 242q-128 -169 -301 -152q-60 6 -105 55.5t-67 126.5t-28.5 170.5zM217 -355q1 -21 12 -34t28 -15.5t39 10t45.5 39.5t49 78.5t47.5 120.5 q-59 -19 -104 -45.5t-69.5 -53t-36.5 -53t-11 -47.5zM254 339.5q10 -94.5 51 -114.5q88 -42 160 86q65 117 84 296q17 172 -26 243q-29 47 -79 27q-66 -27 -115.5 -126t-67 -208t-7.5 -203.5z" />
<glyph horiz-adv-x="1730" d="M-141 -502q204 -227 465 -223q187 3 346 119q124 91 168 204q47 123 -30 200q-44 44 -126 65q-77 -277 -226 -364q-101 -59 -196 -16q-74 34 -101 107q-34 93 34 179q77 97 264 143q22 83 47 240q-129 -170 -301 -150q-60 6 -104.5 55t-66 125.5t-28 170t11 192.5 t50.5 188.5t91 163t132 111.5q76 42 156.5 35t132.5 -70q2 25 2 65q54 -11 94 -20.5t75.5 -20t54 -21t17.5 -20.5q-3 -99 -12 -204q62 -22 121 -1t94 66q-52 34 -80.5 95t-25 150t48.5 185l180 -104q-71 -196 -36 -268q19 -38 58 -18q45 25 69 101q8 25 11 52l16 -5 q16 -5 26.5 -8.5l31.5 -10.5t36.5 -13.5t35 -15t33 -16.5t25.5 -16.5t17 -17t3 -16.5q-39 -166 -56.5 -298.5t-13 -237t36 -169.5t87.5 -92.5t144 -10t205 80.5l18 -45q-105 -61 -198 -91.5t-167.5 -29t-136 29t-104.5 79t-72 123.5t-40 161.5t-5.5 194t27.5 219.5 q-55 -24 -111 -14q-47 -61 -121 -93t-161 0q-33 -441 -111 -788q176 -40 209 -182q30 -130 -63 -295q-89 -156 -238 -258q-189 -128 -374 -98q-48 8 -93 28q-105 44 -185 150.5t-91 242.5zM218 -357q2 -21 13 -34t28 -15t39 11t45 40t48.5 78.5t46.5 120.5q-60 -19 -105 -46 t-69 -54t-36 -53.5t-10 -47.5zM256 338.5q10 -94.5 51 -113.5q88 -43 160 86q65 117 83 295q17 171 -26 242q-29 46 -78 26q-66 -26 -115.5 -125t-67 -207.5t-7.5 -203z" />
<glyph horiz-adv-x="1771" d="M-85 1577q3 110 47 223t118 203.5t174.5 153.5t206.5 77q145 19 274.5 -25t217.5 -132t130.5 -217.5t20.5 -274.5q-235 400 -507 481q-197 59 -370 -58q-135 -91 -205 -252q-73 -170 -32 -322q35 -133 153 -205q68 194 142 307q113 163 253 175q104 9 177 -64 q72 -71 66 -170q-6 -126 -139 -218q-100 -69 -261 -104q-63 -191 -119.5 -456t-71.5 -449q49 142 108 292t138 299t123 150q39 2 104 -24t62 -43q-166 -697 53 -797q161 -73 246 246q42 161 63 434q-43 20 -73.5 61.5t-45 97.5t-4.5 129.5t46 151.5l180 -102 q-71 -198 -36 -269q20 -39 60 -17q45 26 68 104l10 47q18 -5 50.5 -15.5t76.5 -27.5t72.5 -37.5t24.5 -36.5q-30 -124 -47 -229.5t-22.5 -196t3 -159.5t31 -120t61 -78t91.5 -31t124.5 17.5t159.5 69.5l18 -45q-104 -62 -197 -92t-167.5 -29t-135.5 28t-104.5 78.5 t-72 123.5t-39.5 161.5t-5.5 194t27.5 219.5q-59 -24 -111 -12q-4 -54 -7.5 -94.5t-10.5 -104.5t-15.5 -113.5t-22.5 -110.5t-30.5 -106.5t-40.5 -92t-52 -76t-65 -48.5t-79 -20q-93 -2 -163 36t-106 99t-61.5 135t-28.5 142.5t-7.5 122t1.5 74.5v9q-14 -24 -29 -54 t-27 -56.5t-28.5 -70.5t-26.5 -72t-29 -86t-29 -87.5t-32.5 -100.5t-33.5 -104q-10 -11 -36.5 -12.5t-54.5 5.5t-52.5 24t-30.5 39q-41 144 -33 351t42.5 404t84.5 355q-109 74 -162 180.5t-50 216.5zM401 1210q82 16 144.5 47t95.5 66t49.5 71.5t14 66.5t-18.5 48 q-14 16 -35 19t-49 -11t-58 -45.5t-64.5 -91.5t-65.5 -141z" />
<glyph horiz-adv-x="1777" d="M-1788 1083q34 116 131.5 205.5t219.5 132t243 37.5q125 -5 281.5 -41t297.5 -81.5t277.5 -89.5t260.5 -70t208 -19q44 137 68 197q106 244 262 307q112 46 209 -13q80 -48 103 -139q28 -114 -56 -214q-103 -121 -338 -173q-65 -195 -116 -435.5t-68 -436.5 q34 99 76.5 209.5t97.5 238t107.5 210t86.5 83.5q39 2 104.5 -24t61.5 -43q-163 -699 53 -797q60 -27 109 0t80.5 93t55 146.5t36 171.5t19.5 155t10 108v3.5v2.5q-43 20 -74 61.5t-45 97.5t-4.5 129.5t45.5 151.5l180 -102q-71 -198 -36 -269q20 -39 60 -17q45 26 68 104 l10 47q18 -5 50.5 -15.5t76.5 -27.5t72.5 -37.5t24.5 -36.5q-40 -166 -57.5 -299t-13 -237t35.5 -169t87.5 -93t145 -10.5t205.5 81.5l19 -45q-119 -70 -223.5 -100t-184.5 -19t-142.5 53.5t-101.5 116.5t-58 170t-15.5 214t28.5 249q-56 -24 -110 -12q-4 -54 -7.5 -95 t-10.5 -104.5t-15.5 -113t-22.5 -110.5t-31 -106.5t-41 -92t-51.5 -76t-65 -48.5t-79.5 -20q-66 -2 -120.5 18t-91.5 51.5t-65 80.5t-44 93t-26 102.5t-13.5 95.5t-4 86t0.5 60.5t2 30.5q-19 -31 -39.5 -74t-35.5 -79.5t-39 -104.5t-36.5 -106t-43 -131t-44.5 -136 q-10 -11 -36 -12.5t-54 5.5t-53 24t-31 39q-29 104 -34.5 239.5t10 274.5t41 268.5t59.5 247.5q-118 5 -264 29t-272.5 50.5t-268.5 53t-276 36t-270.5 0.5t-277.5 -55.5t-272 -130.5zM399 1180q85 17 149.5 50.5t96.5 71t46.5 75.5t8 67.5t-27.5 42.5q-12 7 -26.5 8 t-32.5 -5.5t-37.5 -21t-41.5 -39.5t-44 -59t-45.5 -83t-45.5 -107z" />
<glyph horiz-adv-x="1638" d="M-81 1574.5q3 110.5 46.5 224t117.5 204t175 153.5t207 76q145 19 274.5 -24.5t217.5 -131.5t130.5 -217.5t20.5 -275.5q-235 400 -507 482q-197 58 -369 -58q-135 -91 -205 -252q-73 -170 -33 -323q37 -135 156 -207q31 97 57 159q104 240 258 306q112 48 210 -10 q80 -47 104 -138q29 -113 -53 -213q-102 -123 -341 -176q-65 -197 -119 -451.5t-71 -451.5q26 76 57.5 159.5t76 191t85 190.5t81.5 141t68 59q39 0 104.5 -26t61.5 -41q-167 -699 53 -799q83 -37 145 26t94.5 197.5t46.5 229t22 198.5q-49 25 -84 72t-50 105t-4 127t49 132 l181 -104q-76 -197 -5 -246q44 -31 120 6q64 32 89 82q7 14 9 27q33 -9 100 -59.5t43 -69.5l-141 -223q-51 -82 -47 -86q144 -139 211 -288t55 -333q-11 -99 -54 -186.5t-101 -144.5t-126.5 -85t-130.5 -16q-75 14 -115 88q-44 85 -9 179q46 121 204 180q48 17 105 28 q-2 55 -17.5 107t-39.5 91t-52.5 72.5t-57 57t-51.5 40.5t-37 26t-14 10q14 51 111.5 214t120.5 230q-109 -77 -219 -49q-5 -69 -10.5 -124.5t-18 -134.5t-27.5 -139.5t-40 -125.5t-55.5 -108t-74.5 -71.5t-96 -29.5q-93 -3 -163 35.5t-106 99.5t-61.5 134.5t-28.5 142 t-7.5 122t1.5 73.5v9q-14 -23 -29 -53t-27 -56.5t-28.5 -70.5t-26.5 -71.5t-29.5 -85.5t-29 -87t-32.5 -101t-33 -104q-10 -12 -36.5 -14t-54.5 5.5t-52.5 24t-30.5 38.5q-31 110 -35 256t15 296.5t49 290.5t69 267q-110 73 -164.5 179.5t-51.5 217zM406 1210 q194 39 270 149q47 68 28 125q-10 27 -32 38q-17 6 -37.5 5t-47 -21t-53.5 -51.5t-57.5 -87.5t-58.5 -128zM1149.5 -338.5q5.5 -24.5 21.5 -40.5q16 -15 37 -17.5t45.5 11.5t48 44.5t44.5 89t34 136.5q-69 -19 -119 -48.5t-74 -59.5t-33.5 -60.5t-4 -55z" />
<glyph horiz-adv-x="1636" d="M-1792 1083q34 116 131.5 205.5t219.5 131.5t243 36q125 -5 281 -41t297.5 -81t278 -89t260.5 -69.5t208 -18.5q24 84 68 197q105 241 260 305q112 47 209 -11q81 -49 104 -139q30 -114 -53 -214q-103 -123 -340 -175q-64 -191 -115.5 -435.5t-66.5 -436.5 q34 99 76.5 209.5t97.5 238t107.5 210t86.5 83.5q38 1 103.5 -24.5t62.5 -40.5q-167 -699 53 -799q36 -11 66 -12.5t56 22.5t46.5 50t38 71.5t30.5 86.5t24 95.5t18 97.5t12.5 93t8.5 82.5t5 64.5q-49 25 -83.5 72t-48.5 105t-3 127t49 132l181 -104q-76 -199 -4 -247 q44 -30 119 8q64 33 88 82q6 14 8 26q34 -9 101.5 -59.5t43.5 -69.5l-141 -223q-51 -82 -47 -86q143 -138 209.5 -287.5t56.5 -335.5q-11 -98 -54 -185t-101 -144t-126.5 -85.5t-130.5 -17.5q-75 14 -115 89q-45 85 -11 179q44 121 201 180q49 18 107 29q-1 55 -16.5 107 t-39.5 91t-52.5 72.5t-56.5 57t-51.5 40.5t-37.5 26t-14 10q14 50 112 213t122 231q-115 -79 -220 -49q-5 -69 -10.5 -124t-17.5 -134.5t-27.5 -140t-40.5 -126t-55.5 -108.5t-74.5 -71.5t-97 -30.5q-93 -2 -163 36.5t-105.5 99.5t-61 134.5t-28 142t-7 122t1.5 74.5v9 q-16 -27 -31.5 -57.5t-33.5 -75t-30 -75t-34 -95.5t-32 -95t-37.5 -115t-38.5 -118q-9 -11 -35 -12.5t-54 5.5t-52.5 24t-30.5 39q-28 98 -33.5 233t9 275t39.5 273t59 249q-118 5 -264 29t-272.5 51t-268.5 53.5t-276 36t-270.5 0.5t-277.5 -55t-272 -130zM393 1178 q191 38 268 148q48 67 30 124q-9 32 -36 41q-22 7 -50.5 -5t-62.5 -45t-73.5 -101t-75.5 -162zM1146.5 -325q2.5 -24 14.5 -42q26 -40 71 -28q65 19 109 138q22 61 35 142q-64 -18 -111.5 -45t-72 -55t-36.5 -57t-9.5 -53z" />
<glyph horiz-adv-x="1579" d="M-305 -489q11 -136 91 -243t185 -151q185 -79 393 26q159 80 271 236q112 157 112 299q0 156 -142 220q-26 12 -56 20q0 1 1 3.5t1 4.5q81 356 113 770q85 -28 156 4.5t116 90.5q57 -9 113 14q-45 -231 -22 -413.5t111 -285t240 -107t365 121.5l-19 45 q-88 -48 -159.5 -70t-124.5 -17.5t-91.5 31.5t-61 77t-31 119.5t-3 159.5t22.5 195.5t47 229.5q2 10 -7.5 21.5t-28 22t-38.5 20.5t-46 19.5t-43.5 16t-37.5 12.5t-22 7q-12 -95 -64 -140q-39 -34 -65 -8q-42 42 -4 193q11 42 28 90l-178 102q-45 -96 -49 -185t24.5 -150 t79.5 -95q-34 -44 -89.5 -65t-114.5 -2q2 26 5 77.5t5 77.5q0 32 -244 82q0 -196 -31.5 -512.5t-85.5 -529.5q-221 -54 -286 -177q-46 -86 1 -170q40 -72 121 -93q108 -28 209 58q110 95 173 306q137 -40 155 -147q16 -101 -76 -215q-97 -121 -253 -180q-216 -82 -422 4 q-133 56 -244 180zM80 -325q-1 17 5 37.5t22.5 43t41 44t63.5 42t87 35.5q-58 -190 -139 -238q-44 -27 -69 3q-2 2 -3 4q-7 12 -8 29zM477 1302q3 44 8 80t11 58l6 22q54 -9 96.5 -22.5t66.5 -27.5t39.5 -29.5t20.5 -27t4 -20.5q-5 -45 -22.5 -155.5t-22.5 -155.5 q-63 8 -106.5 36.5t-64 67.5t-30 84.5t-6.5 89.5z" />
<glyph horiz-adv-x="1589" d="M22 -232q-45 -87 2 -170q40 -72 122 -92q109 -27 210 62q117 103 181 338q132 10 301.5 -19t313 -73t344 -100t349.5 -85q70 -13 97 -16q8 -1 23 -3.5t27.5 -4.5t24.5 -4q72 -10 129 -15t136.5 -4.5t144 11.5t139.5 38t136.5 69.5t122 111.5t106.5 159 q-232 -109 -452.5 -147t-450.5 -27q-50 3 -185 17q-128 16 -315.5 50.5t-323.5 60t-315.5 40t-337.5 2.5q71 320 104 731q85 -29 159 3.5t118 91.5q59 -10 110 12q-45 -230 -21.5 -412t112 -285t241 -107.5t365.5 120.5l-19 45q-117 -64 -205.5 -81.5t-145 10.5t-87.5 93 t-35.5 169t13 237t57.5 299q11 45 -220 118q-2 1 -3 1q-12 -95 -63 -140q-39 -35 -65 -9q-42 41 -4 188q11 44 29 94l-180 104q-45 -97 -49 -186.5t24.5 -150t79.5 -93.5q-33 -45 -90.5 -66.5t-116.5 -0.5q10 126 11 153q1 10 -17.5 20t-56 21.5t-75 20.5t-95.5 22 q0 -198 -31.5 -514.5t-85.5 -527.5q-223 -55 -287 -179zM71 -324q-2 21 10 48t36 54t69 54.5t105 46.5q-21 -69 -46.5 -120.5t-48.5 -78.5t-45 -40t-39 -11.5t-28 13.5q-11 13 -13 34zM469 1302q3 44 8 80t11 58l6 22q55 -9 97.5 -22.5t66.5 -27t39 -28.5t20 -26.5t4 -20.5 q-5 -53 -23.5 -170t-21.5 -141q-63 8 -106.5 36t-64 67t-30 84t-6.5 89z" />
<glyph horiz-adv-x="1703" d="M-1780 1114q34 117 131.5 206.5t219.5 131.5t243 37q124 -5 279.5 -40.5t296 -81t276.5 -89t259.5 -70t207.5 -20.5q107 357 286 476q117 76 227 33q82 -32 119 -115q45 -102 -10 -205q-78 -144 -317 -211q-26 -7 -53 -13q-66 -201 -119.5 -453t-70.5 -450 q34 99 76.5 209.5t97.5 238t107.5 210t86.5 83.5q30 1 60 -0.5t36 -1.5q-15 -17 -39.5 -47t-80.5 -116t-90 -164q-12 -138 39 -281.5t143 -214.5q83 -64 159 1t122 199.5t73.5 253.5t32.5 187q-43 21 -73.5 62.5t-44.5 98t-4 130t46 151.5l178 -104q-70 -197 -34 -268 q20 -39 60 -17q46 25 69 103q7 23 10 49q2 -1 22 -7t37.5 -12.5t43.5 -16t46 -19.5t38.5 -20.5t28 -22t7.5 -21.5q-30 -124 -47 -229.5t-22.5 -196t3 -159.5t31 -120t61 -78t91.5 -31t124.5 17.5t159.5 69.5l19 -45q-119 -70 -223 -99.5t-184 -18t-142.5 54t-101 116 t-57.5 169.5t-15.5 213.5t29.5 248.5q-53 -22 -113 -12q-3 -36 -7 -77t-16.5 -120t-29.5 -149t-46.5 -149.5t-65.5 -136.5t-89.5 -96.5t-116.5 -41.5q-263 -12 -377 292q-51 -142 -102 -301q-3 -10 -20.5 -13.5t-41 0.5t-47 12.5t-42 24t-23.5 32.5q-29 102 -33 242.5 t13 286.5t42.5 279t57.5 252q-134 6 -309 36t-317 62.5t-314.5 55t-321 21.5t-316.5 -47.5t-319 -143.5zM406 1210q82 16 145 47.5t95.5 67.5t48.5 72.5t12.5 66.5t-21.5 47q-14 14 -35 15t-50 -16t-59.5 -51.5t-66.5 -98.5t-69 -150z" />
<glyph horiz-adv-x="1708" d="M-19.5 1602.5q8.5 106.5 55 214t120 192.5t171 143.5t199.5 71.5q145 19 274.5 -24t217 -131t130 -218t21.5 -276q-235 399 -507 481q-197 59 -370 -57q-135 -90 -205 -251q-74 -171 -33 -323q28 -104 106 -172q13 45 47 131q104 240 258 306q112 48 210 -10 q80 -47 104 -138q29 -113 -53 -213q-102 -123 -341 -176q-64 -194 -117.5 -451.5t-68.5 -451.5q35 101 76.5 210t96.5 237.5t107 210.5t86 83q31 1 62.5 -0.5t36.5 -1.5q-15 -17 -40 -47t-82 -116t-91 -164q-11 -139 40 -282.5t144 -213.5q83 -64 158.5 1t122 199t74 254 t32.5 187q-43 21 -74 62.5t-45 98t-4.5 130t45.5 151.5l180 -104q-71 -196 -35 -268q19 -39 58 -17q46 25 69 102q8 24 11 50q165 -53 206 -88q20 -17 17 -31q-40 -166 -57.5 -299t-13 -237t35.5 -169t87.5 -93t145 -10.5t205.5 81.5l19 -45q-119 -70 -223.5 -99.5 t-184.5 -18t-142.5 54t-101 116t-58 169.5t-15.5 213.5t29 248.5q-51 -22 -111 -12q-3 -36 -7 -77t-17 -120t-29.5 -149t-46.5 -149.5t-66 -136.5t-90 -96.5t-117 -41.5q-263 -12 -377 292q-51 -142 -102 -301q-3 -10 -20.5 -13.5t-41 0.5t-46.5 12.5t-41 24t-23 32.5 q-33 114 -37 264.5t16.5 305t52 296t72.5 270.5q-92 78 -132.5 184t-32 212.5zM406 1210q63 12 115 33.5t85 47t57.5 54t33 55.5t11.5 51.5t-8 41.5q-20 43 -68 31q-74 -17 -151 -152q-39 -69 -75 -162z" />
<glyph horiz-adv-x="1574" d="M-1784 1114q34 116 131.5 205.5t219.5 132t243 37.5q125 -5 281 -41t297 -81.5t277 -89.5t260 -70t208 -19q43 134 70 196q104 240 258 306q112 48 210 -10q80 -47 104 -138q29 -113 -53 -213q-102 -123 -341 -176q-66 -201 -119.5 -454t-68.5 -449q35 101 76.5 210 t96.5 237.5t107 210.5t86 83q31 1 62 -0.5t36 -1.5q-15 -17 -40 -47.5t-82 -116.5t-91 -163q-11 -139 40.5 -282.5t144.5 -215.5q134 -103 249 133q80 164 123 411l11 74q-95 58 -120 179.5t48 250.5l178 -104q-76 -197 -5 -246q44 -31 120 6q64 32 89 82q7 14 9 27 q34 -9 102 -59.5t42 -69.5l-142 -223q-51 -82 -47 -86q143 -137 210.5 -287t55.5 -334q-11 -99 -53 -186.5t-100 -144.5t-127 -85t-131 -16q-75 14 -115 89q-45 86 -9 179q46 122 206 180q47 17 102 27q-2 55 -17.5 107t-39.5 91t-52.5 72.5t-56.5 57t-51 40.5t-37 26 t-14 10q14 51 111 214t120 230q-121 -82 -231 -45q-4 -45 -10 -93t-19.5 -123t-31.5 -141.5t-48 -138t-65.5 -123t-86.5 -86t-110 -36.5q-262 -12 -377 290q-48 -131 -102 -299q-3 -10 -20.5 -13.5t-41 0.5t-47 12.5t-42 24t-23.5 32.5q-28 100 -32.5 239t11.5 283t42.5 281 t60.5 257q-134 6 -309 36t-317 62.5t-314.5 55t-321 21.5t-317 -47.5t-320.5 -143.5zM401 1210q189 37 267 147q48 68 32 126q-8 29 -32 39q-22 9 -51 -2t-64 -44t-75.5 -101.5t-76.5 -164.5zM1086.5 -337q5.5 -24 21.5 -40q15 -16 36 -19.5t46 10.5t48 44.5t44.5 89 t34.5 137.5q-69 -19 -118.5 -48t-74 -59t-34 -60.5t-4 -54.5z" />
<glyph horiz-adv-x="1574" d="M-26 1601.5q9 106.5 55 214t119.5 193t170.5 144t199 71.5q145 19 274.5 -24.5t217.5 -131.5t130.5 -217.5t20.5 -275.5q-235 400 -507 481q-197 59 -369 -57q-135 -91 -204 -252q-74 -170 -33 -322q27 -104 106 -172q16 52 47 131q104 240 258 306q112 48 210 -10 q80 -47 104 -138q29 -113 -53 -213q-102 -123 -341 -176q-64 -194 -117.5 -452t-68.5 -451q32 96 75.5 209t97.5 239t106.5 209t86.5 84q31 1 62 -0.5t36 -1.5q-15 -17 -40 -47.5t-82 -116.5t-91 -163q-11 -139 40 -282.5t143 -215.5q135 -104 251 134q80 165 123 411 q7 41 11 73q-95 58 -120 179.5t48 250.5l178 -104q-76 -197 -5 -246q44 -31 120 6q64 32 89 82q7 14 9 27q33 -9 100.5 -59.5t43.5 -69.5l-142 -223q-51 -82 -47 -86q143 -137 210.5 -287t55.5 -334q-11 -99 -53 -186.5t-100 -144.5t-127 -85t-131 -16q-75 14 -115 89 q-45 86 -9 179q46 122 206 180q47 17 102 27q-2 55 -17.5 107t-39.5 91t-52.5 72.5t-56.5 57t-51 40.5t-37 26t-14 10q14 51 111 214t120 230q-122 -83 -231 -45q-5 -47 -10.5 -92.5t-20 -123t-32 -142t-47 -137.5t-65 -123.5t-86.5 -85.5t-110 -37q-262 -12 -377 290 q-48 -131 -102 -299q-3 -10 -20.5 -13.5t-41 0.5t-47 12.5t-42 24t-23.5 32.5q-30 108 -33 259.5t17.5 307.5t51 301.5t68.5 267.5q-91 78 -131.5 183.5t-31.5 212zM399 1208q191 39 268 149q48 68 31 126q-9 28 -32 39q-21 10 -50 -1t-64 -44t-75.5 -102.5t-77.5 -166.5z M1087 -339.5q6 -24.5 23 -39.5q16 -15 37 -17.5t45 12t47 45t44 88.5t34 136q-70 -19 -120 -48.5t-74 -60t-33 -61t-3 -55z" />
<glyph horiz-adv-x="1396" d="M-1800 1077q34 117 131.5 207t219.5 132t243 36q125 -5 281 -41t297 -81t277.5 -89t260.5 -70.5t207 -19.5q40 125 69 197q106 243 261 307q113 46 210 -13q80 -48 103 -138q28 -114 -55 -213q-23 -28 -54 -52l162 -94q-71 -196 -36 -268q19 -38 58 -18q45 25 69 101 q8 25 11 52l16 -5q16 -5 26.5 -8.5l31.5 -10.5t36.5 -13.5t35 -15t33 -16.5t25.5 -16.5t17 -17t3 -16.5q-29 -124 -46 -229.5t-22.5 -195.5t3.5 -159.5t31.5 -119.5t61 -77t91.5 -31.5t124.5 17.5t159.5 70l19 -47q-119 -70 -223.5 -99.5t-184.5 -18t-142.5 54t-101.5 116.5 t-58 170t-15.5 214t28.5 249q-54 -24 -110 -14q-5 -68 -17.5 -146t-34 -172.5t-55.5 -178.5t-77 -154t-103.5 -109t-130.5 -33q-126 10 -207.5 101t-110.5 241t-6 344h2q19 187 86 408q-118 5 -264 29t-272 50.5t-268 53.5t-276 36.5t-270.5 0t-277.5 -56t-272 -130.5z M264 684q-62 -363 14 -509q46 -89 129 -63q85 27 163 160q117 201 139 504q1 16 2 31q-55 26 -88.5 84t-38.5 141.5t34 184.5q-98 -66 -251 -101v-2q-61 -216 -88 -356q-8 -32 -15 -74zM385 1174q81 16 143 46t95 65t50 71t15.5 66t-16.5 48q-14 17 -35.5 19.5t-51 -13 t-61 -50t-68.5 -99.5t-71 -153z" />
<glyph horiz-adv-x="1396" d="M-67 1559.5q6 108.5 51 219t119 198.5t173 149t203 74q145 19 274.5 -25t217 -132t130 -218t21.5 -275q-235 399 -506 481q-198 60 -371 -57q-135 -90 -205 -251q-74 -169 -34 -321q31 -120 129 -192q9 29 28.5 81.5t22.5 60.5q107 244 263 307q112 45 209 -14 q81 -48 103 -140q27 -113 -58 -213q-23 -27 -54 -51l166 -96q-71 -196 -35 -268q19 -39 58 -17q46 25 69 102q8 24 11 50q2 -1 22 -7t37.5 -12.5t43.5 -16t46 -19.5t38.5 -20.5t28 -22t7.5 -21.5q-30 -124 -47 -229.5t-22.5 -195.5t3 -159.5t31 -119.5t61 -77t91.5 -31.5 t124.5 17.5t159.5 70l19 -47q-119 -70 -223 -99.5t-183.5 -18t-142 54t-101.5 116.5t-58 170t-15.5 214t28.5 249q-56 -23 -110 -14q-6 -83 -22 -179t-50 -211t-79 -204.5t-115.5 -147.5t-153.5 -51q-119 9 -199 92.5t-112 221.5t-17 315q18 229 113 534q-100 76 -147 182 t-41 214.5zM252 600q-44 -324 36 -443q52 -78 136 -39q90 41 165 188q107 207 122 501q-55 27 -88 85.5t-37 142.5t37 186q-101 -66 -254 -101l-2 -2q-90 -324 -115 -518zM387 1176q85 17 149 50.5t96.5 71t47 75.5t8.5 67t-26 43q-11 8 -25.5 10t-32.5 -4.5t-37.5 -20.5 t-41.5 -39.5t-44.5 -59.5t-46.5 -83.5t-47 -109.5z" />
<glyph horiz-adv-x="1275" d="M-1796 1079q34 117 131.5 206.5t219.5 131.5t243 37q124 -5 278.5 -40.5t294.5 -80.5t276 -88.5t260 -70.5t208 -21q25 86 75 199q104 240 259 304q112 46 210 -13q81 -48 104 -139q28 -113 -56 -213q-102 -121 -338 -173q-72 -216 -109 -438q-63 -361 12 -507 q46 -90 129 -64q84 26 162 157q118 199 141 501l1 19q-92 60 -114.5 179t48.5 245l180 -104q-76 -199 -4 -247q44 -30 119 8q64 33 88 82q6 14 8 26q34 -9 102 -59.5t44 -69.5l-136 -212q-58 -93 -53 -97q142 -138 209 -286.5t57 -334.5q-11 -99 -54 -186.5t-101 -144.5 t-127 -85t-131 -16q-75 14 -115 89q-45 86 -9 179q46 122 206 180q47 17 102 27q-1 55 -16.5 107t-39.5 90.5t-52.5 72.5t-56.5 57t-51.5 40t-37.5 26t-14 10q14 52 111.5 215.5t121.5 229.5q-126 -84 -241 -43q-9 -87 -26 -180.5t-51 -204.5t-78.5 -195.5t-113 -138.5 t-149.5 -47q-96 7 -164 56t-103 122.5t-50 171.5t-11 196.5t19 205.5t34 189.5t41 156.5q-118 6 -263.5 30t-271 50.5t-267 53t-275 35.5t-269.5 0t-276 -55.5t-270 -130.5zM389 1176q84 17 148 50t96.5 70t47.5 74.5t9.5 67t-24.5 43.5q-11 9 -25.5 11t-32.5 -4t-37.5 -20 t-42 -39.5t-45 -59.5t-47 -83.5t-47.5 -109.5zM786.5 -331.5q3.5 -24.5 16.5 -41.5q29 -37 75 -19q72 27 114 166q15 49 24 109q-66 -18 -114.5 -45.5t-73 -56t-35 -58.5t-7 -54.5z" />
<glyph horiz-adv-x="1273" d="M-99.5 1574.5q2.5 110.5 46 223.5t117.5 203.5t175 153.5t207 77q145 19 275 -24.5t218 -131.5t130.5 -217.5t20.5 -275.5q-235 400 -507 481q-196 60 -369 -57q-135 -90 -205 -250q-74 -170 -34 -322q35 -137 156 -210q9 27 57 159q104 240 258 306q112 48 210 -10 q81 -47 105 -138q29 -112 -53 -213q-101 -123 -341 -176q-133 -448 -140 -735q-5 -228 78 -292q64 -49 150 18q103 79 172 270q62 168 75 374q-92 60 -114 179t49 245l180 -104q-76 -199 -4 -247q44 -30 119 8q64 33 88 82q6 13 8 26q34 -9 102 -59.5t44 -69.5l-136 -212 q-58 -93 -53 -97q142 -138 209 -286.5t57 -334.5q-11 -99 -54 -186.5t-101 -144.5t-127 -85t-131 -16q-75 14 -115 89q-45 86 -9 179q46 122 206 180q47 17 102 27q-1 55 -16.5 107t-39.5 91t-52.5 72.5t-56.5 57t-51.5 40.5t-37.5 26t-14 10q14 52 111.5 215t121.5 229 q-126 -84 -242 -43q-9 -87 -25.5 -180t-51 -204.5t-78.5 -196t-112.5 -138.5t-149.5 -47q-129 10 -212 106t-107.5 252t1.5 361q35 233 107 459q-110 73 -164.5 179.5t-52 217zM387 1208q85 17 148.5 49.5t96 69t47.5 73.5t10.5 67t-23.5 46q-15 13 -36 13.5t-48.5 -15 t-57 -47t-62.5 -89.5t-63 -136zM786 -344q7 -24 25 -39q17 -13 37.5 -14t44.5 14.5t46 46t42.5 88t32.5 133.5q-71 -20 -121.5 -50t-74 -61t-31.5 -62.5t-1 -55.5z" />
<glyph horiz-adv-x="1724" d="M-2300 -37q131 -105 312 -160t361 -64t407.5 8.5t414 46.5t420 62t387.5 44q-11 290 50 675.5t118 546.5q72 -5 157.5 -32.5t78.5 -45.5q-10 -18 -27 -73q44 47 90 71q82 38 155.5 13t131.5 -101q68 -82 84 -209q52 -7 99 14.5t79 59.5q-52 34 -80.5 95t-25 150t48.5 185 l180 -104q-71 -196 -36 -268q19 -38 58 -18q45 25 69 101q8 25 11 52q165 -53 206 -88q20 -17 17 -31q-34 -142 -52 -259.5t-19.5 -214.5t15 -167t53 -112.5t92.5 -55t135 8t180 75.5l18 -45q-105 -62 -198 -92t-167.5 -29t-136 28t-104.5 78.5t-72 123.5t-40 161.5 t-5.5 194t27.5 219.5q-55 -24 -111 -14q-41 -52 -102 -84.5t-135 -20.5q4 -99 -19 -207t-67 -200t-99.5 -162.5t-121.5 -102t-127 -10.5q-128 44 -185 180q0 -3 -9 -76t-16.5 -136.5t-6.5 -63.5q168 -77 194 -201q20 -91 -41 -167q-54 -67 -130 -71q-43 -3 -81 19 q-111 61 -131 358q-112 -14 -248.5 -44.5t-259 -67t-261 -75.5t-261.5 -72.5t-254 -54.5t-245 -25.5t-228 18t-209.5 72t-183 141.5t-154.5 223zM173.5 -340.5q13.5 -65.5 37 -84.5t51.5 -3q25 15 39 48t12.5 73.5t-36.5 84t-101 72.5q-16 -125 -2.5 -190.5zM301 247 q26 -76 92 -75q36 1 78 62t73.5 154.5t50 193t10 189t-47.5 130.5q-55 58 -127 -46q-73 -106 -117 -292q-49 -207 -12 -316z" />
<glyph horiz-adv-x="1605" d="M-2290 -25q113 -90 258.5 -144t309 -69.5t331.5 -12t358.5 27t355 48t357 51t330.5 36.5q-8 234 47.5 627t122.5 583q27 -2 61 -8t65.5 -15t57 -18.5t39.5 -19.5t11 -17q-11 -25 -25 -75q46 49 90 73q81 38 154 13t133 -101q66 -84 82 -211q89 -3 153 68 q-73 68 -85 176.5t53 222.5l180 -104q-76 -199 -4 -247q44 -30 119 8q64 33 88 82q6 14 8 26q34 -9 101.5 -59.5t41.5 -69.5l-134 -212q-57 -93 -52 -97q142 -137 209 -287t57 -334q-11 -99 -54 -186.5t-101.5 -144.5t-127.5 -85t-131 -16q-75 14 -115 89q-45 86 -9 179 q47 122 207 180q47 17 102 27q-1 55 -16.5 107t-39.5 90.5t-53 72.5t-57 57t-51.5 40t-37.5 26t-14 10q14 52 112 215.5t122 229.5q-139 -96 -262 -33q-90 -98 -203 -88q4 -99 -20 -207t-68 -199.5t-99 -162t-120.5 -101.5t-126.5 -10q-127 44 -184 180q-4 -17 -21.5 -140.5 t-13.5 -123.5q169 -77 196 -201q19 -91 -41 -166q-54 -67 -130 -72q-44 -3 -83 19q-111 62 -131 359q-137 -17 -312 -59.5t-326 -90t-325 -92.5t-321 -73t-301 -24.5t-279 45t-240 144t-198 264.5zM186 -137q-27 -216 30 -271q27 -27 60 -4q23 16 36 49.5t10 73t-37.5 82 t-98.5 70.5zM310 246q26 -75 91 -74q36 1 78 62t74 154.5t51 193t10.5 189t-47.5 130.5q-56 59 -129 -47t-116 -293q-49 -206 -12 -315zM1116.5 -338q5.5 -24 20.5 -41q15 -16 36 -19.5t46 10.5t48 44.5t44.5 89t34.5 137.5q-69 -19 -118.5 -48t-73.5 -58.5t-33.5 -60 t-4 -54.5z" />
<glyph horiz-adv-x="1746" d="M-1874 8q133 -108 317 -164.5t368.5 -65.5t415 8.5t422 47t425.5 60.5t391 40q-15 102 -8 199q-115 -115 -258 -98q-60 6 -104.5 55t-66 125.5t-28 169.5t11 192.5t50.5 188.5t91 162.5t132 111.5q80 44 162 35.5t135 -76.5q29 -44 45 -90q35 103 51 142 q52 -16 92.5 -35.5t62 -37t34.5 -34.5t16.5 -28.5t1.5 -20.5t-41 -150q56 -14 109 8t87 64q-52 34 -80.5 95t-25 150t48.5 185l180 -104q-71 -196 -35 -268q19 -39 58 -17q46 25 69 102q8 24 11 50q165 -53 206 -88q20 -17 17 -31q-39 -166 -56.5 -298.5t-13 -237t36 -169.5 t87.5 -92.5t144 -10t205 80.5l19 -45q-119 -70 -223.5 -99.5t-184.5 -18t-142.5 54t-101.5 116t-58 169.5t-15.5 213.5t28.5 248.5q-56 -21 -110 -12q-45 -58 -117.5 -91.5t-157.5 -5.5q-85 -303 -114 -477q-26 -168 -29 -287q174 -47 213 -146q27 -72 -24 -135 q-48 -61 -128.5 -66t-150.5 55q-82 69 -123 247q-114 -10 -251.5 -38.5t-262.5 -64.5t-265.5 -74.5t-266.5 -73.5t-260 -57t-250.5 -28t-233 16t-214.5 72t-186.5 143.5t-156.5 227.5zM252 371.5q10 -94.5 51 -113.5q86 -43 157 87q65 118 83 297q18 172 -25 241 q-28 43 -76 24q-66 -26 -115.5 -125t-67 -207.5t-7.5 -203zM686 -125q2 -57 12.5 -98.5t26 -61.5t33.5 -27.5t35 -2.5t30 18t18.5 31t0.5 39t-20.5 40.5t-50.5 36t-85 25.5z" />
<glyph horiz-adv-x="1144" d="M0 1149q53 -16 168 -39q37 127 88 270q52 -17 92 -36.5t62 -36.5t35 -34t16 -29t0 -21q-8 -32 -41 -154q101 -15 221 -27q45 166 107 338q52 -16 92 -35.5t62 -36.5t35 -34t16 -28.5t1 -20.5q-10 -40 -30 -110t-27 -97q149 -15 286.5 30.5t235 129t161.5 194.5 t79.5 221.5t-25.5 214.5t-141 170q-9 6 9 9q53 8 143 -17q166 -47 222 -166q28 -57 25 -129q-3 -76 -41.5 -162.5t-103.5 -170t-160 -159.5t-203.5 -131.5t-240.5 -84.5t-266 -21q-46 -176 -66 -307q-21 -143 -20.5 -254t30.5 -183t86 -103t146 -14.5t211 81.5l18 -45 q-127 -74 -237 -101.5t-192 -12t-144 68.5q-238 -113 -388 -60t-213 229.5t-32 438.5q19 159 74 367q-51 9 -88 17t-48 12l-12 3zM299.5 353.5q6.5 -117.5 47.5 -189.5t121 -83t202 36q-72 89 -98.5 235.5t-4.5 331.5q14 126 56 295q-99 12 -220 31q-62 -218 -84 -373 q-26 -166 -19.5 -283.5z" />
<glyph horiz-adv-x="1617" d="M3 438q-15 295 77 643q88 -27 140 -49.5t69 -38t14 -28.5q-49 -177 -67.5 -362t-4.5 -296.5t52 -101.5q37 10 82.5 143.5t78.5 314t39 324.5q0 13 61 -4t121.5 -42.5t59.5 -35.5q-2 -51 -10 -157q58 -16 112 6t88 65q-51 33 -79.5 93.5t-24.5 149.5t49 185l178 -102 q-70 -198 -34 -269q20 -39 60 -17q46 25 69 102q7 24 10 49q21 -6 50 -15.5t74.5 -27t73.5 -37.5t25 -37q-30 -124 -47 -229.5t-22.5 -196t3 -159.5t31 -120t61 -78t91.5 -31t124.5 17.5t159.5 69.5l19 -45q-104 -61 -197.5 -91.5t-167.5 -29t-135.5 28.5t-104.5 78.5 t-72 123.5t-39.5 161t-5.5 193.5t28 219.5q-58 -24 -113 -12q-43 -58 -113.5 -91t-154.5 -8q-27 -370 -103 -727q154 11 330 -4.5t310 -40.5t317.5 -59t310.5 -49q151 -15 184 -17q480 -24 903 172q-46 -90 -106.5 -158.5t-121.5 -111t-136 -69.5t-139.5 -38t-143.5 -11.5 t-137 5t-129 15.5q-13 2 -76 12q-24 3 -96 16q-147 28 -342.5 83t-337 98t-308 73.5t-296.5 24.5q-77 -286 -229 -376q-100 -59 -196 -16q-74 33 -101 107q-34 93 33 179q77 98 266 145q37 146 69 397q-83 -275 -192 -331q-81 -42 -147 52q-82 118 -94 373zM128 -319 q1 -21 11 -35q20 -16 51 -15t77 66.5t81 179.5q-59 -18 -103.5 -44t-68.5 -52t-36.5 -52.5t-11.5 -47.5z" />
<glyph horiz-adv-x="1638" d="M-254 -479q203 -226 464 -223q188 3 347 119q125 92 169 205q46 122 -30 198q-39 39 -106 59q-79 -269 -227 -351q-100 -56 -194 -11q-74 35 -100 110q-32 94 39 179q79 94 261 139q44 170 69 397q-83 -274 -191 -330q-81 -42 -147 52q-83 118 -95 372q-15 296 77 645 q89 -29 140.5 -51t68.5 -37.5t14 -29.5q-48 -177 -66 -362t-4.5 -296t50.5 -102q38 10 83.5 144.5t78 315t38.5 324.5q1 12 62 -5t121.5 -42.5t60.5 -34.5q-2 -25 -5 -76t-5 -77q43 -17 84 -10t73.5 26.5t55.5 48.5q-51 33 -79.5 93.5t-24.5 150t49 186.5l180 -104 q-71 -196 -36 -268q19 -38 58 -18q45 25 69 101q8 25 11 52q165 -53 206 -88q20 -17 17 -31q-40 -166 -57.5 -299t-13 -237t35.5 -169t87.5 -93t144.5 -10.5t205 81.5l18 -45q-119 -70 -223 -99.5t-183.5 -18t-142 54t-101 116t-58 169.5t-15.5 213.5t29 248.5 q-53 -22 -111 -12q-47 -61 -121 -93.5t-161 0.5q-32 -414 -113 -770q163 -45 191 -186q26 -132 -71 -297q-91 -154 -241 -253q-191 -126 -375 -90q-43 9 -83 26q-106 46 -186 152t-91 241zM129.5 -323.5q1.5 -21.5 13.5 -34.5q10 -13 27 -15t39 11t45.5 39.5t49 78.5 t46.5 121q-60 -19 -105 -45.5t-69 -53.5t-36 -53.5t-10.5 -48z" />
<glyph horiz-adv-x="1112" d="M3.5 1136q-9.5 76 11.5 145.5t79 128t146 87.5q70 24 153 28t170 -9.5t164.5 -30.5t173.5 -39.5t160 -32.5q218 -35 445.5 -48t464 -1t450.5 49.5t409 111t334 177.5q10 -73 -10.5 -147t-58 -127t-75 -89t-65.5 -49q-11 -5 -45.5 -21.5t-61 -28.5t-84 -30t-115 -28.5 t-153 -20.5t-200 -11t-253 5.5t-315 24.5t-384 50t-461.5 77q0 -1 -8.5 -89.5t-23 -214t-30.5 -239.5q58 -2 147.5 -7t110.5 -5q3 -68 -270 -72q-33 -223 -66 -334q-59 -213 -161.5 -301t-234 -44t-277.5 212q1 3 1.5 8t1 7t1.5 1q41 -40 74.5 -65.5t71 -43t70.5 -13t66 27 t64 74.5t59 131q41 115 84 346q-188 8 -211 8q-3 65 226 72q58 352 79 596q-185 63 -241 75q-164 38 -252 -26q-41 -31 -63 -72.5t-21.5 -85.5t17.5 -89.5t55.5 -86t89.5 -72t123.5 -51t154.5 -20.5q12 0 -5 -28q-33 -51 -94 -76q-53 -22 -110 -11q-87 15 -155.5 63.5 t-105.5 113t-46.5 140.5z" />
<glyph horiz-adv-x="1142" d="M1 668q6 124 39 251t91 236q72 133 163 221t182.5 122.5t177 34.5t161.5 -32q155 -64 197 -185q37 -106 -23 -206q-61 -100 -186 -135q-128 -35 -279 18q187 7 295 132q77 89 79 192q2 90 -55 125q-17 10 -38 14q-62 11 -130.5 -18t-125.5 -82.5t-102 -115.5t-70 -120 q-46 -109 -74.5 -253t-31.5 -289t40.5 -264t132.5 -162q60 -22 108 -19t85.5 45.5t65.5 93.5t47.5 125t32.5 141t20.5 141t10.5 125t3 93q55 -11 93.5 -20.5t75.5 -20t55.5 -21t17.5 -20.5q-23 -474 -113 -881q175 16 338.5 10t340.5 -21t343 -40t345.5 -48.5t348 -45 t350.5 -30t352.5 -3.5t354.5 35t357 84q-72 -99 -150 -173.5t-156.5 -123t-164.5 -77.5t-170.5 -39.5t-179.5 -5.5t-186.5 20.5t-195.5 42t-203 56t-213 65.5q-129 41 -197.5 62t-197.5 56.5t-215 54t-212.5 40.5t-230.5 29t-228.5 6.5t-243.5 -13.5q-77 -279 -226 -368 q-100 -59 -196 -15q-74 33 -101 106q-34 93 33 179q77 98 265 145q38 140 61 334q-157 -271 -362 -254q-105 9 -187 68t-130 150t-71 207.5t-17 240.5zM478 -378q7 -10 18 -15q16 -7 38 2t48 35t54.5 80.5t51.5 130.5q-154 -49 -203 -141q-31 -56 -7 -92z" />
<glyph horiz-adv-x="856" d="M4 -136q-16 85 71 146q75 53 214 72q84 293 136 735t56 688q98 -20 178 -54t78 -54q-12 -250 -85 -681.5t-144 -666.5q303 -133 691 -207t741.5 -82t659 37t470.5 137q-25 -60 -47.5 -101t-55.5 -84.5t-77.5 -74.5t-102.5 -51q-179 -61 -442 -65.5t-529.5 35.5t-532 105 t-473 138.5t-329.5 138.5q-81 -192 -213 -239q-97 -35 -182 17q-69 42 -82 111zM52 -145q2 -11 9 -19q8 -11 23 -14.5t35.5 3.5t43 24.5t49 53.5t50.5 85q-39 -5 -72.5 -14t-56 -20t-40 -24t-26.5 -26t-13 -25.5t-2 -23.5z" />
<glyph horiz-adv-x="1210" d="M2 667q2 129 25.5 237t68.5 188.5t103 103.5q12 78 52.5 147.5t101.5 121t146 77.5t179 17q129 -13 230 -83.5t159.5 -176t84.5 -238t16.5 -269.5t-56.5 -271.5t-124 -243t-195 -185t-261 -96.5q600 -139 1135.5 -215.5t993 -88t811 58t561.5 218.5q-47 -163 -150 -274 t-244.5 -166t-328 -73.5t-389.5 -1t-441.5 55t-471 90t-490 110t-488 109.5t-475.5 92.5t-442 55.5q52 52 102 76q-74 54 -124.5 156t-70.5 220.5t-18 247.5zM186.5 616q-0.5 -149 34.5 -266t107.5 -191.5t169.5 -74.5q119 0 221 141.5t150 344.5t58 406.5t-53.5 349 t-187.5 151.5q-135 6 -236 -117q-87 -105 -105 -245q-18 -146 53 -228q96 -110 309 -42q31 10 63 23q-45 -71 -128 -114.5t-175.5 -39.5t-155.5 66q-56 56 -84 129q-40 -144 -40.5 -293z" />
<glyph horiz-adv-x="1024" d="M2.5 1143q-7.5 76 15 145t82 128t148.5 89q70 23 151.5 27t167.5 -9.5t162.5 -30.5t171.5 -39t158 -32q275 -44 563.5 -52.5t572.5 19.5t539 109.5t428 210.5q10 -73 -10.5 -147t-57.5 -126.5t-74.5 -88.5t-66.5 -48q-10 -4 -45.5 -22t-61 -29.5t-83.5 -29.5t-115 -28.5 t-152.5 -20.5t-199.5 -11t-252 5.5t-314 24t-383 49.5t-460 77q-24 -86 -57 -227t-69.5 -362t-33.5 -353q1 -73 11.5 -126t25.5 -84.5t41.5 -46.5t50.5 -18t63 7t69 21.5t77 33.5q1 0 3.5 -28t2.5 -36q-141 -77 -255 -91t-191 34t-115 159.5t-29 280.5q8 168 85 474.5 t122 408.5q-23 8 -74.5 25.5t-75.5 25.5t-68.5 21t-70 17.5t-62.5 8.5t-62 0t-53.5 -14t-51.5 -27q-42 -31 -65 -72.5t-23.5 -85.5t15 -89t53.5 -85.5t88.5 -72t123 -51t154.5 -21.5q13 0 -7 -28q-35 -52 -100 -77q-51 -19 -106 -10q-87 15 -154 63.5t-103 113.5t-43.5 141z " />
<glyph horiz-adv-x="1103" d="M3.5 1223q-6.5 73 13.5 136.5t63 102.5q40 36 97.5 58.5t115.5 26t109 -5t84.5 -35t35.5 -64.5q4 -53 -7 -128.5t-33 -184t-31 -162.5q114 -35 153 -43q-20 -31 -45 -50t-44.5 -25t-40 -6t-29.5 2.5t-15 4.5q-31 -116 -48.5 -270.5t-5.5 -288.5t64 -150 q67 -21 127.5 51.5t103 204t76.5 289.5t54 315t30.5 272t10.5 169q55 -11 94.5 -20.5t76 -20t55 -21t17.5 -20.5q-17 -306 -75 -718.5t-127 -721.5q146 10 302 7.5t303.5 -17.5t305.5 -33.5t307 -42.5t309 -43t311 -34.5t313 -19t315 5t317 38t319 78.5q-243 -333 -568 -402 q-240 -51 -595 33q-143 34 -509 148q-419 131 -673 180q-409 78 -772 43q-77 -283 -228 -371q-100 -58 -195 -15q-74 33 -101 106q-34 93 33 179q77 97 264 144q18 68 47 232.5t43 269.5q-10 -63 -39 -135t-71 -137.5t-101.5 -106.5t-120.5 -35q-76 7 -130 48t-81 101.5 t-39.5 140.5t-10.5 158t10.5 162t19.5 145t21.5 114t11.5 63q-90 64 -140.5 145t-57 154zM69 1305.5q-7 -66.5 32 -138.5t122 -116q0 -3 11.5 59t23 127.5t12.5 67.5q23 103 1.5 142t-67 29t-89.5 -59q-39 -45 -46 -111.5zM413 -397q7 -10 17 -15q17 -7 39.5 2t48 35 t53.5 80.5t52 130.5q-154 -50 -203 -142q-30 -55 -7 -91z" />
</font>
</defs>
</svg>
